<?xml version="1.0" encoding="UTF-8"?>
<svg version="1.1" xmlns="http://www.w3.org/2000/svg" width="626" height="626">
<path d="M0 0 C1.20962465 -0.00311998 2.41924931 -0.00623996 3.66552925 -0.00945449 C7.01533475 -0.01604576 10.36491559 -0.0136813 13.71470737 -0.00748205 C17.3303002 -0.00295496 20.94587347 -0.0099426 24.5614624 -0.01544189 C31.64133715 -0.02433479 38.72116949 -0.02241435 45.80104589 -0.01661661 C51.55505058 -0.01209973 57.30904337 -0.01148734 63.06304932 -0.01366425 C64.29149179 -0.01412394 64.29149179 -0.01412394 65.54475129 -0.01459293 C67.2084597 -0.01523238 68.87216811 -0.01588081 70.53587651 -0.01653811 C86.13621789 -0.0222411 101.73653577 -0.015684 117.33687329 -0.00493738 C130.72247808 0.0039981 144.10804818 0.00244605 157.49365234 -0.0067749 C173.03820047 -0.01747808 188.58272799 -0.02169178 204.12727928 -0.01555037 C205.78486506 -0.01491328 207.44245084 -0.01428454 209.10003662 -0.01366425 C210.32338028 -0.01320142 210.32338028 -0.01320142 211.57143795 -0.01272924 C217.31848401 -0.01100245 223.065517 -0.01391708 228.81256104 -0.01862335 C235.81634804 -0.0242327 242.82009022 -0.02271459 249.82387209 -0.01206186 C253.39725239 -0.00680589 256.97055794 -0.00474714 260.54393768 -0.01136017 C264.41702937 -0.01841944 268.28999866 -0.00998984 272.16308594 0 C273.29323687 -0.00446144 274.42338779 -0.00892289 275.58778572 -0.01351953 C280.80755255 0.01267392 285.20841796 0.12732913 290.08154297 2.25396729 C290.08154297 2.91396729 290.08154297 3.57396729 290.08154297 4.25396729 C291.19529297 4.43959229 291.19529297 4.43959229 292.33154297 4.62896729 C294.88295782 5.2088343 296.80830027 5.99105468 299.08154297 7.25396729 C299.08154297 7.91396729 299.08154297 8.57396729 299.08154297 9.25396729 C299.74154297 9.25396729 300.40154297 9.25396729 301.08154297 9.25396729 C301.08154297 9.91396729 301.08154297 10.57396729 301.08154297 11.25396729 C301.74154297 11.25396729 302.40154297 11.25396729 303.08154297 11.25396729 C303.08154297 11.91396729 303.08154297 12.57396729 303.08154297 13.25396729 C304.07154297 13.25396729 305.06154297 13.25396729 306.08154297 13.25396729 C306.74154297 14.90396729 307.40154297 16.55396729 308.08154297 18.25396729 C308.74154297 18.25396729 309.40154297 18.25396729 310.08154297 18.25396729 C311.54217147 20.90135645 312.08154297 22.14845063 312.08154297 25.25396729 C312.74154297 25.25396729 313.40154297 25.25396729 314.08154297 25.25396729 C314.08154297 27.23396729 314.08154297 29.21396729 314.08154297 31.25396729 C314.74154297 31.25396729 315.40154297 31.25396729 316.08154297 31.25396729 C318.20479417 39.04153318 318.35292304 46.35865244 318.30859375 54.40264893 C318.30802864 55.81282544 318.30834815 57.22300254 318.30947876 58.63317871 C318.31004937 62.4362959 318.29834267 66.23928529 318.28433084 70.04237294 C318.27177452 74.02618199 318.27064914 78.00999441 318.26828003 81.99382019 C318.26207961 89.52652477 318.24568836 97.05917085 318.22558105 104.59184974 C318.20317715 113.17229808 318.19221735 121.75274931 318.18219018 130.33321965 C318.16132077 147.97350194 318.12617292 165.6137299 318.08154297 183.25396729 C317.42154297 183.25396729 316.76154297 183.25396729 316.08154297 183.25396729 C316.08154297 183.91396729 316.08154297 184.57396729 316.08154297 185.25396729 C314.76154297 185.25396729 313.44154297 185.25396729 312.08154297 185.25396729 C312.08154297 184.59396729 312.08154297 183.93396729 312.08154297 183.25396729 C310.60185973 183.39446246 309.1227978 183.54151555 307.64404297 183.69146729 C306.82033203 183.77267822 305.99662109 183.85388916 305.14794922 183.93756104 C303.09492271 184.04327543 303.09492271 184.04327543 302.08154297 185.25396729 C298.77542797 186.05092156 295.42466915 186.63281242 292.08154297 187.25396729 C290.31810547 187.59427979 290.31810547 187.59427979 288.51904297 187.94146729 C287.71466797 188.04459229 286.91029297 188.14771729 286.08154297 188.25396729 C285.75154297 187.92396729 285.42154297 187.59396729 285.08154297 187.25396729 C285.08154297 146.00396729 285.08154297 104.75396729 285.08154297 62.25396729 C186.41154297 62.58396729 87.74154297 62.91396729 -13.91845703 63.25396729 C-13.91845703 148.06396729 -13.91845703 232.87396729 -13.91845703 320.25396729 C-13.25845703 320.25396729 -12.59845703 320.25396729 -11.91845703 320.25396729 C-11.91845703 321.57396729 -11.91845703 322.89396729 -11.91845703 324.25396729 C-11.25845703 324.25396729 -10.59845703 324.25396729 -9.91845703 324.25396729 C-9.91845703 324.91396729 -9.91845703 325.57396729 -9.91845703 326.25396729 C-9.25845703 326.25396729 -8.59845703 326.25396729 -7.91845703 326.25396729 C-7.91845703 326.91396729 -7.91845703 327.57396729 -7.91845703 328.25396729 C-4.06096736 329.15510616 -0.47296527 329.38728422 3.48455811 329.40545654 C4.77735184 329.4138002 6.07014557 329.42214386 7.40211487 329.43074036 C8.82748388 329.43504921 10.25285316 329.43927305 11.67822266 329.44342041 C13.18470998 329.45136675 14.69119502 329.45975502 16.19767761 329.46855164 C19.4366464 329.48657891 22.67561027 329.5016047 25.91460419 329.514328 C31.03166429 329.5345667 36.14866788 329.56221394 41.26568604 329.59100342 C53.04572305 329.65615356 64.82580169 329.71169239 76.60588837 329.76699066 C87.41353764 329.81780003 98.22116623 329.87062069 109.02876401 329.93151617 C114.12064122 329.95992246 119.2125115 329.98349659 124.30442858 330.00344086 C127.46313245 330.01678683 130.62180416 330.0342004 133.78048134 330.05275154 C135.25070957 330.06053464 136.72094804 330.06659229 138.19119072 330.07084465 C140.1896334 330.07685311 142.18805305 330.08946682 144.1864624 330.10247803 C145.30732113 330.10763176 146.42817986 330.11278549 147.583004 330.1180954 C150.08154297 330.25396729 150.08154297 330.25396729 151.08154297 331.25396729 C151.36730827 336.77876305 150.82665894 341.01861938 149.08154297 346.25396729 C148.42154297 346.25396729 147.76154297 346.25396729 147.08154297 346.25396729 C147.12279297 347.24396729 147.16404297 348.23396729 147.20654297 349.25396729 C147.1978059 353.54387006 146.39791356 357.16629019 145.08154297 361.25396729 C141.60124361 363.57416686 140.26405318 363.50506165 136.15596008 363.50793457 C134.91810257 363.51357422 133.68024506 363.51921387 132.40487671 363.52502441 C131.03057803 363.52113558 129.65627993 363.51703923 128.28198242 363.51275635 C126.83640873 363.51546613 125.39083641 363.51902699 123.94526672 363.52337646 C120.01524617 363.53250838 116.08533043 363.52895185 112.15530801 363.52261829 C108.0404 363.5175576 103.92550101 363.52225039 99.81059265 363.52539062 C92.89446401 363.52903211 85.97837803 363.52422853 79.06225586 363.51470947 C71.07741814 363.50384606 63.09268272 363.50733435 55.10784751 363.51836228 C48.2482619 363.52745566 41.38870699 363.52870977 34.52911729 363.52348495 C30.43428924 363.52037374 26.33950915 363.51993208 22.24468422 363.52655792 C18.38938713 363.53235982 14.53422095 363.52828271 10.67893791 363.51676941 C9.26808514 363.51413705 7.85722125 363.51486343 6.44637299 363.51929474 C-0.66983337 363.53957483 -7.10747307 363.41755224 -13.91845703 361.25396729 C-13.91845703 360.59396729 -13.91845703 359.93396729 -13.91845703 359.25396729 C-15.89845703 359.25396729 -17.87845703 359.25396729 -19.91845703 359.25396729 C-19.91845703 358.59396729 -19.91845703 357.93396729 -19.91845703 357.25396729 C-20.90845703 357.25396729 -21.89845703 357.25396729 -22.91845703 357.25396729 C-22.91845703 356.59396729 -22.91845703 355.93396729 -22.91845703 355.25396729 C-24.23845703 355.25396729 -25.55845703 355.25396729 -26.91845703 355.25396729 C-26.91845703 354.59396729 -26.91845703 353.93396729 -26.91845703 353.25396729 C-27.55783203 352.98584229 -28.19720703 352.71771729 -28.85595703 352.44146729 C-30.91845703 351.25396729 -30.91845703 351.25396729 -31.91845703 348.25396729 C-32.57845703 348.25396729 -33.23845703 348.25396729 -33.91845703 348.25396729 C-33.91845703 347.59396729 -33.91845703 346.93396729 -33.91845703 346.25396729 C-34.57845703 346.25396729 -35.23845703 346.25396729 -35.91845703 346.25396729 C-35.91845703 345.59396729 -35.91845703 344.93396729 -35.91845703 344.25396729 C-36.57845703 344.25396729 -37.23845703 344.25396729 -37.91845703 344.25396729 C-37.91845703 342.93396729 -37.91845703 341.61396729 -37.91845703 340.25396729 C-38.57845703 340.25396729 -39.23845703 340.25396729 -39.91845703 340.25396729 C-40.24845703 338.60396729 -40.57845703 336.95396729 -40.91845703 335.25396729 C-41.57845703 335.25396729 -42.23845703 335.25396729 -42.91845703 335.25396729 C-44.44999872 331.83266433 -45.17011311 329.14859296 -45.18296337 325.40540409 C-45.19104556 324.45108244 -45.19912775 323.49676079 -45.20745486 322.5135203 C-45.20620225 321.47308036 -45.20494963 320.43264042 -45.20365906 319.360672 C-45.21015703 318.24894542 -45.21665499 317.13721885 -45.22334987 315.99180359 C-45.24272927 312.25828586 -45.24791422 308.52488316 -45.25317383 304.7913208 C-45.26410768 302.11694604 -45.27581945 299.44258505 -45.28848267 296.76821899 C-45.31752964 290.24902331 -45.33597169 283.72983845 -45.35082277 277.21059663 C-45.36853258 269.60207473 -45.39655969 261.99360124 -45.42495499 254.38511299 C-45.47533153 240.78762492 -45.51606659 227.19012478 -45.55151367 213.59259033 C-45.58581002 200.4389127 -45.62720389 187.28528286 -45.67651367 174.13165283 C-45.67954062 173.32398154 -45.68256758 172.51631024 -45.68568625 171.68416405 C-45.68870829 170.87781283 -45.69173033 170.07146161 -45.69484395 169.24067551 C-45.75102815 154.22948433 -45.80005334 139.21827662 -45.846044 124.207051 C-45.86240318 118.92338776 -45.88089742 113.63973451 -45.90012169 108.35608101 C-45.92351928 101.88964202 -45.94277574 95.42320454 -45.95715459 88.95673902 C-45.96454555 85.66695403 -45.97407526 82.37720253 -45.9872036 79.08743477 C-46.0181891 71.14213443 -46.01070176 63.19885769 -45.91845703 55.25396729 C-45.90635201 54.20691832 -45.89424698 53.15986936 -45.88177514 52.08109164 C-45.83424946 49.08203281 -45.75606185 46.08559529 -45.66511536 43.08757019 C-45.6512314 42.21965459 -45.63734744 41.351739 -45.62304276 40.45752293 C-45.38352936 34.32810332 -43.73988975 29.67484263 -40.91845703 24.25396729 C-40.58845703 23.59396729 -40.25845703 22.93396729 -39.91845703 22.25396729 C-39.25845703 22.25396729 -38.59845703 22.25396729 -37.91845703 22.25396729 C-37.70189453 21.32584229 -37.70189453 21.32584229 -37.48095703 20.37896729 C-36.91845703 18.25396729 -36.91845703 18.25396729 -35.91845703 16.25396729 C-35.25845703 16.25396729 -34.59845703 16.25396729 -33.91845703 16.25396729 C-33.91845703 15.26396729 -33.91845703 14.27396729 -33.91845703 13.25396729 C-33.25845703 13.25396729 -32.59845703 13.25396729 -31.91845703 13.25396729 C-31.91845703 12.59396729 -31.91845703 11.93396729 -31.91845703 11.25396729 C-30.92845703 11.25396729 -29.93845703 11.25396729 -28.91845703 11.25396729 C-28.91845703 10.59396729 -28.91845703 9.93396729 -28.91845703 9.25396729 C-28.25845703 9.25396729 -27.59845703 9.25396729 -26.91845703 9.25396729 C-26.91845703 8.59396729 -26.91845703 7.93396729 -26.91845703 7.25396729 C-25.59845703 7.25396729 -24.27845703 7.25396729 -22.91845703 7.25396729 C-22.91845703 6.59396729 -22.91845703 5.93396729 -22.91845703 5.25396729 C-15.60884836 0.09424351 -8.63288903 -0.03407965 0 0 Z " fill="#020202" transform="translate(161.91845703125,116.74603271484375)"/>
<path d="M0 0 C2.31 0 4.62 0 7 0 C7 0.99 7 1.98 7 3 C8.32 3.66 9.64 4.32 11 5 C11 5.66 11 6.32 11 7 C11.66 7 12.32 7 13 7 C13 7.66 13 8.32 13 9 C13.99 9 14.98 9 16 9 C16 9.66 16 10.32 16 11 C16.66 11 17.32 11 18 11 C18.99 13.475 18.99 13.475 20 16 C20.66 16 21.32 16 22 16 C22 16.66 22 17.32 22 18 C22.66 18 23.32 18 24 18 C24 18.66 24 19.32 24 20 C24.66 20 25.32 20 26 20 C26 20.66 26 21.32 26 22 C26.99 22 27.98 22 29 22 C33 26.34285714 33 26.34285714 33 29 C33.66 29 34.32 29 35 29 C35 29.66 35 30.32 35 31 C35.66 31 36.32 31 37 31 C37 31.66 37 32.32 37 33 C37.66 33 38.32 33 39 33 C39 33.66 39 34.32 39 35 C39.99 35 40.98 35 42 35 C42.99 37.475 42.99 37.475 44 40 C44.66 40 45.32 40 46 40 C48.01147551 42.01147551 49.5778733 43.59201655 51 46 C50.87005744 48.85873639 50.26513143 50.46973714 49 53 C48.01 53 47.02 53 46 53 C46 53.66 46 54.32 46 55 C45.34 55 44.68 55 44 55 C44 55.66 44 56.32 44 57 C43.34 57 42.68 57 42 57 C42 57.66 42 58.32 42 59 C41.34 59 40.68 59 40 59 C39.731875 59.598125 39.46375 60.19625 39.1875 60.8125 C38.00082594 62.99847854 36.90400887 64.41332594 35 66 C34.34 66 33.68 66 33 66 C33 66.66 33 67.32 33 68 C32.34 68 31.68 68 31 68 C31 68.66 31 69.32 31 70 C30.34 70 29.68 70 29 70 C29 70.66 29 71.32 29 72 C28.34 72 27.68 72 27 72 C27 72.99 27 73.98 27 75 C26.34 75 25.68 75 25 75 C25 75.66 25 76.32 25 77 C24.34 77 23.68 77 23 77 C23 77.66 23 78.32 23 79 C22.01 79 21.02 79 20 79 C20 79.66 20 80.32 20 81 C19.34 81 18.68 81 18 81 C18 81.66 18 82.32 18 83 C17.34 83 16.68 83 16 83 C16 83.66 16 84.32 16 85 C15.34 85 14.68 85 14 85 C13.5978125 85.8971875 13.5978125 85.8971875 13.1875 86.8125 C12.00082594 88.99847854 10.90400887 90.41332594 9 92 C8.34 92 7.68 92 7 92 C7 92.66 7 93.32 7 94 C6.34 94 5.68 94 5 94 C5 94.66 5 95.32 5 96 C4.34 96 3.68 96 3 96 C3 96.66 3 97.32 3 98 C2.34 98 1.68 98 1 98 C0.731875 98.639375 0.46375 99.27875 0.1875 99.9375 C-1 102 -1 102 -4 103 C-4 103.66 -4 104.32 -4 105 C-4.66 105 -5.32 105 -6 105 C-6 105.66 -6 106.32 -6 107 C-6.66 107 -7.32 107 -8 107 C-8 107.66 -8 108.32 -8 109 C-8.66 109 -9.32 109 -10 109 C-10.4021875 109.8971875 -10.4021875 109.8971875 -10.8125 110.8125 C-11.99917406 112.99847854 -13.09599113 114.41332594 -15 116 C-15.66 116 -16.32 116 -17 116 C-17 116.66 -17 117.32 -17 118 C-17.66 118 -18.32 118 -19 118 C-19 118.66 -19 119.32 -19 120 C-19.66 120 -20.32 120 -21 120 C-21 120.66 -21 121.32 -21 122 C-21.66 122 -22.32 122 -23 122 C-23 122.66 -23 123.32 -23 124 C-36.6332574 129.74031891 -36.6332574 129.74031891 -43 129 C-43 129.66 -43 130.32 -43 131 C-44.98 131 -46.96 131 -49 131 C-49 131.66 -49 132.32 -49 133 C-51.64 133.33 -54.28 133.66 -57 134 C-57 134.33 -57 134.66 -57 135 C-58.4540625 135.4021875 -58.4540625 135.4021875 -59.9375 135.8125 C-62.84472916 136.62887344 -65.66121758 137.59758475 -68.5 138.625 C-72.52727999 139.99966332 -75.76794183 140.27013137 -80 140 C-80 140.66 -80 141.32 -80 142 C-82.94124258 142.24510355 -84.59327876 142.23241214 -87.1875 140.75 C-89.11983395 138.88429826 -90.08451372 137.51758727 -91 135 C-91 133.68 -91 132.36 -91 131 C-90.34 131 -89.68 131 -89 131 C-89.04898437 129.99710938 -89.09796875 128.99421875 -89.1484375 127.9609375 C-88.98900231 123.70653519 -88.07234773 120.61566396 -86.625 116.625 C-84.68101033 111.12577983 -83.1057782 105.72994161 -82 100 C-81.34 100 -80.68 100 -80 100 C-80 98.02 -80 96.04 -80 94 C-79.34 94 -78.68 94 -78 94 C-78.061875 92.824375 -78.12375 91.64875 -78.1875 90.4375 C-78.20296248 86.06161719 -76.86893841 82.96214942 -75 79 C-74.87625 78.071875 -74.7525 77.14375 -74.625 76.1875 C-74.315625 75.1046875 -74.315625 75.1046875 -74 74 C-71.4375 72.6875 -71.4375 72.6875 -69 72 C-69 71.34 -69 70.68 -69 70 C-68.34 70 -67.68 70 -67 70 C-67 69.01 -67 68.02 -67 67 C-66.34 67 -65.68 67 -65 67 C-65 66.34 -65 65.68 -65 65 C-64.34 65 -63.68 65 -63 65 C-63 64.34 -63 63.68 -63 63 C-62.34 63 -61.68 63 -61 63 C-61 62.34 -61 61.68 -61 61 C-60.01 61 -59.02 61 -58 61 C-58 60.34 -58 59.68 -58 59 C-57.34 59 -56.68 59 -56 59 C-56 58.34 -56 57.68 -56 57 C-55.34 57 -54.68 57 -54 57 C-54 56.01 -54 55.02 -54 54 C-53.34 54 -52.68 54 -52 54 C-52 53.34 -52 52.68 -52 52 C-51.34 52 -50.68 52 -50 52 C-50 51.34 -50 50.68 -50 50 C-48.1875 47.875 -48.1875 47.875 -46 46 C-45.01 46 -44.02 46 -43 46 C-43 45.34 -43 44.68 -43 44 C-42.34 44 -41.68 44 -41 44 C-41 43.01 -41 42.02 -41 41 C-40.34 41 -39.68 41 -39 41 C-39 40.34 -39 39.68 -39 39 C-38.34 39 -37.68 39 -37 39 C-37 38.34 -37 37.68 -37 37 C-36.34 36.34 -35.68 35.68 -35 35 C-34.01 35 -33.02 35 -32 35 C-32 34.34 -32 33.68 -32 33 C-31.34 33 -30.68 33 -30 33 C-30 32.01 -30 31.02 -30 30 C-29.34 30 -28.68 30 -28 30 C-28 29.34 -28 28.68 -28 28 C-27.34 28 -26.68 28 -26 28 C-26 27.34 -26 26.68 -26 26 C-25.34 26 -24.68 26 -24 26 C-24 25.34 -24 24.68 -24 24 C-23.34 23.34 -22.68 22.68 -22 22 C-21.01 22 -20.02 22 -19 22 C-19 21.34 -19 20.68 -19 20 C-18.34 20 -17.68 20 -17 20 C-17 19.34 -17 18.68 -17 18 C-16.34 18 -15.68 18 -15 18 C-15 17.01 -15 16.02 -15 15 C-14.34 15 -13.68 15 -13 15 C-13 14.34 -13 13.68 -13 13 C-12.34 13 -11.68 13 -11 13 C-11 12.34 -11 11.68 -11 11 C-10.01 11 -9.02 11 -8 11 C-8 10.34 -8 9.68 -8 9 C-7.34 9 -6.68 9 -6 9 C-6 8.34 -6 7.68 -6 7 C-5.34 7 -4.68 7 -4 7 C-4 6.34 -4 5.68 -4 5 C-3.34 5 -2.68 5 -2 5 C-1.34 3.35 -0.68 1.7 0 0 Z M-60 85 C-60 86.32 -60 87.64 -60 89 C-60.66 89 -61.32 89 -62 89 C-62.41572266 90.39025391 -62.41572266 90.39025391 -62.83984375 91.80859375 C-63.20207031 93.00613281 -63.56429688 94.20367187 -63.9375 95.4375 C-64.29714844 96.63246094 -64.65679687 97.82742188 -65.02734375 99.05859375 C-66 102 -66 102 -67 103 C-67.07148199 104.35243917 -67.08399454 105.70834367 -67.0625 107.0625 C-67.041875 108.361875 -67.02125 109.66125 -67 111 C-67.66 111 -68.32 111 -69 111 C-69 112.32 -69 113.64 -69 115 C-68.38125 115.0825 -67.7625 115.165 -67.125 115.25 C-65 116 -65 116 -63.8671875 118.046875 C-63.58101563 118.69140625 -63.29484375 119.3359375 -63 120 C-62.45472656 119.80664062 -61.90945313 119.61328125 -61.34765625 119.4140625 C-55.9561948 117.55239547 -50.59078274 116.12344334 -45 115 C-45 114.34 -45 113.68 -45 113 C-42.36 113 -39.72 113 -37 113 C-37 112.34 -37 111.68 -37 111 C-36.34 111 -35.68 111 -35 111 C-35.78735237 103.91382869 -36.73898065 96.78305804 -39 90 C-41.68021127 88.84473652 -44.23235215 87.87971664 -47 87 C-48.19625 86.608125 -49.3925 86.21625 -50.625 85.8125 C-53.89434319 85.0254359 -56.65372007 84.83676683 -60 85 Z " fill="#050505" transform="translate(419,367)"/>
<path d="M0 0 C50.16 0 100.32 0 152 0 C154.28606619 4.57213239 153.23016856 10.91766753 153.25 15.9375 C153.2809375 17.88946289 153.2809375 17.88946289 153.3125 19.88085938 C153.32023437 21.74774414 153.32023437 21.74774414 153.328125 23.65234375 C153.3374707 24.79695068 153.34681641 25.94155762 153.35644531 27.12084961 C153 30 153 30 151.85059452 31.65697861 C149.20935067 33.57379342 147.2801501 33.37187614 144.03404236 33.36749268 C142.16424965 33.37584641 142.16424965 33.37584641 140.25668335 33.3843689 C138.87286188 33.37534617 137.48904231 33.36602838 136.10522461 33.35644531 C134.64991635 33.35723605 133.1946083 33.35933288 131.73930359 33.36264038 C127.78482712 33.36777971 123.83061034 33.35422898 119.87617564 33.33711338 C115.74245375 33.32209398 111.60873546 33.32325182 107.47499084 33.32244873 C100.53365638 33.31875483 93.59242073 33.30378061 86.65112305 33.28125 C77.73381529 33.25236499 68.81658709 33.24202595 59.89923763 33.2375679 C52.24174054 33.23359132 44.58426083 33.22108948 36.92677617 33.20722103 C34.46077149 33.20311822 31.99476742 33.20019455 29.52876091 33.19742584 C25.65873277 33.19253966 21.78875308 33.18234779 17.91874886 33.16798782 C16.49570274 33.16345771 15.07265011 33.16062448 13.64959717 33.15958023 C11.71271305 33.15783965 9.77583848 33.14933447 7.838974 33.14044189 C6.75331115 33.13746723 5.6676483 33.13449257 4.54908657 33.13142776 C2 33 2 33 0 32 C0 21.44 0 10.88 0 0 Z " fill="#010101" transform="translate(252,237)"/>
<path d="M0 0 C19.80106857 -0.02254575 39.60212679 -0.04097843 59.40320492 -0.05181217 C68.59652604 -0.05697545 77.78983864 -0.06401875 86.9831543 -0.07543945 C94.99307036 -0.08538532 103.00298025 -0.09185319 111.01290232 -0.09408849 C115.25677253 -0.09539577 119.5006251 -0.09848266 123.74448967 -0.10573006 C127.7342907 -0.11248874 131.7240667 -0.11461727 135.71387291 -0.11310768 C137.18249395 -0.11338408 138.65111579 -0.1153901 140.1197319 -0.11920547 C142.11622776 -0.12414028 144.11273687 -0.12239813 146.10923767 -0.12025452 C147.22921615 -0.12117631 148.34919462 -0.1220981 149.50311184 -0.12304783 C152 0 152 0 153 1 C153.08783542 3.21855264 153.10694609 5.43988496 153.09765625 7.66015625 C153.09553383 8.65685585 153.09553383 8.65685585 153.09336853 9.6736908 C153.08775518 11.80333899 153.07520054 13.93288339 153.0625 16.0625 C153.05748671 17.50325369 153.05292351 18.94400903 153.04882812 20.38476562 C153.03778145 23.92321102 153.02050792 27.46159539 153 31 C150.26150981 32.3692451 148.09346501 32.12279723 145.02694702 32.12025452 C143.11701714 32.12231651 143.11701714 32.12231651 141.16850281 32.12442017 C139.749542 32.12088078 138.33058143 32.11724597 136.91162109 32.11352539 C135.4236603 32.11324345 133.93569936 32.1134014 132.44773865 32.1139679 C128.40045338 32.11425558 124.35319757 32.10836345 120.30591917 32.10139394 C116.07916124 32.09515567 111.85240269 32.09455623 107.62564087 32.09336853 C99.61815073 32.09025662 91.6106742 32.0820451 83.60319006 32.07201904 C74.48844593 32.06085358 65.37370117 32.05534636 56.2589519 32.05032361 C37.50595865 32.03986238 18.75298405 32.02151862 0 32 C0 21.44 0 10.88 0 0 Z " fill="#010101" transform="translate(252,297)"/>
<path d="M0 0 C1.50298346 0.00138269 1.50298346 0.00138269 3.03633022 0.00279331 C4.18202984 0.00141865 5.32772945 0.00004398 6.50814724 -0.00137234 C8.41030499 0.00402058 8.41030499 0.00402058 10.35089016 0.00952244 C11.69092208 0.00980431 13.03095415 0.00964657 14.37098598 0.00907993 C18.01958415 0.00879196 21.66814971 0.01468863 25.31674027 0.02165389 C29.12576493 0.02788749 32.93479026 0.02849123 36.74381924 0.0296793 C43.96156731 0.0327926 51.17930031 0.04100597 58.39704174 0.05102879 C66.61214234 0.06218997 74.82724364 0.06770039 83.04234993 0.07272422 C99.94590528 0.08318858 116.84944593 0.10078799 133.75298977 0.12304783 C133.75298977 2.10304783 133.75298977 4.08304783 133.75298977 6.12304783 C132.43298977 6.45304783 131.11298977 6.78304783 129.75298977 7.12304783 C129.75298977 7.78304783 129.75298977 8.44304783 129.75298977 9.12304783 C129.09298977 9.12304783 128.43298977 9.12304783 127.75298977 9.12304783 C127.75298977 10.11304783 127.75298977 11.10304783 127.75298977 12.12304783 C127.09298977 12.12304783 126.43298977 12.12304783 125.75298977 12.12304783 C125.75298977 12.78304783 125.75298977 13.44304783 125.75298977 14.12304783 C125.09298977 14.12304783 124.43298977 14.12304783 123.75298977 14.12304783 C123.75298977 14.78304783 123.75298977 15.44304783 123.75298977 16.12304783 C122.76298977 16.12304783 121.77298977 16.12304783 120.75298977 16.12304783 C120.75298977 16.78304783 120.75298977 17.44304783 120.75298977 18.12304783 C120.09298977 18.12304783 119.43298977 18.12304783 118.75298977 18.12304783 C118.75298977 18.78304783 118.75298977 19.44304783 118.75298977 20.12304783 C118.09298977 20.12304783 117.43298977 20.12304783 116.75298977 20.12304783 C116.09298977 21.77304783 115.43298977 23.42304783 114.75298977 25.12304783 C114.09298977 25.12304783 113.43298977 25.12304783 112.75298977 25.12304783 C112.75298977 25.78304783 112.75298977 26.44304783 112.75298977 27.12304783 C111.76298977 27.12304783 110.77298977 27.12304783 109.75298977 27.12304783 C109.75298977 27.78304783 109.75298977 28.44304783 109.75298977 29.12304783 C109.09298977 29.12304783 108.43298977 29.12304783 107.75298977 29.12304783 C107.25798977 30.60804783 107.25798977 30.60804783 106.75298977 32.12304783 C105.75298977 33.12304783 105.75298977 33.12304783 103.92764854 33.24609566 C102.72332601 33.24471297 102.72332601 33.24471297 101.49467373 33.24330235 C100.11689754 33.24536434 100.11689754 33.24536434 98.7112875 33.24746799 C97.18783466 33.24207508 97.18783466 33.24207508 95.633605 33.23657322 C94.57031979 33.23671925 93.50703457 33.23686527 92.41152859 33.23701572 C88.87819319 33.23631608 85.34490977 33.22852126 81.81158352 33.22070408 C79.36920609 33.21884008 76.92682828 33.21741609 74.48445034 33.21641636 C68.04164512 33.21258972 61.59886229 33.2027582 55.15606594 33.19171238 C48.58746551 33.18150139 42.01886147 33.17691941 35.45025539 33.17187595 C22.55115728 33.16113606 9.65207471 33.14424887 -3.24701023 33.12304783 C-3.27166415 28.58407078 -3.28984812 24.0451324 -3.30194187 19.50610447 C-3.30698163 17.96085017 -3.31381343 16.41560066 -3.32244968 14.87036228 C-3.33453099 12.65379754 -3.34024196 10.43729564 -3.34466648 8.22070408 C-3.34982777 7.52590443 -3.35498905 6.83110477 -3.36030674 6.11525059 C-3.360503 4.45075453 -3.30890152 2.78639284 -3.24701023 1.12304783 C-2.24701023 0.12304783 -2.24701023 0.12304783 0 0 Z " fill="#050505" transform="translate(255.24701023101807,355.8769521713257)"/>
<path d="M0 0 C2.9659963 1.64357757 5.81626053 3.50739414 7.90234375 6.20703125 C7.90234375 6.86703125 7.90234375 7.52703125 7.90234375 8.20703125 C8.56234375 8.20703125 9.22234375 8.20703125 9.90234375 8.20703125 C9.90234375 8.86703125 9.90234375 9.52703125 9.90234375 10.20703125 C10.56234375 10.20703125 11.22234375 10.20703125 11.90234375 10.20703125 C11.90234375 10.86703125 11.90234375 11.52703125 11.90234375 12.20703125 C12.56234375 12.20703125 13.22234375 12.20703125 13.90234375 12.20703125 C13.90234375 12.86703125 13.90234375 13.52703125 13.90234375 14.20703125 C14.56234375 14.20703125 15.22234375 14.20703125 15.90234375 14.20703125 C18.52734375 16.58203125 18.52734375 16.58203125 20.90234375 19.20703125 C20.90234375 19.86703125 20.90234375 20.52703125 20.90234375 21.20703125 C21.56234375 21.20703125 22.22234375 21.20703125 22.90234375 21.20703125 C22.90234375 21.86703125 22.90234375 22.52703125 22.90234375 23.20703125 C23.56234375 23.20703125 24.22234375 23.20703125 24.90234375 23.20703125 C24.90234375 23.86703125 24.90234375 24.52703125 24.90234375 25.20703125 C25.56234375 25.20703125 26.22234375 25.20703125 26.90234375 25.20703125 C26.90234375 25.86703125 26.90234375 26.52703125 26.90234375 27.20703125 C27.56234375 27.20703125 28.22234375 27.20703125 28.90234375 27.20703125 C32.59309849 32.52171808 33.33890979 36.7676822 32.90234375 43.20703125 C31.86771797 46.35534038 30.38294368 49.24583138 28.90234375 52.20703125 C28.24234375 52.20703125 27.58234375 52.20703125 26.90234375 52.20703125 C26.90234375 52.86703125 26.90234375 53.52703125 26.90234375 54.20703125 C26.24234375 54.20703125 25.58234375 54.20703125 24.90234375 54.20703125 C24.90234375 54.86703125 24.90234375 55.52703125 24.90234375 56.20703125 C24.24234375 56.20703125 23.58234375 56.20703125 22.90234375 56.20703125 C22.90234375 56.86703125 22.90234375 57.52703125 22.90234375 58.20703125 C22.24234375 58.20703125 21.58234375 58.20703125 20.90234375 58.20703125 C20.90234375 58.86703125 20.90234375 59.52703125 20.90234375 60.20703125 C20.24234375 60.20703125 19.58234375 60.20703125 18.90234375 60.20703125 C18.90234375 60.86703125 18.90234375 61.52703125 18.90234375 62.20703125 C17.52734375 63.83203125 17.52734375 63.83203125 15.90234375 65.20703125 C15.24234375 65.20703125 14.58234375 65.20703125 13.90234375 65.20703125 C13.90234375 65.86703125 13.90234375 66.52703125 13.90234375 67.20703125 C13.24234375 67.20703125 12.58234375 67.20703125 11.90234375 67.20703125 C11.90234375 67.86703125 11.90234375 68.52703125 11.90234375 69.20703125 C8.89202631 70.1412677 8.03584107 70.25153036 4.90234375 69.20703125 C2.71484375 67.33203125 2.71484375 67.33203125 0.90234375 65.20703125 C0.90234375 64.21703125 0.90234375 63.22703125 0.90234375 62.20703125 C0.24234375 62.20703125 -0.41765625 62.20703125 -1.09765625 62.20703125 C-1.09765625 61.54703125 -1.09765625 60.88703125 -1.09765625 60.20703125 C-1.75765625 60.20703125 -2.41765625 60.20703125 -3.09765625 60.20703125 C-3.09765625 59.54703125 -3.09765625 58.88703125 -3.09765625 58.20703125 C-4.08765625 57.87703125 -5.07765625 57.54703125 -6.09765625 57.20703125 C-9.28515625 54.83203125 -9.28515625 54.83203125 -12.09765625 52.20703125 C-12.09765625 51.21703125 -12.09765625 50.22703125 -12.09765625 49.20703125 C-12.75765625 49.20703125 -13.41765625 49.20703125 -14.09765625 49.20703125 C-14.09765625 48.54703125 -14.09765625 47.88703125 -14.09765625 47.20703125 C-15.08765625 47.20703125 -16.07765625 47.20703125 -17.09765625 47.20703125 C-17.09765625 46.54703125 -17.09765625 45.88703125 -17.09765625 45.20703125 C-17.75765625 45.20703125 -18.41765625 45.20703125 -19.09765625 45.20703125 C-19.09765625 44.54703125 -19.09765625 43.88703125 -19.09765625 43.20703125 C-19.75765625 43.20703125 -20.41765625 43.20703125 -21.09765625 43.20703125 C-21.09765625 42.54703125 -21.09765625 41.88703125 -21.09765625 41.20703125 C-21.75765625 41.20703125 -22.41765625 41.20703125 -23.09765625 41.20703125 C-23.09765625 40.21703125 -23.09765625 39.22703125 -23.09765625 38.20703125 C-23.75765625 38.20703125 -24.41765625 38.20703125 -25.09765625 38.20703125 C-25.09765625 37.54703125 -25.09765625 36.88703125 -25.09765625 36.20703125 C-25.75765625 36.20703125 -26.41765625 36.20703125 -27.09765625 36.20703125 C-27.09765625 35.54703125 -27.09765625 34.88703125 -27.09765625 34.20703125 C-28.08765625 34.20703125 -29.07765625 34.20703125 -30.09765625 34.20703125 C-30.09765625 33.54703125 -30.09765625 32.88703125 -30.09765625 32.20703125 C-30.75765625 32.20703125 -31.41765625 32.20703125 -32.09765625 32.20703125 C-32.09765625 31.54703125 -32.09765625 30.88703125 -32.09765625 30.20703125 C-32.75765625 30.20703125 -33.41765625 30.20703125 -34.09765625 30.20703125 C-34.09765625 29.54703125 -34.09765625 28.88703125 -34.09765625 28.20703125 C-34.75765625 28.20703125 -35.41765625 28.20703125 -36.09765625 28.20703125 C-36.09765625 26.55703125 -36.09765625 24.90703125 -36.09765625 23.20703125 C-36.75765625 23.20703125 -37.41765625 23.20703125 -38.09765625 23.20703125 C-38.09765625 22.54703125 -38.09765625 21.88703125 -38.09765625 21.20703125 C-36.77765625 20.87703125 -35.45765625 20.54703125 -34.09765625 20.20703125 C-34.09765625 19.54703125 -34.09765625 18.88703125 -34.09765625 18.20703125 C-33.43765625 18.20703125 -32.77765625 18.20703125 -32.09765625 18.20703125 C-32.09765625 17.54703125 -32.09765625 16.88703125 -32.09765625 16.20703125 C-31.43765625 16.20703125 -30.77765625 16.20703125 -30.09765625 16.20703125 C-29.76765625 14.88703125 -29.43765625 13.56703125 -29.09765625 12.20703125 C-28.10765625 12.20703125 -27.11765625 12.20703125 -26.09765625 12.20703125 C-26.09765625 11.54703125 -26.09765625 10.88703125 -26.09765625 10.20703125 C-23.72265625 7.58203125 -23.72265625 7.58203125 -21.09765625 5.20703125 C-20.43765625 5.20703125 -19.77765625 5.20703125 -19.09765625 5.20703125 C-19.09765625 4.54703125 -19.09765625 3.88703125 -19.09765625 3.20703125 C-18.43765625 3.20703125 -17.77765625 3.20703125 -17.09765625 3.20703125 C-17.09765625 2.54703125 -17.09765625 1.88703125 -17.09765625 1.20703125 C-11.93878808 -1.54436511 -5.49752415 -2.07820745 0 0 Z " fill="#060606" transform="translate(475.09765625,328.79296875)"/>
<path d="M0 0 C99 0 198 0 300 0 C300 41.58 300 83.16 300 126 C302.64 126 305.28 126 308 126 C306.3125 127.5625 306.3125 127.5625 304 129 C302.35 128.67 300.7 128.34 299 128 C299 86.75 299 45.5 299 3 C200.33 3.33 101.66 3.66 0 4 C0 88.81 0 173.62 0 261 C0.66 261 1.32 261 2 261 C2 262.32 2 263.64 2 265 C1.34 265 0.68 265 0 265 C-2.32576359 259.46259139 -2.27547334 254.41846086 -2.24050903 248.52175903 C-2.24221788 247.46715953 -2.24392673 246.41256002 -2.24568737 245.32600296 C-2.24898108 241.79294973 -2.23798033 238.26008651 -2.22705078 234.72705078 C-2.22648664 232.19417831 -2.22680328 229.66130551 -2.22793579 227.12843323 C-2.2283912 221.67568674 -2.22271909 216.2230014 -2.21146011 210.77026749 C-2.19519226 202.88658465 -2.18999579 195.00292495 -2.18748413 187.11922716 C-2.18310905 174.32784403 -2.169805 161.53648645 -2.15087891 148.74511719 C-2.13251528 136.32096484 -2.11836114 123.89681943 -2.10986328 111.47265625 C-2.10933783 110.70657473 -2.10881239 109.9404932 -2.10827102 109.15119709 C-2.1056609 105.30791463 -2.1031335 101.46463212 -2.10064721 97.62134957 C-2.07992052 65.74754765 -2.04455118 33.8737778 -2 2 C-1.34 2 -0.68 2 0 2 C0 1.34 0 0.68 0 0 Z " fill="#505050" transform="translate(148,176)"/>
<path d="M0 0 C1.24458984 -0.00257813 2.48917969 -0.00515625 3.77148438 -0.0078125 C5.72344727 0.00378906 5.72344727 0.00378906 7.71484375 0.015625 C9.02001953 0.00789063 10.32519531 0.00015625 11.66992188 -0.0078125 C13.53487305 -0.00394531 13.53487305 -0.00394531 15.4375 0 C17.15271851 0.00338379 17.15271851 0.00338379 18.90258789 0.00683594 C21.65234375 0.265625 21.65234375 0.265625 23.65234375 2.265625 C23.87939453 5.33837891 23.87939453 5.33837891 23.84765625 9.2421875 C23.84266113 10.49596191 23.83766602 11.74973633 23.83251953 13.04150391 C23.81431152 14.64171387 23.79610352 16.24192383 23.77734375 17.890625 C23.73609375 22.964375 23.69484375 28.038125 23.65234375 33.265625 C12.76234375 33.265625 1.87234375 33.265625 -9.34765625 33.265625 C-9.40953125 28.191875 -9.47140625 23.118125 -9.53515625 17.890625 C-9.57612427 15.49031006 -9.57612427 15.49031006 -9.61791992 13.04150391 C-9.6254126 11.78772949 -9.63290527 10.53395508 -9.640625 9.2421875 C-9.65633545 7.95393066 -9.6720459 6.66567383 -9.68823242 5.33837891 C-9.57584229 4.32437012 -9.46345215 3.31036133 -9.34765625 2.265625 C-5.79164435 -0.1050496 -4.21679444 0.00831071 0 0 Z " fill="#030303" transform="translate(200.34765625,355.734375)"/>
<path d="M0 0 C10.89 0 21.78 0 33 0 C33 10.23 33 20.46 33 31 C32.34 31 31.68 31 31 31 C31 31.66 31 32.32 31 33 C27.06734104 33.04947698 23.13480286 33.08575578 19.2019043 33.10986328 C17.20680382 33.12485495 15.21179054 33.15026731 13.21679688 33.17578125 C11.96318359 33.18222656 10.70957031 33.18867188 9.41796875 33.1953125 C8.26063232 33.20578613 7.1032959 33.21625977 5.91088867 33.22705078 C3 33 3 33 0 31 C-0.34057617 27.92724609 -0.34057617 27.92724609 -0.29296875 24.0234375 C-0.28547607 22.76966309 -0.2779834 21.51588867 -0.27026367 20.22412109 C-0.24295166 18.62391113 -0.21563965 17.02370117 -0.1875 15.375 C-0.0946875 7.764375 -0.0946875 7.764375 0 0 Z " fill="#030303" transform="translate(191,237)"/>
<path d="M0 0 C19.80106857 -0.02254575 39.60212679 -0.04097843 59.40320492 -0.05181217 C68.59652604 -0.05697545 77.78983864 -0.06401875 86.9831543 -0.07543945 C94.99307036 -0.08538532 103.00298025 -0.09185319 111.01290232 -0.09408849 C115.25677253 -0.09539577 119.5006251 -0.09848266 123.74448967 -0.10573006 C127.7342907 -0.11248874 131.7240667 -0.11461727 135.71387291 -0.11310768 C137.18249395 -0.11338408 138.65111579 -0.1153901 140.1197319 -0.11920547 C142.11622776 -0.12414028 144.11273687 -0.12239813 146.10923767 -0.12025452 C147.22921615 -0.12117631 148.34919462 -0.1220981 149.50311184 -0.12304783 C152 0 152 0 153 1 C153.08783542 3.21855264 153.10694609 5.43988496 153.09765625 7.66015625 C153.09553383 8.65685585 153.09553383 8.65685585 153.09336853 9.6736908 C153.08775518 11.80333899 153.07520054 13.93288339 153.0625 16.0625 C153.05748671 17.50325369 153.05292351 18.94400903 153.04882812 20.38476562 C153.03778145 23.92321102 153.02050792 27.46159539 153 31 C150.26150981 32.3692451 148.09346501 32.12279723 145.02694702 32.12025452 C143.11701714 32.12231651 143.11701714 32.12231651 141.16850281 32.12442017 C139.749542 32.12088078 138.33058143 32.11724597 136.91162109 32.11352539 C135.4236603 32.11324345 133.93569936 32.1134014 132.44773865 32.1139679 C128.40045338 32.11425558 124.35319757 32.10836345 120.30591917 32.10139394 C116.07916124 32.09515567 111.85240269 32.09455623 107.62564087 32.09336853 C99.61815073 32.09025662 91.6106742 32.0820451 83.60319006 32.07201904 C74.48844593 32.06085358 65.37370117 32.05534636 56.2589519 32.05032361 C37.50595865 32.03986238 18.75298405 32.02151862 0 32 C0 21.44 0 10.88 0 0 Z M3 3 C3 11.58 3 20.16 3 29 C51.51 29 100.02 29 150 29 C150 20.42 150 11.84 150 3 C101.49 3 52.98 3 3 3 Z " fill="#2E2E2E" transform="translate(252,297)"/>
<path d="M0 0 C1.24458984 0.04705078 2.48917969 0.09410156 3.77148438 0.14257812 C5.07279297 0.20251953 6.37410156 0.26246094 7.71484375 0.32421875 C9.67260742 0.39672852 9.67260742 0.39672852 11.66992188 0.47070312 C21.36436203 0.86772789 21.36436203 0.86772789 23.65234375 2.01171875 C23.67699997 6.26586498 23.69518274 10.51997373 23.70727539 14.77416992 C23.71231476 16.22241948 23.71914628 17.67066392 23.7277832 19.11889648 C23.73986622 21.19646463 23.74557586 23.27396572 23.75 25.3515625 C23.75523682 26.60316162 23.76047363 27.85476074 23.76586914 29.14428711 C23.65234375 32.01171875 23.65234375 32.01171875 22.65234375 33.01171875 C18.55999694 33.36733614 14.45637612 33.48108777 10.3515625 33.62426758 C8.2923591 33.69867618 6.23428745 33.78937569 4.17578125 33.88085938 C2.8815625 33.92791016 1.58734375 33.97496094 0.25390625 34.0234375 C-1.53539307 34.09244263 -1.53539307 34.09244263 -3.36083984 34.1628418 C-6.34765625 34.01171875 -6.34765625 34.01171875 -9.34765625 32.01171875 C-9.73583984 29.0625 -9.73583984 29.0625 -9.74609375 25.32421875 C-9.74896393 24.66591064 -9.75183411 24.00760254 -9.75479126 23.3293457 C-9.75683301 21.93732849 -9.75129527 20.54528266 -9.73876953 19.15332031 C-9.72271503 17.01953128 -9.73861188 14.8876362 -9.7578125 12.75390625 C-9.75583008 11.40233956 -9.75198644 10.05077405 -9.74609375 8.69921875 C-9.74270996 7.46558594 -9.73932617 6.23195313 -9.73583984 4.9609375 C-9.60773926 3.98769531 -9.47963867 3.01445312 -9.34765625 2.01171875 C-5.73257896 -0.39833278 -4.27654992 -0.17188076 0 0 Z " fill="#090909" transform="translate(200.34765625,295.98828125)"/>
<path d="M0 0 C1.20962465 -0.00311998 2.41924931 -0.00623996 3.66552925 -0.00945449 C7.01533475 -0.01604576 10.36491559 -0.0136813 13.71470737 -0.00748205 C17.3303002 -0.00295496 20.94587347 -0.0099426 24.5614624 -0.01544189 C31.64133715 -0.02433479 38.72116949 -0.02241435 45.80104589 -0.01661661 C51.55505058 -0.01209973 57.30904337 -0.01148734 63.06304932 -0.01366425 C64.29149179 -0.01412394 64.29149179 -0.01412394 65.54475129 -0.01459293 C67.2084597 -0.01523238 68.87216811 -0.01588081 70.53587651 -0.01653811 C86.13621789 -0.0222411 101.73653577 -0.015684 117.33687329 -0.00493738 C130.72247808 0.0039981 144.10804818 0.00244605 157.49365234 -0.0067749 C173.03820047 -0.01747808 188.58272799 -0.02169178 204.12727928 -0.01555037 C205.78486506 -0.01491328 207.44245084 -0.01428454 209.10003662 -0.01366425 C210.32338028 -0.01320142 210.32338028 -0.01320142 211.57143795 -0.01272924 C217.31848401 -0.01100245 223.065517 -0.01391708 228.81256104 -0.01862335 C235.81634804 -0.0242327 242.82009022 -0.02271459 249.82387209 -0.01206186 C253.39725239 -0.00680589 256.97055794 -0.00474714 260.54393768 -0.01136017 C264.41702937 -0.01841944 268.28999866 -0.00998984 272.16308594 0 C273.29323687 -0.00446144 274.42338779 -0.00892289 275.58778572 -0.01351953 C280.80755255 0.01267392 285.20841796 0.12732913 290.08154297 2.25396729 C290.08154297 2.91396729 290.08154297 3.57396729 290.08154297 4.25396729 C291.19529297 4.43959229 291.19529297 4.43959229 292.33154297 4.62896729 C294.88295782 5.2088343 296.80830027 5.99105468 299.08154297 7.25396729 C299.08154297 7.91396729 299.08154297 8.57396729 299.08154297 9.25396729 C299.74154297 9.25396729 300.40154297 9.25396729 301.08154297 9.25396729 C301.08154297 9.91396729 301.08154297 10.57396729 301.08154297 11.25396729 C301.74154297 11.25396729 302.40154297 11.25396729 303.08154297 11.25396729 C303.08154297 11.91396729 303.08154297 12.57396729 303.08154297 13.25396729 C304.07154297 13.25396729 305.06154297 13.25396729 306.08154297 13.25396729 C306.74154297 14.90396729 307.40154297 16.55396729 308.08154297 18.25396729 C307.09154297 18.25396729 306.10154297 18.25396729 305.08154297 18.25396729 C305.08154297 17.59396729 305.08154297 16.93396729 305.08154297 16.25396729 C304.31841797 16.31584229 303.55529297 16.37771729 302.76904297 16.44146729 C300.08154297 16.25396729 300.08154297 16.25396729 298.26904297 15.00396729 C297.08154297 13.25396729 297.08154297 13.25396729 297.08154297 9.25396729 C296.09154297 9.25396729 295.10154297 9.25396729 294.08154297 9.25396729 C294.08154297 8.59396729 294.08154297 7.93396729 294.08154297 7.25396729 C293.42154297 7.25396729 292.76154297 7.25396729 292.08154297 7.25396729 C292.08154297 6.59396729 292.08154297 5.93396729 292.08154297 5.25396729 C290.10154297 5.25396729 288.12154297 5.25396729 286.08154297 5.25396729 C286.08154297 4.59396729 286.08154297 3.93396729 286.08154297 3.25396729 C187.08154297 3.25396729 88.08154297 3.25396729 -13.91845703 3.25396729 C-13.91845703 3.91396729 -13.91845703 4.57396729 -13.91845703 5.25396729 C-15.56845703 5.25396729 -17.21845703 5.25396729 -18.91845703 5.25396729 C-18.91845703 5.91396729 -18.91845703 6.57396729 -18.91845703 7.25396729 C-20.23845703 7.25396729 -21.55845703 7.25396729 -22.91845703 7.25396729 C-22.91845703 6.59396729 -22.91845703 5.93396729 -22.91845703 5.25396729 C-15.60884836 0.09424351 -8.63288903 -0.03407965 0 0 Z " fill="#1B1B1B" transform="translate(161.91845703125,116.74603271484375)"/>
<path d="M0 0 C50.16 0 100.32 0 152 0 C154.28606619 4.57213239 153.23016856 10.91766753 153.25 15.9375 C153.2809375 17.88946289 153.2809375 17.88946289 153.3125 19.88085938 C153.32023437 21.74774414 153.32023437 21.74774414 153.328125 23.65234375 C153.3374707 24.79695068 153.34681641 25.94155762 153.35644531 27.12084961 C153 30 153 30 151.85059452 31.65697861 C149.20935067 33.57379342 147.2801501 33.37187614 144.03404236 33.36749268 C142.16424965 33.37584641 142.16424965 33.37584641 140.25668335 33.3843689 C138.87286188 33.37534617 137.48904231 33.36602838 136.10522461 33.35644531 C134.64991635 33.35723605 133.1946083 33.35933288 131.73930359 33.36264038 C127.78482712 33.36777971 123.83061034 33.35422898 119.87617564 33.33711338 C115.74245375 33.32209398 111.60873546 33.32325182 107.47499084 33.32244873 C100.53365638 33.31875483 93.59242073 33.30378061 86.65112305 33.28125 C77.73381529 33.25236499 68.81658709 33.24202595 59.89923763 33.2375679 C52.24174054 33.23359132 44.58426083 33.22108948 36.92677617 33.20722103 C34.46077149 33.20311822 31.99476742 33.20019455 29.52876091 33.19742584 C25.65873277 33.19253966 21.78875308 33.18234779 17.91874886 33.16798782 C16.49570274 33.16345771 15.07265011 33.16062448 13.64959717 33.15958023 C11.71271305 33.15783965 9.77583848 33.14933447 7.838974 33.14044189 C6.75331115 33.13746723 5.6676483 33.13449257 4.54908657 33.13142776 C2 33 2 33 0 32 C0 21.44 0 10.88 0 0 Z M2 2 C2 11.24 2 20.48 2 30 C50.84 30 99.68 30 150 30 C150 20.76 150 11.52 150 2 C101.16 2 52.32 2 2 2 Z " fill="#AEAEAE" transform="translate(252,237)"/>
<path d="M0 0 C0.66 0 1.32 0 2 0 C2 0.66 2 1.32 2 2 C2.66 2 3.32 2 4 2 C4 2.66 4 3.32 4 4 C7.85748967 4.90113887 11.44549177 5.13331693 15.40301514 5.15148926 C16.69580887 5.15983292 17.9886026 5.16817657 19.3205719 5.17677307 C20.74594092 5.18108193 22.17131019 5.18530577 23.59667969 5.18945312 C25.10316701 5.19739947 26.60965205 5.20578774 28.11613464 5.21458435 C31.35510343 5.23261163 34.5940673 5.24763741 37.83306122 5.26036072 C42.95012132 5.28059942 48.06712491 5.30824665 53.18414307 5.33703613 C64.96418009 5.40218627 76.74425872 5.45772511 88.5243454 5.51302338 C99.33199467 5.56383275 110.13962326 5.61665341 120.94722104 5.67754889 C126.03909825 5.70595517 131.13096853 5.7295293 136.22288561 5.74947357 C139.38158948 5.76281955 142.54026119 5.78023312 145.69893837 5.79878426 C147.1691666 5.80656735 148.63940507 5.812625 150.10964775 5.81687737 C152.10809043 5.82288583 154.10651008 5.83549954 156.10491943 5.84851074 C157.78620752 5.85624134 157.78620752 5.85624134 159.50146103 5.86412811 C162 6 162 6 163 7 C163.2857653 12.52479577 162.74511597 16.76465209 161 22 C160.34 22 159.68 22 159 22 C159.04125 22.99 159.0825 23.98 159.125 25 C159.11626293 29.28990277 158.31637059 32.91232291 157 37 C153.51970064 39.32019957 152.18251021 39.25109437 148.07441711 39.25396729 C146.21763084 39.26242676 146.21763084 39.26242676 144.32333374 39.27105713 C142.94903506 39.2671683 141.57473696 39.26307194 140.20043945 39.25878906 C138.75486576 39.26149884 137.30929345 39.2650597 135.86372375 39.26940918 C131.93370321 39.2785411 128.00378746 39.27498457 124.07376504 39.26865101 C119.95885703 39.26359032 115.84395804 39.26828311 111.72904968 39.27142334 C104.81292104 39.27506483 97.89683506 39.27026124 90.98071289 39.26074219 C82.99587517 39.24987877 75.01113975 39.25336707 67.02630454 39.264395 C60.16671893 39.27348837 53.30716402 39.27474249 46.44757432 39.26951766 C42.35274627 39.26640645 38.25796618 39.26596479 34.16314125 39.27259064 C30.30784416 39.27839253 26.45267798 39.27431542 22.59739494 39.26280212 C21.18654217 39.26016977 19.77567828 39.26089614 18.36483002 39.26532745 C11.24862366 39.28560755 4.81098396 39.16358495 -2 37 C-2 36.34 -2 35.68 -2 35 C-0.02 35 1.96 35 4 35 C4 35.66 4 36.32 4 37 C53.5 37 103 37 154 37 C155.32 30.4 156.64 23.8 158 17 C158.99 14.36 159.98 11.72 161 9 C110.84 9 60.68 9 9 9 C9 8.34 9 7.68 9 7 C6.69 6.67 4.38 6.34 2 6 C2 5.34 2 4.68 2 4 C1.34 4 0.68 4 0 4 C0 2.68 0 1.36 0 0 Z " fill="#4B4B4B" transform="translate(150,441)"/>
<path d="M0 0 C1.50298346 0.00138269 1.50298346 0.00138269 3.03633022 0.00279331 C4.18202984 0.00141865 5.32772945 0.00004398 6.50814724 -0.00137234 C8.41030499 0.00402058 8.41030499 0.00402058 10.35089016 0.00952244 C11.69092208 0.00980431 13.03095415 0.00964657 14.37098598 0.00907993 C18.01958415 0.00879196 21.66814971 0.01468863 25.31674027 0.02165389 C29.12576493 0.02788749 32.93479026 0.02849123 36.74381924 0.0296793 C43.96156731 0.0327926 51.17930031 0.04100597 58.39704174 0.05102879 C66.61214234 0.06218997 74.82724364 0.06770039 83.04234993 0.07272422 C99.94590528 0.08318858 116.84944593 0.10078799 133.75298977 0.12304783 C133.75298977 2.10304783 133.75298977 4.08304783 133.75298977 6.12304783 C132.76298977 5.62804783 132.76298977 5.62804783 131.75298977 5.12304783 C131.75298977 4.46304783 131.75298977 3.80304783 131.75298977 3.12304783 C87.86298977 3.12304783 43.97298977 3.12304783 -1.24701023 3.12304783 C-1.24701023 12.36304783 -1.24701023 21.60304783 -1.24701023 31.12304783 C11.93129134 31.0149007 25.10954281 30.90278559 38.28775024 30.78370857 C44.40708625 30.72857298 50.52642711 30.67516809 56.64581203 30.62573338 C62.55267749 30.57795155 68.45948654 30.52560403 74.36628437 30.47010708 C76.61847368 30.44974604 78.87067842 30.43102286 81.12289524 30.41397381 C84.28033037 30.38979105 87.43766017 30.3597559 90.59503078 30.32837009 C91.52363918 30.32261463 92.45224758 30.31685917 93.40899563 30.3109293 C98.28918496 30.25588478 102.93985495 29.94144147 107.75298977 29.12304783 C106.75298977 32.12304783 106.75298977 32.12304783 105.75298977 33.12304783 C104.33620066 33.21855481 102.91467736 33.24493266 101.49467373 33.24330235 C100.11689754 33.24536434 100.11689754 33.24536434 98.7112875 33.24746799 C97.18783466 33.24207508 97.18783466 33.24207508 95.633605 33.23657322 C94.57031979 33.23671925 93.50703457 33.23686527 92.41152859 33.23701572 C88.87819319 33.23631608 85.34490977 33.22852126 81.81158352 33.22070408 C79.36920609 33.21884008 76.92682828 33.21741609 74.48445034 33.21641636 C68.04164512 33.21258972 61.59886229 33.2027582 55.15606594 33.19171238 C48.58746551 33.18150139 42.01886147 33.17691941 35.45025539 33.17187595 C22.55115728 33.16113606 9.65207471 33.14424887 -3.24701023 33.12304783 C-3.27166415 28.58407078 -3.28984812 24.0451324 -3.30194187 19.50610447 C-3.30698163 17.96085017 -3.31381343 16.41560066 -3.32244968 14.87036228 C-3.33453099 12.65379754 -3.34024196 10.43729564 -3.34466648 8.22070408 C-3.34982777 7.52590443 -3.35498905 6.83110477 -3.36030674 6.11525059 C-3.360503 4.45075453 -3.30890152 2.78639284 -3.24701023 1.12304783 C-2.24701023 0.12304783 -2.24701023 0.12304783 0 0 Z " fill="#6D6D6D" transform="translate(255.24701023101807,355.8769521713257)"/>
<path d="M0 0 C0.66 0 1.32 0 2 0 C2 85.47 2 170.94 2 259 C2.66 259 3.32 259 4 259 C4 260.32 4 261.64 4 263 C3.34 263 2.68 263 2 263 C-0.32576359 257.46259139 -0.27547334 252.41846086 -0.24050903 246.52175903 C-0.24221788 245.46715953 -0.24392673 244.41256002 -0.24568737 243.32600296 C-0.24898108 239.79294973 -0.23798033 236.26008651 -0.22705078 232.72705078 C-0.22648664 230.19417831 -0.22680328 227.66130551 -0.22793579 225.12843323 C-0.2283912 219.67568674 -0.22271909 214.2230014 -0.21146011 208.77026749 C-0.19519226 200.88658465 -0.18999579 193.00292495 -0.18748413 185.11922716 C-0.18310905 172.32784403 -0.169805 159.53648645 -0.15087891 146.74511719 C-0.13251528 134.32096484 -0.11836114 121.89681943 -0.10986328 109.47265625 C-0.10933783 108.70657473 -0.10881239 107.9404932 -0.10827102 107.15119709 C-0.1056609 103.30791463 -0.1031335 99.46463212 -0.10064721 95.62134957 C-0.07992052 63.74754765 -0.04455118 31.8737778 0 0 Z " fill="#464646" transform="translate(146,178)"/>
<path d="M0 0 C99 0 198 0 300 0 C300 40.92 300 81.84 300 124 C302.64 124 305.28 124 308 124 C306.3125 125.5625 306.3125 125.5625 304 127 C302.35 126.67 300.7 126.34 299 126 C299 84.75 299 43.5 299 1 C200.33 1.33 101.66 1.66 0 2 C0 1.34 0 0.68 0 0 Z " fill="#D2D2D2" transform="translate(148,178)"/>
<path d="M0 0 C1.20962465 -0.00311998 2.41924931 -0.00623996 3.66552925 -0.00945449 C7.01533475 -0.01604576 10.36491559 -0.0136813 13.71470737 -0.00748205 C17.3303002 -0.00295496 20.94587347 -0.0099426 24.5614624 -0.01544189 C31.64133715 -0.02433479 38.72116949 -0.02241435 45.80104589 -0.01661661 C51.55505058 -0.01209973 57.30904337 -0.01148734 63.06304932 -0.01366425 C64.29149179 -0.01412394 64.29149179 -0.01412394 65.54475129 -0.01459293 C67.2084597 -0.01523238 68.87216811 -0.01588081 70.53587651 -0.01653811 C86.13621789 -0.0222411 101.73653577 -0.015684 117.33687329 -0.00493738 C130.72247808 0.0039981 144.10804818 0.00244605 157.49365234 -0.0067749 C173.03820047 -0.01747808 188.58272799 -0.02169178 204.12727928 -0.01555037 C205.78486506 -0.01491328 207.44245084 -0.01428454 209.10003662 -0.01366425 C210.32338028 -0.01320142 210.32338028 -0.01320142 211.57143795 -0.01272924 C217.31848401 -0.01100245 223.065517 -0.01391708 228.81256104 -0.01862335 C235.81634804 -0.0242327 242.82009022 -0.02271459 249.82387209 -0.01206186 C253.39725239 -0.00680589 256.97055794 -0.00474714 260.54393768 -0.01136017 C264.41702937 -0.01841944 268.28999866 -0.00998984 272.16308594 0 C273.29323687 -0.00446144 274.42338779 -0.00892289 275.58778572 -0.01351953 C280.80755255 0.01267392 285.20841796 0.12732913 290.08154297 2.25396729 C290.08154297 2.91396729 290.08154297 3.57396729 290.08154297 4.25396729 C291.19529297 4.43959229 291.19529297 4.43959229 292.33154297 4.62896729 C294.88295782 5.2088343 296.80830027 5.99105468 299.08154297 7.25396729 C299.08154297 7.91396729 299.08154297 8.57396729 299.08154297 9.25396729 C299.74154297 9.25396729 300.40154297 9.25396729 301.08154297 9.25396729 C301.08154297 9.91396729 301.08154297 10.57396729 301.08154297 11.25396729 C301.74154297 11.25396729 302.40154297 11.25396729 303.08154297 11.25396729 C303.08154297 11.91396729 303.08154297 12.57396729 303.08154297 13.25396729 C304.07154297 13.25396729 305.06154297 13.25396729 306.08154297 13.25396729 C306.74154297 14.90396729 307.40154297 16.55396729 308.08154297 18.25396729 C307.09154297 18.25396729 306.10154297 18.25396729 305.08154297 18.25396729 C305.08154297 17.59396729 305.08154297 16.93396729 305.08154297 16.25396729 C304.31841797 16.31584229 303.55529297 16.37771729 302.76904297 16.44146729 C300.08154297 16.25396729 300.08154297 16.25396729 298.26904297 15.00396729 C297.08154297 13.25396729 297.08154297 13.25396729 297.08154297 9.25396729 C296.09154297 9.25396729 295.10154297 9.25396729 294.08154297 9.25396729 C294.08154297 8.59396729 294.08154297 7.93396729 294.08154297 7.25396729 C293.42154297 7.25396729 292.76154297 7.25396729 292.08154297 7.25396729 C292.08154297 6.59396729 292.08154297 5.93396729 292.08154297 5.25396729 C290.10154297 5.25396729 288.12154297 5.25396729 286.08154297 5.25396729 C286.08154297 4.59396729 286.08154297 3.93396729 286.08154297 3.25396729 C282.65728965 2.48270037 279.4914754 2.12601858 275.98411846 2.11530209 C274.97442869 2.10982764 273.96473892 2.1043532 272.92445248 2.09871286 C271.82231453 2.09773475 270.72017658 2.09675665 269.5846405 2.0957489 C268.40838885 2.09081092 267.2321372 2.08587295 266.02024156 2.08078533 C262.75928473 2.06808474 259.49835093 2.05979266 256.23737681 2.05335867 C252.71935537 2.04534445 249.2013555 2.03165019 245.68334961 2.01864624 C239.5894609 1.996898 233.49556999 1.97874747 227.40166283 1.96304131 C218.59089929 1.94032764 209.78015966 1.91218688 200.96941642 1.88272203 C186.6745271 1.83506448 172.37962801 1.79179531 158.0847168 1.75128174 C144.19864135 1.71191747 130.31257459 1.670489 116.42651367 1.62628174 C115.57055956 1.62355747 114.71460545 1.62083319 113.83271333 1.61802637 C109.53863794 1.60434674 105.24456269 1.59062649 100.95048749 1.57688606 C65.327524 1.46295014 29.70454209 1.3561344 -5.91845703 1.25396729 C-5.91845703 1.91396729 -5.91845703 2.57396729 -5.91845703 3.25396729 C-8.55845703 3.25396729 -11.19845703 3.25396729 -13.91845703 3.25396729 C-13.91845703 3.91396729 -13.91845703 4.57396729 -13.91845703 5.25396729 C-15.56845703 5.25396729 -17.21845703 5.25396729 -18.91845703 5.25396729 C-18.91845703 5.91396729 -18.91845703 6.57396729 -18.91845703 7.25396729 C-20.23845703 7.25396729 -21.55845703 7.25396729 -22.91845703 7.25396729 C-22.91845703 6.59396729 -22.91845703 5.93396729 -22.91845703 5.25396729 C-15.60884836 0.09424351 -8.63288903 -0.03407965 0 0 Z " fill="#6A6A6A" transform="translate(161.91845703125,116.74603271484375)"/>
<path d="M0 0 C19.80106561 -0.02332748 39.60212844 -0.04097843 59.40320492 -0.05181217 C68.59652604 -0.05697545 77.78983864 -0.06401875 86.9831543 -0.07543945 C94.99307036 -0.08538532 103.00298025 -0.09185319 111.01290232 -0.09408849 C115.25677253 -0.09539577 119.5006251 -0.09848266 123.74448967 -0.10573006 C127.7342907 -0.11248874 131.7240667 -0.11461727 135.71387291 -0.11310768 C137.18249395 -0.11338408 138.65111579 -0.1153901 140.1197319 -0.11920547 C142.11622776 -0.12414028 144.11273687 -0.12239813 146.10923767 -0.12025452 C147.22921615 -0.12117631 148.34919462 -0.1220981 149.50311184 -0.12304783 C152 0 152 0 153 1 C153.08783542 3.21855264 153.10694609 5.43988496 153.09765625 7.66015625 C153.09553383 8.65685585 153.09553383 8.65685585 153.09336853 9.6736908 C153.08775518 11.80333899 153.07520054 13.93288339 153.0625 16.0625 C153.05748671 17.50325369 153.05292351 18.94400903 153.04882812 20.38476562 C153.03778145 23.92321102 153.02050792 27.46159539 153 31 C150.26150981 32.3692451 148.09346501 32.12279723 145.02694702 32.12025452 C143.11701714 32.12231651 143.11701714 32.12231651 141.16850281 32.12442017 C139.749542 32.12088078 138.33058143 32.11724597 136.91162109 32.11352539 C135.4236603 32.11324345 133.93569936 32.1134014 132.44773865 32.1139679 C128.40045338 32.11425558 124.35319757 32.10836345 120.30591917 32.10139394 C116.07916124 32.09515567 111.85240269 32.09455623 107.62564087 32.09336853 C99.61815073 32.09025662 91.6106742 32.0820451 83.60319006 32.07201904 C74.48844593 32.06085358 65.37370117 32.05534636 56.2589519 32.05032361 C37.50596021 32.03986238 18.7529812 32.02226563 0 32 C0 31.67 0 31.34 0 31 C49.5 31 99 31 150 31 C150 21.1 150 11.2 150 1 C100.5 1 51 1 0 1 C0 0.67 0 0.34 0 0 Z " fill="#C0C0C0" transform="translate(252,297)"/>
<path d="M0 0 C0.66 0 1.32 0 2 0 C2 1.32 2 2.64 2 4 C1.34 4 0.68 4 0 4 C0 6.31 0 8.62 0 11 C-0.66 11 -1.32 11 -2 11 C-2 12.98 -2 14.96 -2 17 C-2.66 17 -3.32 17 -4 17 C-4 111.05 -4 205.1 -4 302 C-3.34 302 -2.68 302 -2 302 C-2 304.31 -2 306.62 -2 309 C-1.34 309 -0.68 309 0 309 C0 310.98 0 312.96 0 315 C0.66 315 1.32 315 2 315 C2 315.66 2 316.32 2 317 C2.66 317 3.32 317 4 317 C4 318.65 4 320.3 4 322 C3.34 322 2.68 322 2 322 C2 320.68 2 319.36 2 318 C1.34 318 0.68 318 0 318 C-0.33 316.35 -0.66 314.7 -1 313 C-1.66 313 -2.32 313 -3 313 C-4.53154169 309.57869705 -5.25165608 306.89462567 -5.26450634 303.15143681 C-5.27258853 302.19711515 -5.28067072 301.2427935 -5.28899783 300.25955302 C-5.28774521 299.21911308 -5.2864926 298.17867314 -5.28520203 297.10670471 C-5.29169999 295.99497814 -5.29819796 294.88325156 -5.30489284 293.7378363 C-5.32427224 290.00431858 -5.32945719 286.27091588 -5.3347168 282.53735352 C-5.34565065 279.86297876 -5.35736242 277.18861777 -5.37002563 274.51425171 C-5.39907261 267.99505602 -5.41751466 261.47587117 -5.43236574 254.95662934 C-5.45007555 247.34810744 -5.47810266 239.73963395 -5.50649796 232.13114571 C-5.5568745 218.53365763 -5.59760955 204.9361575 -5.63305664 191.33862305 C-5.66735299 178.18494542 -5.70874686 165.03131558 -5.75805664 151.87768555 C-5.76108359 151.07001425 -5.76411054 150.26234295 -5.76722922 149.43019677 C-5.77025126 148.62384555 -5.7732733 147.81749433 -5.77638692 146.98670822 C-5.83257112 131.97551704 -5.88159631 116.96430933 -5.92758697 101.95308371 C-5.94394615 96.66942047 -5.96244039 91.38576722 -5.98166466 86.10211372 C-6.00506224 79.63567474 -6.02431871 73.16923725 -6.03869756 66.70277173 C-6.04608852 63.41298674 -6.05561823 60.12323525 -6.06874657 56.83346748 C-6.09973207 48.88816714 -6.09224473 40.94489041 -6 33 C-5.98789498 31.95295104 -5.97578995 30.90590208 -5.96331811 29.82712436 C-5.91579243 26.82806553 -5.83760481 23.83162801 -5.74665833 20.83360291 C-5.73277437 19.96568731 -5.71889041 19.09777171 -5.70458573 18.20355564 C-5.46507233 12.07413603 -3.82143272 7.42087534 -1 2 C-0.67 1.34 -0.34 0.68 0 0 Z " fill="#696969" transform="translate(122,139)"/>
<path d="M0 0 C0.66 0 1.32 0 2 0 C4.1232512 7.78756589 4.27138007 15.10468516 4.22705078 23.14868164 C4.22648567 24.55885815 4.22680518 25.96903525 4.22793579 27.37921143 C4.2285064 31.18232861 4.2167997 34.985318 4.20278788 38.78840566 C4.19023155 42.7722147 4.18910617 46.75602712 4.18673706 50.73985291 C4.18053664 58.27255748 4.1641454 65.80520357 4.14403808 73.33788246 C4.12163419 81.9183308 4.11067439 90.49878202 4.10064721 99.07925236 C4.0797778 116.71953466 4.04462996 134.35976261 4 152 C3.34 152 2.68 152 2 152 C2 152.66 2 153.32 2 154 C0.68 154 -0.64 154 -2 154 C-2 153.34 -2 152.68 -2 152 C-3.47968324 152.14049518 -4.95874516 152.28754826 -6.4375 152.4375 C-7.26121094 152.51871094 -8.08492188 152.59992188 -8.93359375 152.68359375 C-10.98662025 152.78930815 -10.98662025 152.78930815 -12 154 C-14.67058851 154.14115161 -17.32432238 154.04247107 -20 154 C-20 153.34 -20 152.68 -20 152 C-17.69 152 -15.38 152 -13 152 C-13 151.34 -13 150.68 -13 150 C-8.05 150 -3.1 150 2 150 C2 103.14 2 56.28 2 8 C1.34 8 0.68 8 0 8 C0 5.36 0 2.72 0 0 Z " fill="#B6B6B6" transform="translate(476,148)"/>
<path d="M0 0 C49.5 0 99 0 150 0 C150 0.66 150 1.32 150 2 C101.16 2 52.32 2 2 2 C2 11.24 2 20.48 2 30 C1.34 30 0.68 30 0 30 C0 20.1 0 10.2 0 0 Z " fill="#686868" transform="translate(252,237)"/>
<path d="M0 0 C1.0397303 3.11919089 1.00510045 4.00205498 0.25 7.0625 C0.09015625 7.75472656 -0.0696875 8.44695312 -0.234375 9.16015625 C-1 11 -1 11 -4 13 C-6.65816784 13.25168228 -6.65816784 13.25168228 -9.92558289 13.25396729 C-11.78236916 13.26242676 -11.78236916 13.26242676 -13.67666626 13.27105713 C-15.05096494 13.2671683 -16.42526304 13.26307194 -17.79956055 13.25878906 C-19.24513424 13.26149884 -20.69070655 13.2650597 -22.13627625 13.26940918 C-26.06629679 13.2785411 -29.99621254 13.27498457 -33.92623496 13.26865101 C-38.04114297 13.26359032 -42.15604196 13.26828311 -46.27095032 13.27142334 C-53.18707896 13.27506483 -60.10316494 13.27026124 -67.01928711 13.26074219 C-75.00412483 13.24987877 -82.98886025 13.25336707 -90.97369546 13.264395 C-97.83328107 13.27348837 -104.69283598 13.27474249 -111.55242568 13.26951766 C-115.64725373 13.26640645 -119.74203382 13.26596479 -123.83685875 13.27259064 C-127.69215584 13.27839253 -131.54732202 13.27431542 -135.40260506 13.26280212 C-136.81345783 13.26016977 -138.22432172 13.26089614 -139.63516998 13.26532745 C-146.75137634 13.28560755 -153.18901604 13.16358495 -160 11 C-160 10.34 -160 9.68 -160 9 C-158.02 9 -156.04 9 -154 9 C-154 9.66 -154 10.32 -154 11 C-104.5 11 -55 11 -4 11 C-3.34 8.03 -2.68 5.06 -2 2 C-1.34 2 -0.68 2 0 2 C0 1.34 0 0.68 0 0 Z " fill="#B5B5B5" transform="translate(308,467)"/>
<path d="M0 0 C1.24458984 -0.00257813 2.48917969 -0.00515625 3.77148438 -0.0078125 C5.72344727 0.00378906 5.72344727 0.00378906 7.71484375 0.015625 C9.02001953 0.00789063 10.32519531 0.00015625 11.66992188 -0.0078125 C13.53487305 -0.00394531 13.53487305 -0.00394531 15.4375 0 C17.15271851 0.00338379 17.15271851 0.00338379 18.90258789 0.00683594 C21.65234375 0.265625 21.65234375 0.265625 23.65234375 2.265625 C23.87939453 5.33837891 23.87939453 5.33837891 23.84765625 9.2421875 C23.84266113 10.49596191 23.83766602 11.74973633 23.83251953 13.04150391 C23.81431152 14.64171387 23.79610352 16.24192383 23.77734375 17.890625 C23.73609375 22.964375 23.69484375 28.038125 23.65234375 33.265625 C12.76234375 33.265625 1.87234375 33.265625 -9.34765625 33.265625 C-9.40953125 28.191875 -9.47140625 23.118125 -9.53515625 17.890625 C-9.57612427 15.49031006 -9.57612427 15.49031006 -9.61791992 13.04150391 C-9.6254126 11.78772949 -9.63290527 10.53395508 -9.640625 9.2421875 C-9.65633545 7.95393066 -9.6720459 6.66567383 -9.68823242 5.33837891 C-9.57584229 4.32437012 -9.46345215 3.31036133 -9.34765625 2.265625 C-5.79164435 -0.1050496 -4.21679444 0.00831071 0 0 Z M-6.34765625 3.265625 C-6.34765625 12.505625 -6.34765625 21.745625 -6.34765625 31.265625 C2.89234375 31.265625 12.13234375 31.265625 21.65234375 31.265625 C21.65234375 22.025625 21.65234375 12.785625 21.65234375 3.265625 C12.41234375 3.265625 3.17234375 3.265625 -6.34765625 3.265625 Z " fill="#909090" transform="translate(200.34765625,355.734375)"/>
<path d="M0 0 C10.89 0 21.78 0 33 0 C33 10.23 33 20.46 33 31 C32.34 31 31.68 31 31 31 C31 31.66 31 32.32 31 33 C27.06734104 33.04947698 23.13480286 33.08575578 19.2019043 33.10986328 C17.20680382 33.12485495 15.21179054 33.15026731 13.21679688 33.17578125 C11.96318359 33.18222656 10.70957031 33.18867188 9.41796875 33.1953125 C8.26063232 33.20578613 7.1032959 33.21625977 5.91088867 33.22705078 C3 33 3 33 0 31 C-0.34057617 27.92724609 -0.34057617 27.92724609 -0.29296875 24.0234375 C-0.28547607 22.76966309 -0.2779834 21.51588867 -0.27026367 20.22412109 C-0.24295166 18.62391113 -0.21563965 17.02370117 -0.1875 15.375 C-0.0946875 7.764375 -0.0946875 7.764375 0 0 Z M3 2 C3 11.24 3 20.48 3 30 C12.24 30 21.48 30 31 30 C31 20.76 31 11.52 31 2 C21.76 2 12.52 2 3 2 Z " fill="#909090" transform="translate(191,237)"/>
<path d="M0 0 C44.88 0 89.76 0 136 0 C136 1.98 136 3.96 136 6 C135.01 5.505 135.01 5.505 134 5 C134 4.01 134 3.02 134 2 C89.45 2 44.9 2 -1 2 C-0.67 1.34 -0.34 0.68 0 0 Z " fill="#BFBFBF" transform="translate(253,356)"/>
<path d="M0 0 C1.24458984 0.04705078 2.48917969 0.09410156 3.77148438 0.14257812 C5.07279297 0.20251953 6.37410156 0.26246094 7.71484375 0.32421875 C9.67260742 0.39672852 9.67260742 0.39672852 11.66992188 0.47070312 C21.36436203 0.86772789 21.36436203 0.86772789 23.65234375 2.01171875 C23.67699997 6.26586498 23.69518274 10.51997373 23.70727539 14.77416992 C23.71231476 16.22241948 23.71914628 17.67066392 23.7277832 19.11889648 C23.73986622 21.19646463 23.74557586 23.27396572 23.75 25.3515625 C23.75523682 26.60316162 23.76047363 27.85476074 23.76586914 29.14428711 C23.65234375 32.01171875 23.65234375 32.01171875 22.65234375 33.01171875 C18.55999694 33.36733614 14.45637612 33.48108777 10.3515625 33.62426758 C8.2923591 33.69867618 6.23428745 33.78937569 4.17578125 33.88085938 C2.8815625 33.92791016 1.58734375 33.97496094 0.25390625 34.0234375 C-1.53539307 34.09244263 -1.53539307 34.09244263 -3.36083984 34.1628418 C-6.34765625 34.01171875 -6.34765625 34.01171875 -9.34765625 32.01171875 C-9.73583984 29.0625 -9.73583984 29.0625 -9.74609375 25.32421875 C-9.74896393 24.66591064 -9.75183411 24.00760254 -9.75479126 23.3293457 C-9.75683301 21.93732849 -9.75129527 20.54528266 -9.73876953 19.15332031 C-9.72271503 17.01953128 -9.73861188 14.8876362 -9.7578125 12.75390625 C-9.75583008 11.40233956 -9.75198644 10.05077405 -9.74609375 8.69921875 C-9.74270996 7.46558594 -9.73932617 6.23195313 -9.73583984 4.9609375 C-9.60773926 3.98769531 -9.47963867 3.01445312 -9.34765625 2.01171875 C-5.73257896 -0.39833278 -4.27654992 -0.17188076 0 0 Z M-6.34765625 2.01171875 C-6.34765625 11.91171875 -6.34765625 21.81171875 -6.34765625 32.01171875 C2.89234375 32.01171875 12.13234375 32.01171875 21.65234375 32.01171875 C21.65234375 22.11171875 21.65234375 12.21171875 21.65234375 2.01171875 C12.41234375 2.01171875 3.17234375 2.01171875 -6.34765625 2.01171875 Z " fill="#9A9A9A" transform="translate(200.34765625,295.98828125)"/>
<path d="M0 0 C0.66 0 1.32 0 2 0 C2 0.66 2 1.32 2 2 C2.66 2 3.32 2 4 2 C4 2.66 4 3.32 4 4 C7.85852936 4.90078935 11.45126964 5.13548719 15.40974426 5.15821838 C16.70398315 5.1680072 17.99822205 5.17779602 19.3316803 5.18788147 C20.75863611 5.19378492 22.1855923 5.19959541 23.61254883 5.20532227 C25.12065903 5.21490623 26.62876657 5.22491662 28.13687134 5.23532104 C32.22527081 5.26231999 36.31368177 5.28335663 40.40212083 5.30332303 C44.67693049 5.32521353 48.95170496 5.35258722 53.22648621 5.37937927 C61.31884895 5.42926475 69.41123127 5.47421894 77.50363225 5.51740164 C86.71762272 5.56680946 95.93157787 5.62171443 105.14553416 5.67708123 C124.09698996 5.79083763 143.04847912 5.89769046 162 6 C162 6.33 162 6.66 162 7 C141.43390235 7.02333408 120.86780687 7.04098169 100.30169868 7.05181217 C90.75304854 7.05697404 81.2044066 7.06401468 71.65576172 7.07543945 C63.33563573 7.0853896 55.01551568 7.09185422 46.69538391 7.09408849 C42.28772043 7.09539504 37.88007396 7.09847734 33.47241592 7.10573006 C29.32748539 7.11249548 25.18257896 7.11461589 21.03764343 7.11310768 C19.51300297 7.11338377 17.98836174 7.11538581 16.46372604 7.11920547 C14.38872069 7.12415086 12.31380736 7.12299514 10.23880005 7.12025452 C9.0754973 7.12117631 7.91219456 7.1220981 6.71364021 7.12304783 C4 7 4 7 2 6 C2 5.34 2 4.68 2 4 C1.34 4 0.68 4 0 4 C0 2.68 0 1.36 0 0 Z " fill="#CFCFCF" transform="translate(150,441)"/>
<path d="M0 0 C0.33 0 0.66 0 1 0 C1 2.64 1 5.28 1 8 C0.34 8 -0.32 8 -1 8 C-1 10.97 -1 13.94 -1 17 C-1.66 17 -2.32 17 -3 17 C-3 19.31 -3 21.62 -3 24 C-3.66 24 -4.32 24 -5 24 C-4.67 26.64 -4.34 29.28 -4 32 C1.3503559 31.42978066 6.67787852 30.79265639 12 30 C12 29.34 12 28.68 12 28 C14.64 28 17.28 28 20 28 C18.68000515 30.63998971 17.63086688 30.70014976 14.875 31.625 C10.72529737 32.94626532 7.32795771 33.27625262 3 33 C3 33.66 3 34.32 3 35 C0.05875742 35.24510355 -1.59327876 35.23241214 -4.1875 33.75 C-6.11983395 31.88429826 -7.08451372 30.51758727 -8 28 C-8 26.68 -8 25.36 -8 24 C-7.34 24 -6.68 24 -6 24 C-6.07541016 22.50919922 -6.07541016 22.50919922 -6.15234375 20.98828125 C-5.98490251 16.6047555 -5.03678682 13.26920317 -3.5625 9.1875 C-3.33240234 8.52041016 -3.10230469 7.85332031 -2.86523438 7.16601562 C-2.01223938 4.71581841 -1.16143723 2.32287446 0 0 Z " fill="#7A7A7A" transform="translate(336,474)"/>
<path d="M0 0 C2.9659963 1.64357757 5.81626053 3.50739414 7.90234375 6.20703125 C7.90234375 6.86703125 7.90234375 7.52703125 7.90234375 8.20703125 C8.56234375 8.20703125 9.22234375 8.20703125 9.90234375 8.20703125 C9.90234375 8.86703125 9.90234375 9.52703125 9.90234375 10.20703125 C10.56234375 10.20703125 11.22234375 10.20703125 11.90234375 10.20703125 C11.90234375 10.86703125 11.90234375 11.52703125 11.90234375 12.20703125 C12.56234375 12.20703125 13.22234375 12.20703125 13.90234375 12.20703125 C13.90234375 12.86703125 13.90234375 13.52703125 13.90234375 14.20703125 C14.56234375 14.20703125 15.22234375 14.20703125 15.90234375 14.20703125 C18.52734375 16.58203125 18.52734375 16.58203125 20.90234375 19.20703125 C20.90234375 19.86703125 20.90234375 20.52703125 20.90234375 21.20703125 C21.56234375 21.20703125 22.22234375 21.20703125 22.90234375 21.20703125 C22.90234375 21.86703125 22.90234375 22.52703125 22.90234375 23.20703125 C21.91234375 23.20703125 20.92234375 23.20703125 19.90234375 23.20703125 C19.90234375 22.54703125 19.90234375 21.88703125 19.90234375 21.20703125 C19.24234375 21.20703125 18.58234375 21.20703125 17.90234375 21.20703125 C17.90234375 20.54703125 17.90234375 19.88703125 17.90234375 19.20703125 C17.24234375 19.20703125 16.58234375 19.20703125 15.90234375 19.20703125 C15.90234375 18.54703125 15.90234375 17.88703125 15.90234375 17.20703125 C14.58234375 16.87703125 13.26234375 16.54703125 11.90234375 16.20703125 C11.90234375 15.54703125 11.90234375 14.88703125 11.90234375 14.20703125 C10.91234375 14.20703125 9.92234375 14.20703125 8.90234375 14.20703125 C8.24234375 12.22703125 7.58234375 10.24703125 6.90234375 8.20703125 C6.24234375 8.20703125 5.58234375 8.20703125 4.90234375 8.20703125 C4.90234375 7.54703125 4.90234375 6.88703125 4.90234375 6.20703125 C4.24234375 6.20703125 3.58234375 6.20703125 2.90234375 6.20703125 C2.90234375 5.54703125 2.90234375 4.88703125 2.90234375 4.20703125 C1.58234375 4.20703125 0.26234375 4.20703125 -1.09765625 4.20703125 C-1.09765625 3.54703125 -1.09765625 2.88703125 -1.09765625 2.20703125 C-4.06765625 2.20703125 -7.03765625 2.20703125 -10.09765625 2.20703125 C-10.42765625 3.52703125 -10.75765625 4.84703125 -11.09765625 6.20703125 C-11.42765625 5.54703125 -11.75765625 4.88703125 -12.09765625 4.20703125 C-14.07765625 4.20703125 -16.05765625 4.20703125 -18.09765625 4.20703125 C-18.42765625 5.52703125 -18.75765625 6.84703125 -19.09765625 8.20703125 C-19.75765625 8.20703125 -20.41765625 8.20703125 -21.09765625 8.20703125 C-21.09765625 7.21703125 -21.09765625 6.22703125 -21.09765625 5.20703125 C-20.43765625 5.20703125 -19.77765625 5.20703125 -19.09765625 5.20703125 C-19.09765625 4.54703125 -19.09765625 3.88703125 -19.09765625 3.20703125 C-18.43765625 3.20703125 -17.77765625 3.20703125 -17.09765625 3.20703125 C-17.09765625 2.54703125 -17.09765625 1.88703125 -17.09765625 1.20703125 C-11.93878808 -1.54436511 -5.49752415 -2.07820745 0 0 Z " fill="#9B9B9B" transform="translate(475.09765625,328.79296875)"/>
<path d="M0 0 C0.33 0 0.66 0 1 0 C1 31.02 1 62.04 1 94 C3.64 94 6.28 94 9 94 C7.3125 95.5625 7.3125 95.5625 5 97 C3.35 96.67 1.7 96.34 0 96 C0 64.32 0 32.64 0 0 Z " fill="#CFCFCF" transform="translate(447,208)"/>
<path d="M0 0 C16.17 0 32.34 0 49 0 C49 6.52530629 48.88570049 9.34289852 47 15 C46.34 15 45.68 15 45 15 C44.67 16.98 44.34 18.96 44 21 C43.00079589 17.86774314 43.03661675 15.80667951 43.8125 12.625 C43.98394531 11.89539063 44.15539062 11.16578125 44.33203125 10.4140625 C45.11850269 7.57172713 46.04706534 4.79045003 47 2 C45.86949219 2.01160156 44.73898437 2.02320313 43.57421875 2.03515625 C29.03080905 2.13321548 14.52881379 1.61712991 0 1 C0 0.67 0 0.34 0 0 Z " fill="#4D4D4D" transform="translate(264,448)"/>
<path d="M0 0 C0.99 0 1.98 0 3 0 C3 9.9 3 19.8 3 30 C2.01 30 1.02 30 0 30 C0 20.1 0 10.2 0 0 Z " fill="#969696" transform="translate(402,298)"/>
<path d="M0 0 C0.66 0 1.32 0 2 0 C3.40912096 2.81824192 3.11183553 5.17251282 3.09765625 8.3203125 C3.09443359 9.57714844 3.09121094 10.83398438 3.08789062 12.12890625 C3.07951172 13.44761719 3.07113281 14.76632813 3.0625 16.125 C3.05748489 17.46484211 3.05292201 18.804686 3.04882812 20.14453125 C3.03701086 23.42973206 3.02053617 26.71484397 3 30 C2.01 30 1.02 30 0 30 C0 20.1 0 10.2 0 0 Z " fill="#969696" transform="translate(402,237)"/>
<path d="M0 0 C0.99 0 1.98 0 3 0 C3 0.66 3 1.32 3 2 C2.34 2 1.68 2 1 2 C0.67 2.99 0.34 3.98 0 5 C-0.66 5 -1.32 5 -2 5 C-2.33 6.65 -2.66 8.3 -3 10 C-2.34 10 -1.68 10 -1 10 C-1 10.99 -1 11.98 -1 13 C-1.99 13 -2.98 13 -4 13 C-4 12.34 -4 11.68 -4 11 C-5.32 11 -6.64 11 -8 11 C-8 11.66 -8 12.32 -8 13 C-8.66 13 -9.32 13 -10 13 C-10 13.99 -10 14.98 -10 16 C-10.66 16 -11.32 16 -12 16 C-12 16.66 -12 17.32 -12 18 C-12.99 18 -13.98 18 -15 18 C-15 19.32 -15 20.64 -15 22 C-16.32 22 -17.64 22 -19 22 C-19 21.34 -19 20.68 -19 20 C-18.34 20 -17.68 20 -17 20 C-17 19.01 -17 18.02 -17 17 C-16.34 17 -15.68 17 -15 17 C-15 16.34 -15 15.68 -15 15 C-14.34 15 -13.68 15 -13 15 C-13 14.34 -13 13.68 -13 13 C-11.1875 10.875 -11.1875 10.875 -9 9 C-8.01 9 -7.02 9 -6 9 C-6 8.34 -6 7.68 -6 7 C-5.34 7 -4.68 7 -4 7 C-4 6.01 -4 5.02 -4 4 C-3.34 4 -2.68 4 -2 4 C-2 3.34 -2 2.68 -2 2 C-1.34 2 -0.68 2 0 2 C0 1.34 0 0.68 0 0 Z " fill="#8C8C8C" transform="translate(382,404)"/>
<path d="M0 0 C0.99 0 1.98 0 3 0 C3 0.66 3 1.32 3 2 C-10.6332574 7.74031891 -10.6332574 7.74031891 -17 7 C-17 7.66 -17 8.32 -17 9 C-18.98 9 -20.96 9 -23 9 C-23 9.66 -23 10.32 -23 11 C-24.65 11 -26.3 11 -28 11 C-28 10.34 -28 9.68 -28 9 C-26.68 9 -25.36 9 -24 9 C-24 8.01 -24 7.02 -24 6 C-21.03 6 -18.06 6 -15 6 C-15 5.34 -15 4.68 -15 4 C-12.69 4 -10.38 4 -8 4 C-8 3.34 -8 2.68 -8 2 C-5.36 2 -2.72 2 0 2 C0 1.34 0 0.68 0 0 Z " fill="#969696" transform="translate(393,489)"/>
<path d="M0 0 C2.97 0 5.94 0 9 0 C9 0.66 9 1.32 9 2 C10.3921875 1.87625 10.3921875 1.87625 11.8125 1.75 C15 2 15 2 16.8125 3.4375 C18.29076096 6.62743155 18.54594795 9.49192066 18.7890625 12.9765625 C18.88700579 15.06739849 18.88700579 15.06739849 20 17 C20.07033769 18.87379605 20.0843022 20.75001102 20.0625 22.625 C20.05347656 23.62789063 20.04445313 24.63078125 20.03515625 25.6640625 C20.02355469 26.43492187 20.01195312 27.20578125 20 28 C19.01 28 18.02 28 17 28 C17 27.34 17 26.68 17 26 C17.66 26 18.32 26 19 26 C18.71125 24.73542969 18.4225 23.47085937 18.125 22.16796875 C17.74983202 20.50785045 17.37484124 18.8476921 17 17.1875 C16.80921875 16.35412109 16.6184375 15.52074219 16.421875 14.66210938 C16.15117187 13.45844727 16.15117187 13.45844727 15.875 12.23046875 C15.70742188 11.49207764 15.53984375 10.75368652 15.3671875 9.99291992 C15 8 15 8 15 5 C14.08476562 4.80664062 13.16953125 4.61328125 12.2265625 4.4140625 C11.03804688 4.15367187 9.84953125 3.89328125 8.625 3.625 C7.44164062 3.36976563 6.25828125 3.11453125 5.0390625 2.8515625 C2 2 2 2 0 0 Z " fill="#9D9D9D" transform="translate(365,452)"/>
<path d="M0 0 C0 0.66 0 1.32 0 2 C-0.66 2 -1.32 2 -2 2 C-2 2.66 -2 3.32 -2 4 C-2.66 4 -3.32 4 -4 4 C-4 4.66 -4 5.32 -4 6 C-4.66 6 -5.32 6 -6 6 C-6 6.66 -6 7.32 -6 8 C-7.375 9.625 -7.375 9.625 -9 11 C-9.66 11 -10.32 11 -11 11 C-11 11.66 -11 12.32 -11 13 C-11.66 13 -12.32 13 -13 13 C-13 13.66 -13 14.32 -13 15 C-16.01031744 15.93423645 -16.86650268 16.04449911 -20 15 C-22.1875 13.125 -22.1875 13.125 -24 11 C-24 10.01 -24 9.02 -24 8 C-23.34 8 -22.68 8 -22 8 C-22 8.66 -22 9.32 -22 10 C-21.01 10 -20.02 10 -19 10 C-19 10.66 -19 11.32 -19 12 C-17.02 12 -15.04 12 -13 12 C-13 11.34 -13 10.68 -13 10 C-12.34 10 -11.68 10 -11 10 C-11 9.34 -11 8.68 -11 8 C-10.34 8 -9.68 8 -9 8 C-9 7.34 -9 6.68 -9 6 C-8.34 6 -7.68 6 -7 6 C-7 5.34 -7 4.68 -7 4 C-6.34 4 -5.68 4 -5 4 C-5 3.01 -5 2.02 -5 1 C-2 0 -2 0 0 0 Z " fill="#959595" transform="translate(500,383)"/>
<path d="M0 0 C1.32 0 2.64 0 4 0 C4 0.66 4 1.32 4 2 C3.34 2 2.68 2 2 2 C2 2.66 2 3.32 2 4 C1.34 4 0.68 4 0 4 C0 4.66 0 5.32 0 6 C0.66 6 1.32 6 2 6 C2 6.99 2 7.98 2 9 C1.34 9 0.68 9 0 9 C0 9.66 0 10.32 0 11 C-0.66 11 -1.32 11 -2 11 C-1.67 10.01 -1.34 9.02 -1 8 C-2.96756452 8.03122943 -2.96756452 8.03122943 -5 9 C-6.3045656 11.99615946 -6.3045656 11.99615946 -7 15 C-8.32 15 -9.64 15 -11 15 C-10.49396008 12.83125748 -10.00016187 11.00032373 -9 9 C-8.34 9 -7.68 9 -7 9 C-7 8.01 -7 7.02 -7 6 C-6.34 6 -5.68 6 -5 6 C-5 5.34 -5 4.68 -5 4 C-4.01 4 -3.02 4 -2 4 C-2 3.34 -2 2.68 -2 2 C-1.34 2 -0.68 2 0 2 C0 1.34 0 0.68 0 0 Z " fill="#939393" transform="translate(135,124)"/>
<path d="M0 0 C0.66 0 1.32 0 2 0 C2 1.32 2 2.64 2 4 C1.34 4 0.68 4 0 4 C0 6.31 0 8.62 0 11 C-0.66 11 -1.32 11 -2 11 C-2 12.98 -2 14.96 -2 17 C-2.66 17 -3.32 17 -4 17 C-4 22.61 -4 28.22 -4 34 C-4.66 33.67 -5.32 33.34 -6 33 C-5.94748036 29.51966801 -5.85226395 26.04169756 -5.75 22.5625 C-5.73582031 21.58861328 -5.72164063 20.61472656 -5.70703125 19.61132812 C-5.48286642 12.90879962 -4.1767553 7.90027384 -1 2 C-0.67 1.34 -0.34 0.68 0 0 Z " fill="#737373" transform="translate(122,139)"/>
<path d="M0 0 C0.33 0.99 0.66 1.98 1 3 C-1.97 3 -4.94 3 -8 3 C-8.33 4.32 -8.66 5.64 -9 7 C-9.33 6.34 -9.66 5.68 -10 5 C-11.98 5 -13.96 5 -16 5 C-16.33 6.32 -16.66 7.64 -17 9 C-17.66 9 -18.32 9 -19 9 C-19 8.01 -19 7.02 -19 6 C-18.34 6 -17.68 6 -17 6 C-17 5.34 -17 4.68 -17 4 C-16.34 4 -15.68 4 -15 4 C-15 3.34 -15 2.68 -15 2 C-10.13948404 -0.59227518 -5.34728867 -0.18689553 0 0 Z " fill="#808080" transform="translate(473,328)"/>
<path d="M0 0 C2.64 0 5.28 0 8 0 C6.68000515 2.63998971 5.63086688 2.70014976 2.875 3.625 C-1.27470263 4.94626532 -4.67204229 5.27625262 -9 5 C-9 5.66 -9 6.32 -9 7 C-12.06393013 7.25532751 -13.63233212 7.21861333 -16.3125 5.625 C-16.869375 5.08875 -17.42625 4.5525 -18 4 C-18 3.34 -18 2.68 -18 2 C-17.34 2 -16.68 2 -16 2 C-16 2.66 -16 3.32 -16 4 C-10.6496441 3.42978066 -5.32212148 2.79265639 0 2 C0 1.34 0 0.68 0 0 Z " fill="#979797" transform="translate(348,502)"/>
<path d="M0 0 C0.66 0 1.32 0 2 0 C2 0.66 2 1.32 2 2 C2.99 2 3.98 2 5 2 C5.66 3.65 6.32 5.3 7 7 C7.66 7 8.32 7 9 7 C9 7.66 9 8.32 9 9 C7.35 9 5.7 9 4 9 C3.67 9.66 3.34 10.32 3 11 C0.5 9.1875 0.5 9.1875 -2 7 C-2 6.01 -2 5.02 -2 4 C-1.34 4 -0.68 4 0 4 C0 2.68 0 1.36 0 0 Z " fill="#4C4C4C" transform="translate(456,400)"/>
<path d="M0 0 C0.66 0 1.32 0 2 0 C5.69075474 5.31468683 6.43656604 9.56065095 6 16 C4.96537422 19.14830913 3.48059993 22.03880013 2 25 C1.34 25 0.68 25 0 25 C0 25.66 0 26.32 0 27 C-0.66 27 -1.32 27 -2 27 C-2 26.01 -2 25.02 -2 24 C-1.34 24 -0.68 24 0 24 C0 23.34 0 22.68 0 22 C0.66 22 1.32 22 2 22 C2 20.68 2 19.36 2 18 C2.66 18 3.32 18 4 18 C4 14.37 4 10.74 4 7 C3.34 7 2.68 7 2 7 C2 5.68 2 4.36 2 3 C1.34 3 0.68 3 0 3 C0 2.01 0 1.02 0 0 Z " fill="#AEAEAE" transform="translate(502,356)"/>
<path d="M0 0 C0 0.66 0 1.32 0 2 C-0.66 2 -1.32 2 -2 2 C-2 2.66 -2 3.32 -2 4 C-2.66 4 -3.32 4 -4 4 C-4.268125 4.598125 -4.53625 5.19625 -4.8125 5.8125 C-5.99917406 7.99847854 -7.09599113 9.41332594 -9 11 C-9.66 11 -10.32 11 -11 11 C-11 11.66 -11 12.32 -11 13 C-11.66 13 -12.32 13 -13 13 C-13 13.66 -13 14.32 -13 15 C-13.66 15 -14.32 15 -15 15 C-15 13.35 -15 11.7 -15 10 C-14.34 10 -13.68 10 -13 10 C-13 9.34 -13 8.68 -13 8 C-11.68 8 -10.36 8 -9 8 C-9 7.34 -9 6.68 -9 6 C-8.34 6 -7.68 6 -7 6 C-7 5.34 -7 4.68 -7 4 C-6.34 4 -5.68 4 -5 4 C-5.33 3.01 -5.66 2.02 -6 1 C-3 0 -3 0 0 0 Z " fill="#6D6D6D" transform="translate(463,422)"/>
<path d="M0 0 C2.31 0 4.62 0 7 0 C7 0.99 7 1.98 7 3 C8.32 3.66 9.64 4.32 11 5 C11 5.66 11 6.32 11 7 C10.34 7 9.68 7 9 7 C9 6.34 9 5.68 9 5 C7.68 5 6.36 5 5 5 C5 4.34 5 3.68 5 3 C3.68 3 2.36 3 1 3 C0.67 4.32 0.34 5.64 0 7 C-0.66 7 -1.32 7 -2 7 C-2 7.66 -2 8.32 -2 9 C-3.32 9 -4.64 9 -6 9 C-6 8.34 -6 7.68 -6 7 C-5.34 7 -4.68 7 -4 7 C-4 6.34 -4 5.68 -4 5 C-3.34 5 -2.68 5 -2 5 C-1.34 3.35 -0.68 1.7 0 0 Z " fill="#939393" transform="translate(419,367)"/>
<path d="M0 0 C4.95 0 9.9 0 15 0 C15 1.32 15 2.64 15 4 C13.68 4 12.36 4 11 4 C11 3.34 11 2.68 11 2 C9.52031676 2.14049518 8.04125484 2.28754826 6.5625 2.4375 C5.32693359 2.55931641 5.32693359 2.55931641 4.06640625 2.68359375 C2.01337975 2.78930815 2.01337975 2.78930815 1 4 C-1.67058851 4.14115161 -4.32432238 4.04247107 -7 4 C-7 3.34 -7 2.68 -7 2 C-4.69 2 -2.38 2 0 2 C0 1.34 0 0.68 0 0 Z " fill="#6C6C6C" transform="translate(463,298)"/>
<path d="M0 0 C0.99 0 1.98 0 3 0 C3 0.66 3 1.32 3 2 C1.68 2.33 0.36 2.66 -1 3 C-1.1546875 3.8353125 -1.1546875 3.8353125 -1.3125 4.6875 C-2.2327252 7.78280296 -3.69393133 10.69393133 -6 13 C-7.99958364 13.04080783 -10.00045254 13.04254356 -12 13 C-12 12.34 -12 11.68 -12 11 C-10.68 10.67 -9.36 10.34 -8 10 C-8 9.34 -8 8.68 -8 8 C-7.34 8 -6.68 8 -6 8 C-6 7.34 -6 6.68 -6 6 C-5.34 6 -4.68 6 -4 6 C-3.67 4.68 -3.34 3.36 -3 2 C-2.01 2 -1.02 2 0 2 C0 1.34 0 0.68 0 0 Z " fill="#616161" transform="translate(449,339)"/>
<path d="M0 0 C1.32 0 2.64 0 4 0 C4 0.66 4 1.32 4 2 C3.34 2 2.68 2 2 2 C2 2.66 2 3.32 2 4 C1.34 4 0.68 4 0 4 C-0.268125 4.598125 -0.53625 5.19625 -0.8125 5.8125 C-1.99917406 7.99847854 -3.09599113 9.41332594 -5 11 C-5.66 11 -6.32 11 -7 11 C-7 11.66 -7 12.32 -7 13 C-7.66 13 -8.32 13 -9 13 C-9 13.66 -9 14.32 -9 15 C-9.66 15 -10.32 15 -11 15 C-10.67 13.35 -10.34 11.7 -10 10 C-9.01 10 -8.02 10 -7 10 C-7 9.34 -7 8.68 -7 8 C-6.34 8 -5.68 8 -5 8 C-5 7.34 -5 6.68 -5 6 C-4.34 6 -3.68 6 -3 6 C-3 5.34 -3 4.68 -3 4 C-2.34 4 -1.68 4 -1 4 C-0.67 2.68 -0.34 1.36 0 0 Z " fill="#757575" transform="translate(409,472)"/>
<path d="M0 0 C1.15242188 0.01804687 2.30484375 0.03609375 3.4921875 0.0546875 C4.36101562 0.07789062 5.22984375 0.10109375 6.125 0.125 C6.125 0.455 6.125 0.785 6.125 1.125 C3.815 1.125 1.505 1.125 -0.875 1.125 C-0.875 1.785 -0.875 2.445 -0.875 3.125 C-3.515 3.125 -6.155 3.125 -8.875 3.125 C-8.875 3.785 -8.875 4.445 -8.875 5.125 C-10.525 5.125 -12.175 5.125 -13.875 5.125 C-13.875 5.785 -13.875 6.445 -13.875 7.125 C-15.195 7.125 -16.515 7.125 -17.875 7.125 C-17.875 6.465 -17.875 5.805 -17.875 5.125 C-12.22073124 1.13375146 -6.85497194 -0.13989739 0 0 Z " fill="#808080" transform="translate(156.875,116.875)"/>
<path d="M0 0 C0.99 0 1.98 0 3 0 C3 2.31 3 4.62 3 7 C3.66 7 4.32 7 5 7 C5 8.98 5 10.96 5 13 C5.66 13 6.32 13 7 13 C7 13.66 7 14.32 7 15 C7.66 15 8.32 15 9 15 C9 16.65 9 18.3 9 20 C8.34 20 7.68 20 7 20 C7 18.68 7 17.36 7 16 C6.34 16 5.68 16 5 16 C4.67 14.35 4.34 12.7 4 11 C3.34 11 2.68 11 2 11 C0.19769832 7.17010894 -0.19622241 4.21878192 0 0 Z " fill="#959595" transform="translate(117,441)"/>
<path d="M0 0 C0 0.66 0 1.32 0 2 C-0.66 2 -1.32 2 -2 2 C-2 2.66 -2 3.32 -2 4 C-2.66 4 -3.32 4 -4 4 C-4 6.31 -4 8.62 -4 11 C-4.66 11 -5.32 11 -6 11 C-5.96519531 11.62648438 -5.93039062 12.25296875 -5.89453125 12.8984375 C-5.85392578 14.12433594 -5.85392578 14.12433594 -5.8125 15.375 C-5.77769531 16.18710937 -5.74289062 16.99921875 -5.70703125 17.8359375 C-5.80371094 18.55007813 -5.90039062 19.26421875 -6 20 C-6.99 20.66 -7.98 21.32 -9 22 C-9.31420773 16.03005321 -8.59503404 12.50147217 -6 7 C-5.835 6.071875 -5.67 5.14375 -5.5 4.1875 C-4.78754653 1.07051607 -3.19435045 0 0 0 Z " fill="#8E8E8E" transform="translate(350,439)"/>
<path d="M0 0 C1.32 0 2.64 0 4 0 C4 0.66 4 1.32 4 2 C4.66 2 5.32 2 6 2 C6 2.66 6 3.32 6 4 C6.99 4 7.98 4 9 4 C9.66 5.65 10.32 7.3 11 9 C10.01 9 9.02 9 8 9 C8 8.34 8 7.68 8 7 C7.236875 7.061875 6.47375 7.12375 5.6875 7.1875 C3 7 3 7 1.1875 5.75 C0 4 0 4 0 0 Z " fill="#5B5B5B" transform="translate(459,126)"/>
<path d="M0 0 C4.82360189 -0.19294408 8.49646738 0.24252386 13 2 C13 2.66 13 3.32 13 4 C13.7425 4.12375 14.485 4.2475 15.25 4.375 C17.80141485 4.95486701 19.7267573 5.73708739 22 7 C22 7.66 22 8.32 22 9 C20.35 9 18.7 9 17 9 C17 8.34 17 7.68 17 7 C16.34 7 15.68 7 15 7 C15 6.34 15 5.68 15 5 C13.02 5 11.04 5 9 5 C9 4.34 9 3.68 9 3 C4.545 2.01 4.545 2.01 0 1 C0 0.67 0 0.34 0 0 Z " fill="#9C9C9C" transform="translate(439,117)"/>
<path d="M0 0 C1.65 0 3.3 0 5 0 C5 0.66 5 1.32 5 2 C4.34 2 3.68 2 3 2 C3 2.66 3 3.32 3 4 C2.34 4 1.68 4 1 4 C1 4.66 1 5.32 1 6 C0.34 6 -0.32 6 -1 6 C-1.268125 6.639375 -1.53625 7.27875 -1.8125 7.9375 C-3 10 -3 10 -6 11 C-6 11.66 -6 12.32 -6 13 C-6.66 13 -7.32 13 -8 13 C-8 12.01 -8 11.02 -8 10 C-7.34 10 -6.68 10 -6 10 C-6 9.34 -6 8.68 -6 8 C-5.34 8 -4.68 8 -4 8 C-4 7.34 -4 6.68 -4 6 C-3.34 6 -2.68 6 -2 6 C-2 5.34 -2 4.68 -2 4 C-1.34 4 -0.68 4 0 4 C0 2.68 0 1.36 0 0 Z " fill="#737373" transform="translate(421,459)"/>
<path d="M0 0 C1.32 0 2.64 0 4 0 C4 0.99 4 1.98 4 3 C3.09507812 3.09087891 3.09507812 3.09087891 2.171875 3.18359375 C0.97304688 3.30927734 0.97304688 3.30927734 -0.25 3.4375 C-1.03890625 3.51871094 -1.8278125 3.59992188 -2.640625 3.68359375 C-4.82364639 3.97634993 -6.8773182 4.42064419 -9 5 C-9 5.66 -9 6.32 -9 7 C-11.31 7 -13.62 7 -16 7 C-13.44403516 3.87604298 -10.87332971 2.96833243 -7 2 C-4.66787973 1.92477031 -2.3314689 1.90674124 0 2 C0 1.34 0 0.68 0 0 Z " fill="#979797" transform="translate(374,480)"/>
<path d="M0 0 C1.98 0 3.96 0 6 0 C6 0.66 6 1.32 6 2 C4.68 2 3.36 2 2 2 C2 3.32 2 4.64 2 6 C1.34 6 0.68 6 0 6 C-0.12375 7.11375 -0.2475 8.2275 -0.375 9.375 C-1 13 -1 13 -3 15 C-3.36263859 9.1977825 -2.25684543 5.36000789 0 0 Z " fill="#838383" transform="translate(357,450)"/>
<path d="M0 0 C1.98 0 3.96 0 6 0 C6 0.66 6 1.32 6 2 C7.258125 1.979375 8.51625 1.95875 9.8125 1.9375 C15.24514947 1.92884928 20.60104876 2.43487613 26 3 C26 3.33 26 3.66 26 4 C23.16640156 4.05449228 20.33387515 4.09390733 17.5 4.125 C16.70851562 4.14175781 15.91703125 4.15851563 15.1015625 4.17578125 C9.72001921 4.21989226 5.17000073 3.50594058 0 2 C0 1.34 0 0.68 0 0 Z " fill="#B6B6B6" transform="translate(148,476)"/>
<path d="M0 0 C0.66 0 1.32 0 2 0 C2.66 0.99 3.32 1.98 4 3 C6.56282742 3.72965366 6.56282742 3.72965366 9 4 C9 4.66 9 5.32 9 6 C10.175625 6.4640625 10.175625 6.4640625 11.375 6.9375 C14 8 14 8 16 9 C16 9.66 16 10.32 16 11 C14.68 11 13.36 11 12 11 C12 10.34 12 9.68 12 9 C11.01 9 10.02 9 9 9 C9 8.34 9 7.68 9 7 C7.68 7 6.36 7 5 7 C5 6.34 5 5.68 5 5 C4.360625 4.731875 3.72125 4.46375 3.0625 4.1875 C1 3 1 3 0 0 Z " fill="#8C8C8C" transform="translate(130,465)"/>
<path d="M0 0 C0.66 0 1.32 0 2 0 C2 0.66 2 1.32 2 2 C2.99 2 3.98 2 5 2 C9 6.34285714 9 6.34285714 9 9 C7.6078125 8.7215625 7.6078125 8.7215625 6.1875 8.4375 C2.98656229 7.75876119 2.98656229 7.75876119 0 9 C0.66 7.35 1.32 5.7 2 4 C1.34 4 0.68 4 0 4 C0 2.68 0 1.36 0 0 Z " fill="#6D6D6D" transform="translate(443,387)"/>
<path d="M0 0 C0.99 0 1.98 0 3 0 C3 0.66 3 1.32 3 2 C2.34 2 1.68 2 1 2 C0.67 2.99 0.34 3.98 0 5 C-0.66 5 -1.32 5 -2 5 C-2.33 6.65 -2.66 8.3 -3 10 C-2.34 10 -1.68 10 -1 10 C-1 10.99 -1 11.98 -1 13 C-1.99 13 -2.98 13 -4 13 C-4 12.34 -4 11.68 -4 11 C-4.66 11 -5.32 11 -6 11 C-6 9.68 -6 8.36 -6 7 C-5.34 7 -4.68 7 -4 7 C-4 6.01 -4 5.02 -4 4 C-3.34 4 -2.68 4 -2 4 C-2 3.34 -2 2.68 -2 2 C-1.34 2 -0.68 2 0 2 C0 1.34 0 0.68 0 0 Z " fill="#2D2D2D" transform="translate(382,404)"/>
<path d="M0 0 C0.66 0 1.32 0 2 0 C1.855625 0.70125 1.71125 1.4025 1.5625 2.125 C0.98521625 5.07556141 0.48304859 8.03270151 0 11 C-0.66 11 -1.32 11 -2 11 C-2.33 12.98 -2.66 14.96 -3 17 C-4.0143635 13.83461036 -3.95408471 11.72075879 -3.1875 8.5 C-3.01605469 7.7471875 -2.84460938 6.994375 -2.66796875 6.21875 C-1.99511069 3.98375948 -1.10497297 2.05142661 0 0 Z " fill="#787878" transform="translate(311,452)"/>
<path d="M0 0 C1.32 0 2.64 0 4 0 C4 0.66 4 1.32 4 2 C3.34 2 2.68 2 2 2 C2 2.66 2 3.32 2 4 C1.34 4 0.68 4 0 4 C-0.268125 4.598125 -0.53625 5.19625 -0.8125 5.8125 C-1.99917406 7.99847854 -3.09599113 9.41332594 -5 11 C-5.66 11 -6.32 11 -7 11 C-7 10.01 -7 9.02 -7 8 C-6.34 8 -5.68 8 -5 8 C-5 7.34 -5 6.68 -5 6 C-4.34 6 -3.68 6 -3 6 C-3 5.34 -3 4.68 -3 4 C-2.34 4 -1.68 4 -1 4 C-0.67 2.68 -0.34 1.36 0 0 Z " fill="#767676" transform="translate(433,448)"/>
<path d="M0 0 C0.99 0 1.98 0 3 0 C3 0.66 3 1.32 3 2 C2.34 2 1.68 2 1 2 C0.67 2.99 0.34 3.98 0 5 C-0.66 5 -1.32 5 -2 5 C-2 6.32 -2 7.64 -2 9 C-2.66 9 -3.32 9 -4 9 C-4 9.66 -4 10.32 -4 11 C-5.32 11 -6.64 11 -8 11 C-8 10.34 -8 9.68 -8 9 C-7.34 9 -6.68 9 -6 9 C-6 8.34 -6 7.68 -6 7 C-5.34 7 -4.68 7 -4 7 C-4 6.01 -4 5.02 -4 4 C-3.34 4 -2.68 4 -2 4 C-2 3.34 -2 2.68 -2 2 C-1.34 2 -0.68 2 0 2 C0 1.34 0 0.68 0 0 Z " fill="#898989" transform="translate(408,378)"/>
<path d="M0 0 C1.9375 0.625 1.9375 0.625 4 2 C4.875 4.9375 4.875 4.9375 5 8 C4.01 9.485 4.01 9.485 3 11 C2.01 11 1.02 11 0 11 C0 11.66 0 12.32 0 13 C-0.66 13 -1.32 13 -2 13 C-2 12.01 -2 11.02 -2 10 C-0.68 10 0.64 10 2 10 C2 8.02 2 6.04 2 4 C1.34 4 0.68 4 0 4 C0 2.68 0 1.36 0 0 Z " fill="#838383" transform="translate(465,409)"/>
<path d="M0 0 C0.66 0 1.32 0 2 0 C2 0.66 2 1.32 2 2 C2.99 2 3.98 2 5 2 C5 2.66 5 3.32 5 4 C6.98 4 8.96 4 11 4 C11 4.99 11 5.98 11 7 C7.98968256 7.93423645 7.13349732 8.04449911 4 7 C1.8125 5.125 1.8125 5.125 0 3 C0 2.01 0 1.02 0 0 Z " fill="#898989" transform="translate(476,391)"/>
<path d="M0 0 C0.33 0 0.66 0 1 0 C1 2.64 1 5.28 1 8 C0.34 8 -0.32 8 -1 8 C-1 9.65 -1 11.3 -1 13 C-1.66 13 -2.32 13 -3 13 C-3.33 13.66 -3.66 14.32 -4 15 C-3.43179252 9.54520815 -2.05362055 5.08940744 0 0 Z " fill="#9E9E9E" transform="translate(336,474)"/>
<path d="M0 0 C1.32 0 2.64 0 4 0 C4 0.66 4 1.32 4 2 C3.34 2 2.68 2 2 2 C2 2.66 2 3.32 2 4 C1.34 4 0.68 4 0 4 C0 4.66 0 5.32 0 6 C0.66 6 1.32 6 2 6 C2 6.99 2 7.98 2 9 C1.34 9 0.68 9 0 9 C0 9.66 0 10.32 0 11 C-0.66 11 -1.32 11 -2 11 C-2 8 -2 5 -2 2 C-1.34 2 -0.68 2 0 2 C0 1.34 0 0.68 0 0 Z " fill="#4C4C4C" transform="translate(135,124)"/>
<path d="M0 0 C2.31 0 4.62 0 7 0 C7 0.99 7 1.98 7 3 C5.02 3 3.04 3 1 3 C1 3.66 1 4.32 1 5 C-0.65 5 -2.3 5 -4 5 C-4 4.34 -4 3.68 -4 3 C-2.68 3 -1.36 3 0 3 C0 2.01 0 1.02 0 0 Z " fill="#838383" transform="translate(369,495)"/>
<path d="M0 0 C0.99 0 1.98 0 3 0 C3 0.99 3 1.98 3 3 C2.34 3 1.68 3 1 3 C1 3.66 1 4.32 1 5 C0.34 5 -0.32 5 -1 5 C-1 5.66 -1 6.32 -1 7 C-1.99 7 -2.98 7 -4 7 C-4 7.66 -4 8.32 -4 9 C-4.66 9 -5.32 9 -6 9 C-6 8.01 -6 7.02 -6 6 C-5.34 6 -4.68 6 -4 6 C-4 5.34 -4 4.68 -4 4 C-3.34 4 -2.68 4 -2 4 C-2 3.34 -2 2.68 -2 2 C-1.34 2 -0.68 2 0 2 C0 1.34 0 0.68 0 0 Z " fill="#989898" transform="translate(395,391)"/>
<path d="M0 0 C0.66 0 1.32 0 2 0 C2 0.66 2 1.32 2 2 C2.99 2 3.98 2 5 2 C5 2.66 5 3.32 5 4 C5.66 4 6.32 4 7 4 C7.66 5.65 8.32 7.3 9 9 C6 9 6 9 4.3125 7.625 C3 6 3 6 3 4 C2.01 4 1.02 4 0 4 C0 2.68 0 1.36 0 0 Z " fill="#919191" transform="translate(430,374)"/>
<path d="M0 0 C2.13686999 4.27373998 3.11896237 6.76923622 3.0625 11.625 C3.05347656 12.62789063 3.04445313 13.63078125 3.03515625 14.6640625 C3.02355469 15.43492187 3.01195312 16.20578125 3 17 C2.01 17 1.02 17 0 17 C0 16.34 0 15.68 0 15 C0.66 15 1.32 15 2 15 C1.67 13.824375 1.34 12.64875 1 11.4375 C0.0030467 7.4988324 -0.16869203 4.04860871 0 0 Z " fill="#A6A6A6" transform="translate(382,463)"/>
<path d="M0 0 C0.99 0 1.98 0 3 0 C3 0.66 3 1.32 3 2 C2.34 2 1.68 2 1 2 C0.34 3.65 -0.32 5.3 -1 7 C-1.99 7 -2.98 7 -4 7 C-4 7.66 -4 8.32 -4 9 C-4.66 9 -5.32 9 -6 9 C-6 8.01 -6 7.02 -6 6 C-5.34 6 -4.68 6 -4 6 C-4 5.34 -4 4.68 -4 4 C-3.34 4 -2.68 4 -2 4 C-2 3.34 -2 2.68 -2 2 C-1.34 2 -0.68 2 0 2 C0 1.34 0 0.68 0 0 Z " fill="#989898" transform="translate(358,428)"/>
<path d="M0 0 C0.33 0 0.66 0 1 0 C1.29162929 4.95769796 1.12940055 8.02806853 -2 12 C-2.66 12 -3.32 12 -4 12 C-4 12.66 -4 13.32 -4 14 C-4.66 14 -5.32 14 -6 14 C-6 13.01 -6 12.02 -6 11 C-5.34 11 -4.68 11 -4 11 C-4 10.34 -4 9.68 -4 9 C-3.34 9 -2.68 9 -2 9 C-2 7.68 -2 6.36 -2 5 C-1.34 5 -0.68 5 0 5 C0 3.35 0 1.7 0 0 Z " fill="#979797" transform="translate(506,369)"/>
<path d="M0 0 C0.66 0 1.32 0 2 0 C2 0.66 2 1.32 2 2 C4.475 2.99 4.475 2.99 7 4 C7 4.99 7 5.98 7 7 C7.66 7 8.32 7 9 7 C9 7.66 9 8.32 9 9 C8.01 9 7.02 9 6 9 C6 8.34 6 7.68 6 7 C5.34 7 4.68 7 4 7 C4 6.34 4 5.68 4 5 C3.34 5 2.68 5 2 5 C2 4.34 2 3.68 2 3 C1.34 3 0.68 3 0 3 C0 2.01 0 1.02 0 0 Z " fill="#A4A4A4" transform="translate(452,367)"/>
<path d="M0 0 C0.66 0 1.32 0 2 0 C2 0.66 2 1.32 2 2 C2.99 2 3.98 2 5 2 C5.66 3.65 6.32 5.3 7 7 C7.66 7 8.32 7 9 7 C9 7.66 9 8.32 9 9 C8.01 9 7.02 9 6 9 C6 8.34 6 7.68 6 7 C5.34 7 4.68 7 4 7 C4 6.34 4 5.68 4 5 C3.34 5 2.68 5 2 5 C2 4.34 2 3.68 2 3 C1.34 3 0.68 3 0 3 C0 2.01 0 1.02 0 0 Z " fill="#A5A5A5" transform="translate(439,354)"/>
<path d="M0 0 C1.32 0 2.64 0 4 0 C4 1.32 4 2.64 4 4 C4.66 4 5.32 4 6 4 C6 4.66 6 5.32 6 6 C6.99 6.33 7.98 6.66 9 7 C9 7.66 9 8.32 9 9 C6 9 6 9 3.8125 7.1875 C2 5 2 5 2 2 C1.34 2 0.68 2 0 2 C0 1.34 0 0.68 0 0 Z " fill="#929292" transform="translate(461,376)"/>
<path d="M0 0 C0.66 0 1.32 0 2 0 C2.28571429 7.42857143 2.28571429 7.42857143 0 11 C-0.66 11 -1.32 11 -2 11 C-2 9.35 -2 7.7 -2 6 C-1.34 6 -0.68 6 0 6 C0 4.02 0 2.04 0 0 Z " fill="#898989" transform="translate(339,461)"/>
<path d="M0 0 C0 1.98 0 3.96 0 6 C-0.66 6 -1.32 6 -2 6 C-2 5.34 -2 4.68 -2 4 C-2.66 4 -3.32 4 -4 4 C-4 3.34 -4 2.68 -4 2 C-4.99 1.67 -5.98 1.34 -7 1 C-3.375 -1.125 -3.375 -1.125 0 0 Z " fill="#616161" transform="translate(476,385)"/>
<path d="M0 0 C0 0.99 0 1.98 0 3 C-1.65 3 -3.3 3 -5 3 C-5 3.66 -5 4.32 -5 5 C-6.32 5 -7.64 5 -9 5 C-9 4.34 -9 3.68 -9 3 C-5.63316085 0.56839395 -4.26649636 0 0 0 Z " fill="#8E8E8E" transform="translate(148,119)"/>
<path d="M0 0 C1.32 0 2.64 0 4 0 C4 0.66 4 1.32 4 2 C4.66 2 5.32 2 6 2 C6 3.32 6 4.64 6 6 C5.34 6 4.68 6 4 6 C4 5.34 4 4.68 4 4 C3.01 4 2.02 4 1 4 C0.67 2.68 0.34 1.36 0 0 Z " fill="#656565" transform="translate(483,339)"/>
<path d="M0 0 C2.97 0 5.94 0 9 0 C9 1.32 9 2.64 9 4 C8.34 4 7.68 4 7 4 C7 3.34 7 2.68 7 2 C5.02 2 3.04 2 1 2 C0.67 1.34 0.34 0.68 0 0 Z " fill="#515151" transform="translate(304,448)"/>
<path d="M0 0 C0.66 0 1.32 0 2 0 C2 0.66 2 1.32 2 2 C2.66 2 3.32 2 4 2 C4 2.99 4 3.98 4 5 C4.99 5.33 5.98 5.66 7 6 C6.01 6.33 5.02 6.66 4 7 C3.34 6.67 2.68 6.34 2 6 C2 5.34 2 4.68 2 4 C1.34 4 0.68 4 0 4 C0 2.68 0 1.36 0 0 Z " fill="#747474" transform="translate(150,441)"/>
<path d="M0 0 C1.32 0.33 2.64 0.66 4 1 C3.34 2.65 2.68 4.3 2 6 C0.68 5.34 -0.64 4.68 -2 4 C-1.34 2.68 -0.68 1.36 0 0 Z " fill="#0F0F0F" transform="translate(131,131)"/>
<path d="M0 0 C0.66 0 1.32 0 2 0 C2 1.65 2 3.3 2 5 C1.34 5 0.68 5 0 5 C0 5.66 0 6.32 0 7 C-0.66 7 -1.32 7 -2 7 C-2 5.35 -2 3.7 -2 2 C-1.34 2 -0.68 2 0 2 C0 1.34 0 0.68 0 0 Z " fill="#494949" transform="translate(450,430)"/>
<path d="M0 0 C0.99 0 1.98 0 3 0 C3 0.66 3 1.32 3 2 C2.34 2 1.68 2 1 2 C0.67 2.99 0.34 3.98 0 5 C-0.66 5 -1.32 5 -2 5 C-2 5.66 -2 6.32 -2 7 C-2.66 7 -3.32 7 -4 7 C-4 6.01 -4 5.02 -4 4 C-3.34 4 -2.68 4 -2 4 C-2 3.34 -2 2.68 -2 2 C-1.34 2 -0.68 2 0 2 C0 1.34 0 0.68 0 0 Z " fill="#A2A2A2" transform="translate(382,404)"/>
<path d="M0 0 C2.64 0 5.28 0 8 0 C8 1.32 8 2.64 8 4 C6.68 4 5.36 4 4 4 C4 3.01 4 2.02 4 1 C2.68 0.67 1.36 0.34 0 0 Z " fill="#616161" transform="translate(470,298)"/>
<path d="M0 0 C0.66 0 1.32 0 2 0 C2 1.32 2 2.64 2 4 C1.34 4 0.68 4 0 4 C0 4.99 0 5.98 0 7 C-0.66 7 -1.32 7 -2 7 C-2.33 7.66 -2.66 8.32 -3 9 C-2.44271087 5.65626525 -1.64826111 2.96687001 0 0 Z " fill="#9D9D9D" transform="translate(122,139)"/>
<path d="M0 0 C0.66 0 1.32 0 2 0 C2 0.66 2 1.32 2 2 C4.31 2.33 6.62 2.66 9 3 C9 3.66 9 4.32 9 5 C5.93606987 5.25532751 4.36766788 5.21861333 1.6875 3.625 C1.130625 3.08875 0.57375 2.5525 0 2 C0 1.34 0 0.68 0 0 Z " fill="#BEBEBE" transform="translate(330,504)"/>
<path d="M0 0 C2.475 0.495 2.475 0.495 5 1 C5.33 2.32 5.66 3.64 6 5 C4.68 5.33 3.36 5.66 2 6 C2.66 4.68 3.32 3.36 4 2 C2.68 2 1.36 2 0 2 C0 1.34 0 0.68 0 0 Z " fill="#272727" transform="translate(350,437)"/>
<path d="M0 0 C0.33 0.66 0.66 1.32 1 2 C0.67 2.66 0.34 3.32 0 4 C-0.66 4 -1.32 4 -2 4 C-2 4.66 -2 5.32 -2 6 C-3.32 6 -4.64 6 -6 6 C-6 5.34 -6 4.68 -6 4 C-5.34 4 -4.68 4 -4 4 C-4 3.34 -4 2.68 -4 2 C-2.68 1.34 -1.36 0.68 0 0 Z " fill="#656565" transform="translate(419,370)"/>
<path d="M0 0 C0.66 0.33 1.32 0.66 2 1 C1.67 1.66 1.34 2.32 1 3 C0.34 3 -0.32 3 -1 3 C-1.33 4.32 -1.66 5.64 -2 7 C-3.32 7 -4.64 7 -6 7 C-6 6.34 -6 5.68 -6 5 C-4.68 4.67 -3.36 4.34 -2 4 C-2 3.34 -2 2.68 -2 2 C-1.34 2 -0.68 2 0 2 C0 1.34 0 0.68 0 0 Z " fill="#A5A5A5" transform="translate(443,345)"/>
<path d="M0 0 C2.64 0 5.28 0 8 0 C4.93882432 2.62386487 4.26826873 3 0 3 C0 2.01 0 1.02 0 0 Z " fill="#A0A0A0" transform="translate(448,302)"/>
<path d="M0 0 C1.875 0.25 1.875 0.25 4 1 C5.25 3.0625 5.25 3.0625 6 5 C4.68 5 3.36 5 2 5 C2 4.34 2 3.68 2 3 C1.34 3 0.68 3 0 3 C0 2.01 0 1.02 0 0 Z " fill="#8C8C8C" transform="translate(350,482)"/>
<path d="M0 0 C1.65 0 3.3 0 5 0 C5 1.32 5 2.64 5 4 C3.0625 3.6875 3.0625 3.6875 1 3 C0.67 2.01 0.34 1.02 0 0 Z " fill="#2B2B2B" transform="translate(132,465)"/>
<path d="M0 0 C0.33 0.99 0.66 1.98 1 3 C0.34 3 -0.32 3 -1 3 C-1 3.66 -1 4.32 -1 5 C-1.66 5 -2.32 5 -3 5 C-3 5.66 -3 6.32 -3 7 C-3.99 6.67 -4.98 6.34 -6 6 C-5.34 6 -4.68 6 -4 6 C-4 4.68 -4 3.36 -4 2 C-2.68 2 -1.36 2 0 2 C0 1.34 0 0.68 0 0 Z " fill="#A3A3A3" transform="translate(445,439)"/>
<path d="M0 0 C1.32 0 2.64 0 4 0 C3.67 1.32 3.34 2.64 3 4 C1.68 4 0.36 4 -1 4 C-0.67 2.68 -0.34 1.36 0 0 Z " fill="#4D4D4D" transform="translate(125,135)"/>
</svg>
