<?xml version="1.0" encoding="UTF-8"?>
<svg version="1.1" xmlns="http://www.w3.org/2000/svg" width="512" height="512">
<path d="M0 0 C1.23893509 -0.00350464 2.47787018 -0.00700928 3.75434875 -0.01062012 C7.12025323 -0.01786364 10.48590855 -0.01623675 13.85179853 -0.00986195 C17.39710258 -0.00475298 20.9423969 -0.00950708 24.48770142 -0.01263428 C30.44055055 -0.01626073 36.39334986 -0.01151066 42.34619141 -0.00195312 C49.19616395 0.00891886 56.04601728 0.00540966 62.89598691 -0.00560594 C68.80889977 -0.01472864 74.72177706 -0.0159396 80.6346947 -0.0107286 C84.1522082 -0.00763483 87.66966599 -0.00712697 91.18717575 -0.01380157 C95.11571509 -0.02073686 99.04412468 -0.01108149 102.97265625 0 C104.11488144 -0.00404846 105.25710663 -0.00809692 106.4339447 -0.01226807 C122.55134354 0.07132259 137.04207569 2.36547587 148.98681641 13.92675781 C156.36799924 22.0122003 158.54426708 30.03295433 158.46908569 40.90194702 C157.95520908 49.99069273 155.05515021 58.86966299 152.72900391 67.62207031 C152.15688092 69.82520695 151.58627988 72.0287393 151.01708984 74.2326355 C149.48978044 80.1294561 147.94197114 86.0207133 146.39017105 91.911129 C144.77687872 98.04961647 143.18286132 104.19310307 141.5871582 110.33618164 C139.00719758 120.2598175 136.4169426 130.18070659 133.81884766 140.09960938 C130.48738414 152.82093748 127.18481758 165.54956376 123.89697266 178.28222656 C123.41988499 180.12894941 122.94276846 181.9756648 122.46562195 183.82237244 C121.43138946 187.82522291 121.43138946 187.82522291 120.39723492 191.82809353 C118.91848514 197.55137351 117.43800712 203.27420254 115.95483398 208.99633789 C115.75743402 209.75792111 115.56003405 210.51950434 115.35665226 211.30416584 C114.39843527 214.99829093 113.43748549 218.69167321 112.47114563 222.38368225 C112.09825647 223.80867999 111.72538751 225.23368302 111.35253906 226.65869141 C111.16932319 227.35865329 110.98610731 228.05861517 110.79733944 228.77978802 C109.62414107 233.27433783 108.47728868 237.77492214 107.34551334 242.28007412 C106.56381356 245.38313464 105.77041332 248.48314083 104.97530174 251.58278847 C104.60509645 253.03769736 104.24004152 254.49392913 103.88082314 255.95158958 C99.8106223 272.45034656 93.14002873 284.27952387 78.92822266 294.07128906 C65.79276715 301.9749842 52.05885338 303.40907195 37.05628967 303.40596008 C35.61384544 303.40926271 34.17140213 303.41298911 32.72895998 303.41710156 C28.77371142 303.42708435 24.81847803 303.43083234 20.86321867 303.43349087 C16.59373229 303.437405 12.3242578 303.44698252 8.05477905 303.45570374 C-2.25170017 303.47543665 -12.55818032 303.48553022 -22.8646737 303.49443153 C-27.72354514 303.49881953 -32.5824155 303.504185 -37.44128609 303.50942039 C-53.60230629 303.52642932 -69.76332582 303.54092232 -85.9243536 303.54816914 C-90.1151778 303.55007889 -94.30600199 303.55199924 -98.49682617 303.55395508 C-99.53837648 303.55443882 -100.57992679 303.55492256 -101.65303922 303.55542096 C-118.51621995 303.56371695 -135.37932965 303.5890481 -152.24247938 303.62153576 C-169.57264984 303.65464978 -186.90278425 303.67262181 -204.23298651 303.67581338 C-213.9562973 303.67797442 -223.67950448 303.68666365 -233.40278435 303.71227455 C-241.68537217 303.73404093 -249.96783122 303.74200285 -258.2504444 303.73230777 C-262.47120631 303.72778025 -266.69170284 303.72955836 -270.9124279 303.74906921 C-274.78730493 303.7668255 -278.66172545 303.76560371 -282.53660817 303.75017192 C-284.57937561 303.74671015 -286.62214855 303.76272843 -288.66484779 303.77977639 C-303.38273593 303.67875941 -318.15659643 300.90475012 -328.97021484 290.19238281 C-335.76672294 282.17709161 -338.3784861 273.55847746 -338.23379517 263.15924072 C-337.51455489 255.13286341 -335.19017013 247.44284435 -333.08349609 239.68847656 C-332.58037079 237.78852946 -332.07899842 235.8881174 -331.57926941 233.98727417 C-330.53980092 230.03810038 -329.49324861 226.09090654 -328.4418335 222.14489746 C-326.23905663 213.85217817 -324.13355273 205.53496711 -322.02625275 197.2175827 C-320.87194112 192.66571678 -319.71070136 188.1156198 -318.54980469 183.56542969 C-318.3174411 182.65428783 -318.08507751 181.74314598 -317.84567261 180.80439377 C-313.90160859 165.3415613 -309.94102976 149.88295028 -305.97734833 134.42513657 C-304.63787861 129.20091473 -303.30034919 123.9762028 -301.96482563 118.75097084 C-300.08210906 111.38531827 -298.19246081 104.02153833 -296.28586292 96.66202736 C-295.44661075 93.4222335 -294.61201069 90.18144621 -293.78482056 86.9385376 C-292.88851713 83.4278486 -291.97816728 79.92110274 -291.06396484 76.41503906 C-290.81284439 75.41822113 -290.56172394 74.4214032 -290.30299377 73.39437866 C-286.41547144 58.67851478 -278.95473355 47.60411691 -265.72802734 39.72753906 C-257.13074593 35.28718493 -248.93153871 33.10609569 -239.2822876 33.12075806 C-238.52482483 33.11793678 -237.76736206 33.1151155 -236.98694587 33.11220872 C-234.45303812 33.10388693 -231.91917419 33.10252655 -229.38525391 33.10107422 C-227.5666288 33.0964042 -225.74800486 33.09126032 -223.92938232 33.0856781 C-220.01434692 33.07440825 -216.09931909 33.06596868 -212.18427277 33.05955887 C-205.98966142 33.04886623 -199.79510445 33.02861783 -193.6005249 33.00643921 C-175.9858245 32.94455795 -158.37112741 32.89051696 -140.75634766 32.85742188 C-131.02679626 32.83906165 -121.2973361 32.81010884 -111.56785178 32.76941717 C-106.42169907 32.74837246 -101.2756612 32.73289346 -96.1294632 32.73060989 C-91.28668747 32.72845839 -86.44415089 32.71253769 -81.60144806 32.68622017 C-79.82819946 32.67904515 -78.05492183 32.67691746 -76.28166199 32.68032265 C-63.76182354 32.82261254 -63.76182354 32.82261254 -51.88427734 29.25878906 C-49.84699733 26.68955514 -49.84699733 26.68955514 -48.82177734 23.57128906 C-44.09449728 12.93811168 -36.53325681 7.3634518 -25.91224098 2.9435997 C-17.50675899 0.10520389 -8.77763624 -0.03100126 0 0 Z " fill="#000000" transform="translate(348.88427734375,185.7412109375)"/>
<path d="M0 0 C1.12269293 -0.00445784 2.24538586 -0.00891569 3.40209979 -0.01350862 C5.26013459 -0.01323207 5.26013459 -0.01323207 7.15570545 -0.01294994 C9.12343936 -0.01846498 9.12343936 -0.01846498 11.13092548 -0.02409142 C14.78001081 -0.03411631 18.4290797 -0.037829 22.07817686 -0.04048073 C26.01083633 -0.04438234 29.94348276 -0.05396078 33.87613392 -0.0626936 C43.37741126 -0.0824621 52.87868967 -0.09252472 62.37998244 -0.10142139 C66.85336881 -0.10580367 71.326754 -0.11117063 75.80013943 -0.11641026 C90.66911257 -0.13342295 105.53808497 -0.14791737 120.40706635 -0.155159 C124.26621661 -0.15706892 128.12536686 -0.15898925 131.9845171 -0.16094494 C133.42329155 -0.16167055 133.42329155 -0.16167055 134.89113215 -0.16241082 C150.43110336 -0.17071206 165.97099761 -0.19605037 181.51093521 -0.22852562 C197.46232541 -0.26158918 213.4136765 -0.27960712 229.36510116 -0.28280324 C238.32250859 -0.28496899 247.2798038 -0.29372717 256.23717785 -0.31926441 C263.86535961 -0.34096181 271.4934019 -0.34902658 279.12161102 -0.33929763 C283.01326908 -0.33475011 286.90463931 -0.33666514 290.79625797 -0.35605907 C295.01710679 -0.37691194 299.23731614 -0.36671459 303.45819569 -0.35352612 C304.68573195 -0.36449536 305.91326821 -0.37546461 307.17800254 -0.38676625 C314.12605192 -0.33427105 318.74848909 0.32056241 324.62440968 4.13422108 C328.09951178 8.500375 329.75117349 12.00468954 329.74466419 17.55711842 C329.74672619 18.91377613 329.74672619 18.91377613 329.74882984 20.29784107 C329.74523457 21.28758427 329.74163929 22.27732746 329.73793507 23.29706287 C329.73808109 24.341133 329.73822712 25.38520313 329.73837757 26.46091175 C329.73767985 29.91844211 329.72989398 33.37591886 329.72206593 36.83343983 C329.72020125 39.22811828 329.71877758 41.62279711 329.71777821 44.01747608 C329.71395696 50.32544473 329.70412999 56.63339042 329.69307423 62.94134998 C329.68285169 69.3760799 329.67827878 75.81081351 329.6732378 82.2455492 C329.6625074 94.8751163 329.64562742 107.50466747 329.62440968 120.13422108 C330.88140675 120.12124989 332.13840382 120.10827869 333.43349171 120.09491444 C343.38304195 119.99224314 352.22965713 124.77993623 359.62440968 131.13422108 C367.09969798 138.56008599 367.09969798 138.56008599 368.62440968 143.13422108 C344.86440968 143.13422108 321.10440968 143.13422108 296.62440968 143.13422108 C296.62440968 106.83422108 296.62440968 70.53422108 296.62440968 33.13422108 C203.89440968 33.13422108 111.16440968 33.13422108 15.62440968 33.13422108 C15.62440968 81.97422108 15.62440968 130.81422108 15.62440968 181.13422108 C10.67440968 183.77422108 5.72440968 186.41422108 0.62440968 189.13422108 C-5.4211491 193.53099109 -10.37951806 197.89196796 -15.09824657 203.66547108 C-15.51977001 204.15015858 -15.94129345 204.63484608 -16.37559032 205.13422108 C-16.70559032 205.13422108 -17.03559032 205.13422108 -17.37559032 205.13422108 C-17.37559032 174.11422108 -17.37559032 143.09422108 -17.37559032 111.13422108 C-25.38327503 115.73631895 -25.38327503 115.73631895 -29.37559032 123.13422108 C-29.81252453 126.53422635 -29.70774222 129.83761773 -29.55649853 133.25677967 C-29.50237263 135.33535152 -29.44827663 137.41392415 -29.39420605 139.49249744 C-29.33964622 141.14589382 -29.33964622 141.14589382 -29.28398418 142.83269215 C-29.09678417 148.83416132 -29.00858913 154.8372495 -28.91294384 160.84076405 C-28.88153333 162.74379229 -28.88153333 162.74379229 -28.84948826 164.68526554 C-28.01380582 218.36084959 -33.42307528 266.40963605 -49.85010147 317.82965374 C-53.33890343 328.7565625 -56.25882292 339.78530802 -58.96300793 350.93033314 C-59.25570065 352.11926167 -59.54839336 353.30819019 -59.84995556 354.53314686 C-60.09865902 355.572383 -60.34736248 356.61161915 -60.60360241 357.6823473 C-61.37559032 360.13422108 -61.37559032 360.13422108 -63.37559032 362.13422108 C-63.44408888 331.4921044 -63.49715069 300.85000529 -63.52878631 270.20783029 C-63.53253825 266.58685821 -63.53642123 262.96588629 -63.54038525 259.34491444 C-63.54117218 258.62407108 -63.54195911 257.90322772 -63.54276989 257.16054062 C-63.55580915 245.50233446 -63.57945481 233.84417286 -63.60704871 222.1859931 C-63.63514414 210.2157214 -63.65177532 198.24547298 -63.65785581 186.27516967 C-63.6615959 179.55495939 -63.67056048 172.83484188 -63.69278049 166.11466503 C-63.71318705 159.78559082 -63.71941562 153.45665888 -63.71491337 147.12755489 C-63.7157367 144.80847239 -63.72167732 142.48938499 -63.73320675 140.170331 C-63.74821592 136.99480683 -63.74451308 133.81981407 -63.73635387 130.64427662 C-63.7450924 129.73470839 -63.75383092 128.82514016 -63.76283425 127.88800925 C-63.66612656 113.88519195 -58.49705268 101.5764674 -48.88730907 91.45843983 C-40.16019248 83.38280317 -29.38233994 77.96707134 -17.37559032 78.13422108 C-17.38447277 77.30816364 -17.39335522 76.48210621 -17.40250683 75.63101673 C-17.48276699 67.83338704 -17.54361261 60.03589675 -17.58283901 52.23794842 C-17.60368402 48.22923456 -17.63194439 44.22086297 -17.67734814 40.21234608 C-17.72091731 36.34142299 -17.74475064 32.47082842 -17.7550993 28.59967899 C-17.76247093 27.12530949 -17.77686624 25.6509573 -17.79851055 24.17672825 C-17.8276939 22.10601649 -17.83154042 20.03664948 -17.82969189 17.96576405 C-17.83857433 16.78883991 -17.84745678 15.61191578 -17.85660839 14.39932728 C-17.10411664 9.29148279 -14.57799618 6.21931904 -10.81309032 2.82172108 C-7.1323172 0.27349353 -4.36472617 0.00802586 0 0 Z " fill="#000000" transform="translate(68.37559032440186,22.865778923034668)"/>
<path d="M0 0 C49.5 0 99 0 150 0 C150 10.89 150 21.78 150 33 C100.5 33 51 33 0 33 C0 22.11 0 11.22 0 0 Z " fill="#000000" transform="translate(149,114)"/>
</svg>
