<?xml version="1.0" encoding="UTF-8"?>
<svg version="1.1" xmlns="http://www.w3.org/2000/svg" width="240" height="240">
<path d="M0 0 C16.94589553 15.03700072 28.71992557 32.25330194 36.00048828 53.75488281 C36.23920654 54.45895264 36.4779248 55.16302246 36.72387695 55.88842773 C40.15330718 66.58105631 40.98818602 76.93295826 40.93798828 88.12988281 C40.93550079 88.79323639 40.93301331 89.45658997 40.93045044 90.14004517 C40.7688504 118.00870658 31.71057118 144.72559817 12.62548828 165.44238281 C11.87356201 166.26585205 11.87356201 166.26585205 11.10644531 167.10595703 C-0.90934733 180.12755593 -19.28727498 195.90849571 -37.50732422 198.77832031 C-42.84997387 198.88307815 -42.84997387 198.88307815 -45.09130859 197 C-47.04031686 193.11533284 -46.79560463 189.43421773 -46.78076172 185.14550781 C-46.7915979 184.2379071 -46.80243408 183.3303064 -46.81359863 182.39520264 C-46.8478476 179.49419049 -46.86344216 176.59357043 -46.87451172 173.69238281 C-46.8891468 169.88471764 -46.9229945 166.07791861 -46.96826172 162.27050781 C-46.96524048 161.40564758 -46.96221924 160.54078735 -46.95910645 159.64971924 C-47.05341051 151.9331292 -49.09885983 145.95766188 -53.37451172 139.44238281 C-52.57529297 139.27222656 -51.77607422 139.10207031 -50.95263672 138.92675781 C-36.38314992 135.71189453 -20.87650477 131.92539329 -11.37451172 119.44238281 C-2.43758461 105.10957519 -0.11668026 88.23676107 -3.03076172 71.72363281 C-4.61712021 65.97992104 -6.83647524 61.56622583 -10.24951172 56.69238281 C-13.38352145 52.08432613 -13.38352145 52.08432613 -13.34326172 49.21582031 C-12.94172773 47.76290129 -12.49476196 46.32190456 -12.00732422 44.89550781 C-10.16660522 37.75988107 -11.98161666 29.3020153 -14.37451172 22.44238281 C-23.68539172 22.90792681 -31.91958507 25.83533485 -39.49951172 31.31738281 C-44.22596918 34.38813624 -48.03315957 33.39520214 -53.37451172 32.44238281 C-68.0138476 30.23123312 -82.85570238 29.37213027 -97.36669922 33.04003906 C-102.69717079 34.10820749 -105.34034595 33.15702966 -109.87451172 30.19238281 C-117.54749075 25.5070285 -125.57930997 23.09452016 -134.37451172 21.44238281 C-136.78725035 30.791745 -137.37193393 40.47512661 -135.62451172 50.00488281 C-135.37451172 53.44238281 -135.37451172 53.44238281 -137.06201172 55.94238281 C-138.20669922 57.17988281 -138.20669922 57.17988281 -139.37451172 58.44238281 C-147.86596 73.0208908 -147.34583361 88.5925824 -143.62841797 104.66894531 C-140.5428265 115.28337998 -134.56078832 123.96399807 -125.19482422 129.95019531 C-115.52831908 135.06460662 -105.04353824 137.44802071 -94.37451172 139.44238281 C-94.70064453 139.92707031 -95.02677734 140.41175781 -95.36279297 140.91113281 C-97.68484765 144.4729866 -99.54252778 147.66328316 -100.74951172 151.75488281 C-101.90282708 154.96273811 -102.29668452 155.38939408 -105.31201172 157.44238281 C-111.6995068 159.51290558 -119.4151008 159.67480704 -125.62451172 157.00488281 C-131.20287483 153.74119319 -135.02572995 148.38400613 -138.99951172 143.40722656 C-142.09711496 139.60782259 -144.59131542 137.06866956 -149.37451172 135.44238281 C-152.09677607 135.22539073 -154.63511578 135.30068992 -157.37451172 135.44238281 C-156.22692485 138.88514343 -155.67904483 139.08738887 -152.74951172 140.94238281 C-146.22841924 145.64037417 -142.6166517 152.63693051 -139.31201172 159.81738281 C-136.95316229 164.7157595 -133.69013276 167.33970613 -128.74951172 169.69238281 C-119.82294132 171.67606512 -111.40485852 171.39214881 -102.37451172 170.44238281 C-102.2875713 174.54641645 -102.23414023 178.6502141 -102.18701172 182.75488281 C-102.161875 183.92212891 -102.13673828 185.089375 -102.11083984 186.29199219 C-102.10117188 187.41025391 -102.09150391 188.52851563 -102.08154297 189.68066406 C-102.06583252 190.71231689 -102.05012207 191.74396973 -102.03393555 192.80688477 C-102.37451172 195.44238281 -102.37451172 195.44238281 -103.69165039 197.27929688 C-106.55696122 199.25961616 -108.98916497 198.77462242 -112.37451172 198.44238281 C-115.01383595 197.56542786 -117.37134339 196.66487243 -119.87451172 195.50488281 C-120.56520752 195.19059326 -121.25590332 194.87630371 -121.9675293 194.55249023 C-134.60958707 188.65516523 -145.1019253 181.64076931 -155.00097656 171.796875 C-156.19025766 170.62408234 -157.41428454 169.48672242 -158.64404297 168.35644531 C-171.2709854 156.55137488 -179.2728669 140.30397898 -184.74951172 124.12988281 C-184.98822998 123.42581299 -185.22694824 122.72174316 -185.47290039 121.99633789 C-188.90233062 111.30370932 -189.73720946 100.95180736 -189.68701172 89.75488281 C-189.68452423 89.09152924 -189.68203674 88.42817566 -189.67947388 87.74472046 C-189.51784061 59.87032838 -180.4571565 33.16750875 -161.37451172 12.44238281 C-160.90029785 11.92579102 -160.42608398 11.40919922 -159.9375 10.87695312 C-118.69589147 -33.54114235 -46.83414587 -40.27707338 0 0 Z " fill="#24282F" transform="translate(194.37451171875,33.5576171875)"/>
</svg>
