<?xml version="1.0" encoding="UTF-8"?>
<svg version="1.1" xmlns="http://www.w3.org/2000/svg" width="1024" height="1024">
<path d="M0 0 C337.92 0 675.84 0 1024 0 C1024 337.92 1024 675.84 1024 1024 C686.08 1024 348.16 1024 0 1024 C0 686.08 0 348.16 0 0 Z " fill="#F08705" transform="translate(0,0)"/>
<path d="M0 0 C2.96519706 1.32218229 4.90740612 2.70442902 7.08203125 5.10546875 C7.96870483 6.06948608 7.96870483 6.06948608 8.87329102 7.05297852 C9.83319946 8.10956665 9.83319946 8.10956665 10.8125 9.1875 C18.65551806 17.68542076 26.78925636 25.85705479 35.0168457 33.97924805 C42.88994986 41.78309333 42.88994986 41.78309333 46.33984375 45.83984375 C51.67791785 52.07936756 57.66527165 57.73098862 63.5 63.5 C76.87405273 76.72341979 76.87405273 76.72341979 82.13476562 82.91210938 C86.67810969 87.99780027 91.64942508 92.70880257 96.5 97.5 C108.7512222 109.60125096 108.7512222 109.60125096 114.09960938 115.87695312 C118.6594442 120.97103375 123.63715271 125.69668043 128.5 130.5 C140.7519613 142.60198101 140.7519613 142.60198101 144.46875 146.96875 C149.60334149 152.99358813 155.37402 158.44002312 161 164 C173.78400456 176.63402461 173.78400456 176.63402461 177.46875 180.96875 C182.75065327 187.17433586 188.70979426 192.77500977 194.5 198.5 C207.87405273 211.72341979 207.87405273 211.72341979 213.13476562 217.91210938 C217.67810969 222.99780027 222.64942508 227.70880257 227.5 232.5 C239.7512222 244.60125096 239.7512222 244.60125096 245.09960938 250.87695312 C249.6594442 255.97103375 254.63715271 260.69668043 259.5 265.5 C271.7519613 277.60198101 271.7519613 277.60198101 275.46875 281.96875 C280.60334149 287.99358813 286.37402 293.44002312 292 299 C304.78326304 311.63329179 304.78326304 311.63329179 310.0859375 317.86328125 C314.81006553 323.13695071 319.96579848 328.02485895 325 333 C327.29470974 335.26778857 329.58585376 337.53909708 331.875 339.8125 C332.64094482 340.56599731 332.64094482 340.56599731 333.42236328 341.3347168 C336.11195521 344.00644782 338.60919786 346.73351086 341.01716614 349.66236877 C343.82252753 352.90938691 346.76340536 355.44107349 350.19755554 358.00816345 C359.13871436 365.03204663 366.18068394 371.6648153 367.88858032 383.20291138 C368.48648474 389.57165354 368.52760677 395.91123022 368.42278576 402.30136013 C368.39815263 404.1964194 368.37369791 406.09148099 368.34940243 407.98654461 C368.33584884 408.95898292 368.32229525 409.93142124 368.30833095 410.93332738 C368.24518253 415.72740196 368.20554518 420.52164842 368.16458416 425.31595516 C368.14672606 427.31094983 368.12881007 429.30594399 368.11083984 431.30093765 C367.3464166 517.21142378 366.89972696 603.11411788 366.94147794 724.37935558 C366.9480601 735.73381467 366.95240589 747.08827318 366.95536804 758.44273376 C366.95568824 759.66654898 366.95568824 759.66654898 366.9560149 760.91508774 C366.9570763 765.01372004 366.95810281 769.11235234 366.95911207 773.21098464 C366.96734689 806.4739929 366.98147795 839.73699584 367 873 C303.22356481 873.58334046 239.44681278 874.1238398 175.66842651 874.43966675 C174.25022277 874.44670766 174.25022277 874.44670766 172.80336844 874.45389081 C152.25073554 874.55567384 131.69807436 874.64985655 111.14537103 874.7362212 C101.06484396 874.77862687 90.98432454 874.82271022 80.90380859 874.86767578 C79.90073043 874.87212159 78.89765226 874.8765674 77.86417778 874.88114793 C45.41052696 875.02577301 12.95890234 875.28095466 -19.49352332 875.59410551 C-52.8712219 875.9155962 -86.24780142 876.12428343 -119.627022 876.19310966 C-124.35251788 876.20290546 -129.07800997 876.21397706 -133.80350113 876.22582626 C-135.19842769 876.22926484 -135.19842769 876.22926484 -136.62153459 876.23277288 C-151.53097571 876.27279529 -166.43693418 876.43004591 -181.3449605 876.63228915 C-196.3704769 876.83358275 -211.39257776 876.90864044 -226.41939245 876.85904683 C-234.54865537 876.83561632 -242.66860399 876.86563457 -250.79598618 877.05298615 C-305.14972042 878.25947228 -305.14972042 878.25947228 -323.25372899 860.9573983 C-329.2779504 854.73824331 -334.53528151 848.06297692 -339.51736964 840.99640797 C-343.80319081 835.22541623 -348.81434504 830.0349484 -353.91601562 824.98632812 C-354.46174728 824.44205673 -355.00747894 823.89778534 -355.56974792 823.33702087 C-356.7394803 822.17105516 -357.9103648 821.00624431 -359.08232117 819.84251404 C-360.94392032 817.99384125 -362.80223504 816.14192039 -364.65979004 814.28918457 C-368.60370565 810.3566189 -372.55154876 806.42801101 -376.5 802.5 C-381.08055029 797.94316217 -385.65941449 793.38465593 -390.23405457 788.82188416 C-392.05261291 787.00974195 -393.87418796 785.20067157 -395.69592285 783.39172363 C-400.66984947 778.43958675 -405.54085272 773.4683402 -410.09899902 768.12585449 C-414.22574006 763.51099575 -418.6904818 759.2035266 -423.08232117 754.84251404 C-424.94392032 752.99384125 -426.80223504 751.14192039 -428.65979004 749.28918457 C-432.60370565 745.3566189 -436.55154876 741.42801101 -440.5 737.5 C-445.08055029 732.94316217 -449.65941449 728.38465593 -454.23405457 723.82188416 C-456.05261291 722.00974195 -457.87418796 720.20067157 -459.69592285 718.39172363 C-464.79153644 713.31843896 -469.80424281 708.22976993 -474.47280884 702.75427246 C-477.10850463 699.72666946 -479.95869686 696.91812513 -482.80859375 694.09375 C-483.42017838 693.48358032 -484.031763 692.87341064 -484.66188049 692.24475098 C-486.58471802 690.32743835 -488.51103094 688.41366298 -490.4375 686.5 C-491.75479059 685.18773415 -493.07184986 683.87523605 -494.38867188 682.5625 C-497.5897861 679.37231494 -500.79401865 676.18529349 -504 673 C-501 672 -501 672 -499.125 672.671875 C-498.42375 673.02765625 -497.7225 673.3834375 -497 673.75 C-485.12539899 679.27214801 -474.06838345 679.43240631 -461.21508789 679.38818359 C-459.22310601 679.39225432 -457.23112639 679.397599 -455.239151 679.40411377 C-449.85481403 679.41773441 -444.47065044 679.41251021 -439.08631063 679.40297651 C-433.43582667 679.39535159 -427.78535701 679.40243347 -422.13487244 679.40713501 C-412.64693554 679.41258477 -403.15906881 679.40542188 -393.67114258 679.39111328 C-382.723313 679.37479302 -371.77565111 679.38007395 -360.82782561 679.3965925 C-351.40667291 679.41023521 -341.9855705 679.41211328 -332.5644111 679.40427649 C-326.94708316 679.39961467 -321.32983386 679.39893386 -315.71251106 679.40888596 C-310.42891459 679.41759376 -305.14553289 679.41146433 -299.86195946 679.39420319 C-297.93031291 679.39025845 -295.99864809 679.3913376 -294.06700897 679.39799118 C-283.96822251 679.42955208 -274.68954312 679.24183553 -265 676 C-264.08973084 675.6999877 -263.17946169 675.3999754 -262.24160862 675.09087181 C-249.99573134 670.8517806 -239.72531829 660.94165022 -233.98095703 649.43554688 C-228.50409583 637.89366606 -227.70168212 627.11205285 -227.7253418 614.45947266 C-227.72098675 612.91098283 -227.71580097 611.36249515 -227.70985413 609.81401062 C-227.69653815 605.63415373 -227.69587715 601.45438767 -227.69841743 597.27451372 C-227.69949218 593.77330825 -227.69459092 590.27212079 -227.689812 586.7709192 C-227.67874241 578.50481767 -227.67826503 570.23876159 -227.68432617 561.97265625 C-227.69036431 553.47137655 -227.67805317 544.97026242 -227.6567561 536.46901095 C-227.63909042 529.14552946 -227.63314655 521.82210044 -227.63639385 514.49859846 C-227.63819894 510.1354397 -227.63564834 505.77239908 -227.62167931 501.4092598 C-227.60902439 497.30348247 -227.61111678 493.19796166 -227.62409019 489.09218788 C-227.62643894 487.59431557 -227.62378311 486.09642476 -227.61546707 484.59857368 C-227.52643654 467.30174713 -231.42493549 450.76482649 -243.78125 437.95703125 C-253.62542717 429.27405104 -266.33272458 423.10304967 -279.515625 422.68359375 C-280.76601563 422.64169922 -282.01640625 422.59980469 -283.3046875 422.55664062 C-285.25761719 422.49766602 -285.25761719 422.49766602 -287.25 422.4375 C-288.56742188 422.39431641 -289.88484375 422.35113281 -291.2421875 422.30664062 C-294.49468788 422.20058083 -297.74726392 422.09851976 -301 422 C-299.56765741 418.16595165 -297.79605406 414.70937982 -295.76171875 411.16015625 C-295.11315918 410.02610352 -294.46459961 408.89205078 -293.79638672 407.72363281 C-293.09360616 406.50315057 -292.39063945 405.28277551 -291.6875 404.0625 C-290.96099462 402.7966101 -290.23459609 401.53065887 -289.50830078 400.26464844 C-284.14531614 390.93022129 -278.6919437 381.65086157 -273.1953125 372.39453125 C-269.85090495 366.75919425 -266.54760345 361.10031966 -263.25 355.4375 C-258.07577736 346.5546864 -252.88784723 337.68003555 -247.6875 328.8125 C-247.33192017 328.20614716 -246.97634033 327.59979431 -246.60998535 326.97506714 C-244.79792297 323.88514393 -242.98567663 320.79532867 -241.17333984 317.70556641 C-239.02775582 314.04753137 -236.88289501 310.3890727 -234.73828125 306.73046875 C-234.3882605 306.13335083 -234.03823975 305.53623291 -233.6776123 304.92102051 C-232.61839564 303.11402103 -231.55919467 301.30701236 -230.5 299.5 C-226.57926122 292.81112244 -222.65848816 286.12226564 -218.73573303 279.43457031 C-217.28603057 276.96302355 -215.83648147 274.49138687 -214.38699341 272.01971436 C-213.67485163 270.80537801 -212.96267351 269.59106298 -212.25045776 268.37677002 C-208.45538727 261.90583347 -204.66571919 255.43183316 -200.890625 248.94921875 C-200.24440186 247.83973877 -199.59817871 246.73025879 -198.93237305 245.5871582 C-197.71679334 243.49897668 -196.50206506 241.41029921 -195.28833008 239.32104492 C-194.48238403 237.93622925 -194.48238403 237.93622925 -193.66015625 236.5234375 C-192.95838257 235.3156665 -192.95838257 235.3156665 -192.24243164 234.08349609 C-191.21304887 232.35727236 -190.11486146 230.6722922 -189 229 C-186.12915505 228.7138402 -183.47495711 228.62187814 -180.60302734 228.65942383 C-179.30048759 228.65876671 -179.30048759 228.65876671 -177.97163391 228.65809631 C-175.09284206 228.66019133 -172.21462798 228.6835558 -169.3359375 228.70703125 C-167.3433972 228.71262467 -165.35085278 228.71689597 -163.35830688 228.71989441 C-158.10730653 228.73136316 -152.85655408 228.76084779 -147.60565186 228.79400635 C-142.25015619 228.82466353 -136.89462057 228.83839043 -131.5390625 228.85351562 C-121.02593259 228.88571555 -110.51298689 228.93693638 -100 229 C-99.39418091 230.08017899 -98.78836182 231.16035797 -98.16418457 232.27326965 C-97.35493077 233.7145055 -96.54564351 235.15572256 -95.73632812 236.59692383 C-95.13996552 237.66055523 -95.13996552 237.66055523 -94.53155518 238.74567413 C-90.95117969 245.11878369 -87.2478567 251.41128487 -83.5 257.6875 C-82.10685894 260.02792479 -80.71540713 262.36935159 -79.32421875 264.7109375 C-78.97030563 265.30636856 -78.61639252 265.90179962 -78.25175476 266.51527405 C-74.24344094 273.26427067 -70.27730022 280.0378816 -66.3125 286.8125 C-60.87890883 296.09468118 -55.42800028 305.36620874 -49.94799805 314.62109375 C-46.93413272 319.71510799 -43.93315965 324.81646489 -40.9453125 329.92578125 C-40.59393219 330.52656998 -40.24255188 331.1273587 -39.88052368 331.74635315 C-39.34774307 332.65730995 -39.34774307 332.65730995 -38.80419922 333.58666992 C-38.07781758 334.82862387 -37.35141775 336.07056718 -36.625 337.3125 C-36.26472717 337.92848053 -35.90445435 338.54446106 -35.53326416 339.17910767 C-29.93684537 348.74303402 -24.25619043 358.25313844 -18.53271484 367.74169922 C-13.36632728 376.33220865 -8.35998754 385.01011588 -3.3762207 393.70751953 C0.90743995 401.16356491 5.30827751 408.53555199 9.85253906 415.83569336 C13 420.90518924 13 420.90518924 13 422 C11.82195801 422.02187378 11.82195801 422.02187378 10.62011719 422.04418945 C6.99629708 422.11953041 3.3733134 422.21590261 -0.25 422.3125 C-1.48492188 422.33505859 -2.71984375 422.35761719 -3.9921875 422.38085938 C-20.95062287 422.87176145 -33.99813203 427.35829352 -46.41796875 439.15625 C-56.23809805 449.97176306 -61.08480218 462.27638968 -61.15390015 476.76400757 C-61.1582824 477.41938055 -61.16266465 478.07475353 -61.1671797 478.74998629 C-61.18046904 480.93277392 -61.18672428 483.11552128 -61.19287109 485.29833984 C-61.20078016 486.86930519 -61.2090496 488.44026876 -61.21765137 490.01123047 C-61.24378904 495.16111537 -61.2591756 500.31100804 -61.2734375 505.4609375 C-61.27880149 507.24053578 -61.284179 509.02013401 -61.28956985 510.79973221 C-61.31119078 518.20992264 -61.32992213 525.62011097 -61.34119225 533.03032494 C-61.35739688 543.61195987 -61.39049871 554.19322566 -61.44759309 564.7747215 C-61.4864574 572.2349033 -61.50584461 579.69498707 -61.51111281 587.15526736 C-61.51474515 591.60033698 -61.52653768 596.04501217 -61.55921555 600.48997116 C-61.58958632 604.68116199 -61.59550643 608.87172574 -61.58383179 613.06300354 C-61.58361342 614.58824137 -61.59171836 616.11351081 -61.60948563 617.63864517 C-61.77089885 632.31162343 -58.75802854 645.88735385 -50 658 C-49.55011719 658.63164063 -49.10023438 659.26328125 -48.63671875 659.9140625 C-42.61983597 667.60889287 -34.03370666 672.61656023 -25 676 C-24.2884397 676.26845545 -23.57687941 676.5369109 -22.84375668 676.81350136 C-13.45300076 679.84232389 -3.96795579 679.42173906 5.78491211 679.38818359 C7.77689399 679.39225432 9.76887361 679.397599 11.760849 679.40411377 C17.14518597 679.41773441 22.52934956 679.41251021 27.91368937 679.40297651 C33.56417333 679.39535159 39.21464299 679.40243347 44.86512756 679.40713501 C54.35306446 679.41258477 63.84093119 679.40542188 73.32885742 679.39111328 C84.276687 679.37479302 95.22434889 679.38007395 106.17217439 679.3965925 C115.59332709 679.41023521 125.0144295 679.41211328 134.4355889 679.40427649 C140.05291684 679.39961467 145.67016614 679.39893386 151.28748894 679.40888596 C156.57108541 679.41759376 161.85446711 679.41146433 167.13804054 679.39420319 C169.06968709 679.39025845 171.00135191 679.3913376 172.93299103 679.39799118 C183.03177749 679.42955208 192.31045688 679.24183553 202 676 C202.91026916 675.6999877 203.82053831 675.3999754 204.75839138 675.09087181 C217.00426866 670.8517806 227.27468171 660.94165022 233.01904297 649.43554688 C238.49590417 637.89366606 239.29831788 627.11205285 239.2746582 614.45947266 C239.27901325 612.91098283 239.28419903 611.36249515 239.29014587 609.81401062 C239.30346185 605.63415373 239.30412285 601.45438767 239.30158257 597.27451372 C239.30050782 593.77330825 239.30540908 590.27212079 239.310188 586.7709192 C239.32125759 578.50481767 239.32173497 570.23876159 239.31567383 561.97265625 C239.30963569 553.47137655 239.32194683 544.97026242 239.3432439 536.46901095 C239.36090958 529.14552946 239.36685345 521.82210044 239.36360615 514.49859846 C239.36180106 510.1354397 239.36435166 505.77239908 239.37832069 501.4092598 C239.39097561 497.30348247 239.38888322 493.19796166 239.37590981 489.09218788 C239.37356106 487.59431557 239.37621689 486.09642476 239.38453293 484.59857368 C239.47718131 466.59887264 235.23615859 450.34047725 222.3515625 437.17578125 C206.73625969 422.72773529 189.27737827 421.14603527 168.85865402 421.57777214 C165.06564568 421.65400778 161.27456946 421.68513815 157.48086548 421.70423889 C146.71122132 421.76442479 135.9434093 421.88909006 125.17529297 422.07836914 C118.55382362 422.19422433 111.93383031 422.2412712 105.31123734 422.25195503 C102.80000352 422.26878723 100.28880689 422.30996508 97.77839279 422.37629509 C78.72937215 422.87305985 78.72937215 422.87305985 74.21108818 419.77234077 C70.9992032 416.35277671 69.52887887 412.40823593 68 408 C67.28482282 406.71458937 66.53883894 405.44475087 65.73754883 404.21118164 C64.85619263 402.70092407 64.85619263 402.70092407 63.95703125 401.16015625 C63.46132881 400.31244911 63.46132881 400.31244911 62.95561218 399.44761658 C62.26176798 398.26077594 61.56855496 397.07356607 60.87597656 395.88598633 C59.02064572 392.70474986 57.16034127 389.52642177 55.30078125 386.34765625 C54.93062897 385.71461578 54.56047668 385.08157532 54.17910767 384.42935181 C50.9698474 378.94275332 47.73887215 373.46916848 44.5 368 C39.10569412 358.88736355 33.74798426 349.75352711 28.39648438 340.61572266 C23.78036184 332.73428787 19.15255748 324.86000241 14.5 317 C9.47667026 308.51361719 4.48381859 300.00961761 -0.5 291.5 C-7.63682927 279.31561283 -14.80320792 267.14907963 -22 255 C-22.33829834 254.42886475 -22.67659668 253.85772949 -23.02514648 253.26928711 C-28.01502136 244.84515804 -33.00677523 236.42214396 -38 228 C-34.87071627 226.40268773 -31.72161208 225.12567384 -28.4375 223.875 C-14.85288303 218.19957537 -5.59574046 208.93362693 0.89453125 195.8125 C1.25933594 194.884375 1.62414062 193.95625 2 193 C2.24750031 192.37736708 2.49500063 191.75473415 2.75000095 191.11323357 C5.57018221 183.06271766 5.43068877 175.04927102 5.40405273 166.63330078 C5.40976439 164.9961399 5.41673171 163.35898299 5.42485046 161.72183228 C5.44271011 157.30021412 5.441627 152.8787952 5.43590808 148.45715189 C5.43280549 144.75462778 5.43892061 141.05214134 5.44494683 137.34962261 C5.4589671 128.60886331 5.45745187 119.8682018 5.44604492 111.12744141 C5.43456866 102.13532955 5.4486368 93.14351614 5.4754414 84.1514436 C5.49765376 76.40757284 5.50422326 68.66379538 5.49836498 60.91989505 C5.49500712 56.30519832 5.49733204 51.69069279 5.51461601 47.0760231 C5.53017146 42.73379697 5.52603515 38.39201019 5.50731087 34.04980087 C5.50364851 32.46485219 5.50666402 30.87987031 5.51719666 29.29495239 C5.575082 19.85714714 4.62237222 11.85085817 1 3 C0.67 2.01 0.34 1.02 0 0 Z " fill="#DF6C0C" transform="translate(657,151)"/>
<path d="M0 0 C2.03460546 -0.00926915 4.06920748 -0.01932017 6.10380554 -0.03009033 C11.61030919 -0.05621822 17.11676421 -0.06920448 22.6233201 -0.07811165 C26.07052026 -0.08399223 29.51770741 -0.09220534 32.96490097 -0.10112 C43.77069536 -0.12843747 54.57645968 -0.14778695 65.38228619 -0.15552378 C77.81862874 -0.16447933 90.25453101 -0.19956216 102.69073975 -0.25752497 C112.32933725 -0.30087584 121.9678114 -0.32093854 131.60650527 -0.32360601 C137.35155268 -0.32569361 143.09618531 -0.337326 148.8411293 -0.37324524 C154.25044313 -0.4064112 159.65903488 -0.41042029 165.06841469 -0.39296722 C167.04194269 -0.39143734 169.01551119 -0.39996717 170.98893929 -0.41988373 C188.90548366 -0.5899492 203.39858426 2.85838565 216.93310547 15.32226562 C226.3947671 25.08862484 233.17061594 37.70173912 233.19380188 51.47468567 C233.19762743 52.15964778 233.20145297 52.84460989 233.20539445 53.55032843 C233.21564649 55.82700785 233.21174728 58.10343138 233.20776367 60.38012695 C233.21211453 62.02008801 233.21729892 63.66004703 233.22325134 65.30000305 C233.23661385 69.74229007 233.23722297 74.18449186 233.23468804 78.62679505 C233.23361625 82.34177636 233.23850714 86.05674057 233.24329346 89.7717182 C233.25437962 98.54061492 233.25483138 107.30946881 233.2487793 116.07836914 C233.24274249 125.10846494 233.25504512 134.13840482 233.27634937 143.16847402 C233.29399564 150.9351716 233.29996187 158.70181968 233.29671162 166.46853656 C233.2949031 171.1010698 233.29749156 175.73349185 233.31142616 180.36600685 C233.32404885 184.72535306 233.32201862 189.08445726 233.30901527 193.44379997 C233.30665941 195.03765064 233.30934844 196.63151858 233.3176384 198.22534943 C233.35839487 206.67493816 233.1004813 214.37774435 229.93310547 222.32226562 C229.56830078 223.25039063 229.20349609 224.17851562 228.82763672 225.13476562 C220.36117024 242.25108774 207.37331363 250.89983976 189.93310547 257.32226562 C190.57203735 258.41220825 190.57203735 258.41220825 191.22387695 259.52416992 C192.16836392 261.13535357 193.11285026 262.74653757 194.05732727 264.35772705 C195.93348872 267.55827123 197.80971161 270.75877937 199.68603516 273.95922852 C203.5886055 280.61599509 207.49042539 287.27319871 211.39013672 293.93164062 C218.2323644 305.61289781 225.08525974 317.28744298 231.98095703 328.93725586 C236.85658878 337.17979059 241.69702585 345.44282702 246.53662109 353.70654297 C251.15274362 361.58797775 255.78054799 369.46226321 260.43310547 377.32226562 C265.45643507 385.8086482 270.44932734 394.31262445 275.43310547 402.82226562 C280.64834251 411.72635373 285.87143973 420.62561422 291.12060547 429.50976562 C291.62462891 430.363125 292.12865234 431.21648437 292.64794922 432.09570312 C293.57209235 433.65829998 294.50590455 435.21524873 295.45248795 436.76435471 C296.93310547 439.32226562 296.93310547 439.32226562 298.13390732 441.93574905 C300.62680544 447.15833469 300.62680544 447.15833469 305.2773056 450.22489166 C308.22091542 450.5541189 311.01660006 450.55717109 313.97705078 450.45410156 C315.08042786 450.45567764 316.18380493 450.45725372 317.32061768 450.45887756 C320.96928644 450.45360556 324.61333272 450.37911953 328.26123047 450.30664062 C330.81026429 450.29518235 333.3593269 450.28901808 335.90838623 450.28790283 C342.62952574 450.27470702 349.34860006 450.20717321 356.0690918 450.1227417 C366.78115269 449.98849749 377.49295559 449.91582232 388.20583344 449.89020538 C391.92531072 449.86961623 395.64267315 449.8098395 399.3616333 449.746521 C417.83651295 449.56571916 433.56655678 451.67670975 447.93310547 464.32226562 C448.57248047 464.84175781 449.21185547 465.36125 449.87060547 465.89648438 C459.46072391 474.39487058 465.11913564 487.87523344 466.93310547 500.32226562 C467.02480518 502.54654596 467.06779605 504.77313576 467.07354736 506.9992981 C467.07800405 507.96821497 467.07800405 507.96821497 467.08255076 508.95670593 C467.09117795 511.10738114 467.09274092 513.2580003 467.09423828 515.40869141 C467.09887077 516.95658994 467.10389601 518.50448734 467.10928345 520.05238342 C467.12236973 524.24898059 467.12884527 528.44556178 467.13329411 532.64217615 C467.13623152 535.26852156 467.14033763 537.89486267 467.14479828 540.5212059 C467.15846459 548.75129905 467.16813493 556.98138228 467.17200017 565.21148598 C467.17647597 574.68767359 467.19400527 584.16371661 467.22300076 593.63986027 C467.24467546 600.98023841 467.25470757 608.32057605 467.25604129 615.66098583 C467.25708537 620.03762881 467.26290795 624.41413571 467.2808609 628.79074478 C467.29744155 632.91286968 467.29944908 637.03475768 467.29072189 641.15690422 C467.28995678 642.66122895 467.29422404 644.16556695 467.30418015 645.66985893 C467.41688984 663.77625844 463.15895594 679.910319 450.22607422 693.14648438 C449.46939453 693.86449219 448.71271484 694.5825 447.93310547 695.32226562 C447.26923828 695.96808594 446.60537109 696.61390625 445.92138672 697.27929688 C435.77314017 706.15176386 421.7218085 709.47260118 408.56115723 709.46943665 C407.73286392 709.47311333 406.90457061 709.47679002 406.0511775 709.48057812 C403.28329816 709.4915668 400.51545643 709.49545062 397.74755859 709.49926758 C395.75956098 709.50553596 393.77156452 709.51218309 391.78356934 709.5191803 C385.26050628 709.5401818 378.73744311 709.55058032 372.21435547 709.56054688 C369.9641875 709.56459615 367.71401965 709.56871313 365.46385193 709.57289696 C354.88870994 709.59194151 344.31357489 709.60617304 333.73841906 709.61450893 C321.55398794 709.62427326 309.36973888 709.65057502 297.18537188 709.69100982 C287.75326148 709.72123066 278.32120309 709.73598353 268.88904524 709.73928994 C263.2625822 709.74163394 257.63631381 709.75050947 252.00990295 709.77575111 C246.71075672 709.79914084 241.4119318 709.80322139 236.11274719 709.79298973 C234.17709276 709.79249688 232.24142193 709.79874269 230.30581665 709.81254578 C211.43994978 709.93945936 195.0847664 706.64643039 180.73779297 693.25195312 C167.95559381 679.58440683 164.62548997 663.79426891 164.65844727 645.73339844 C164.65409482 644.15564738 164.6489099 642.57789843 164.64295959 641.00015259 C164.62961312 636.73133771 164.62898625 632.46261161 164.63152289 628.19377995 C164.63259593 624.62060044 164.62770056 621.04743865 164.62291747 617.47426295 C164.61183654 609.03751588 164.6113764 600.60081333 164.61743164 592.1640625 C164.62346584 583.4844621 164.61117126 574.80502404 164.58986157 566.12545133 C164.57219662 558.65339164 164.56625205 551.18138339 164.56949931 543.70930362 C164.57130511 539.25557206 164.56874707 534.80195621 164.55478477 530.34824371 C164.54213175 526.15549244 164.54422053 521.96299239 164.55719566 517.7702446 C164.55954512 516.24012285 164.55688598 514.70998301 164.54857254 513.17988205 C164.45539079 494.68114513 168.80748528 479.36296107 181.99169922 466.02539062 C194.93073305 454.13453882 208.90243998 451.13345486 225.99560547 450.69726562 C227.24277344 450.65859375 228.48994141 450.61992188 229.77490234 450.58007812 C232.82749564 450.48651205 235.88009394 450.4007689 238.93310547 450.32226562 C238.55726318 449.70109863 238.1814209 449.07993164 237.79418945 448.43994141 C230.55736805 436.46499853 223.39343547 424.46040209 216.43310547 412.32226562 C211.50190077 403.72486223 206.48838357 395.18496489 201.37060547 386.69726562 C194.7452502 375.70928962 188.26159177 364.64441818 181.81347656 353.55175781 C178.34422861 347.59340779 174.85778565 341.64513335 171.37060547 335.69726562 C171.00972839 335.08168793 170.64885132 334.46611023 170.27703857 333.83187866 C164.0438156 323.20114921 157.7838348 312.58638439 151.50683594 301.98144531 C148.20982023 296.41037874 144.9146272 290.83822826 141.62475586 285.26293945 C139.05799887 280.9132854 136.48494161 276.5677464 133.89404297 272.23242188 C133.42442139 271.44327393 132.9547998 270.65412598 132.47094727 269.84106445 C131.5931094 268.36615082 130.71194005 266.89321316 129.8269043 265.42260742 C126.93310547 260.54778619 126.93310547 260.54778619 126.93310547 258.32226562 C115.55424139 257.91843805 104.17978985 257.64133043 92.79418659 257.5217371 C87.50522981 257.4622871 82.22434469 257.36082164 76.9387207 257.15991211 C55.00585457 255.25967508 55.00585457 255.25967508 34.80679321 261.49923706 C30.13062049 266.78765226 27.87456158 272.60780753 25.94020081 279.31613159 C24.23634344 284.40206878 21.35550848 288.75311371 18.49560547 293.25976562 C17.89272705 294.2766748 17.28984863 295.29358398 16.66870117 296.34130859 C16.1952124 297.13682129 15.72172363 297.93233398 15.23388672 298.75195312 C11.8536481 304.44551434 8.51482649 310.162712 5.18310547 315.88476562 C0.00893018 324.76760673 -5.17904738 333.6422302 -10.37939453 342.50976562 C-10.73497437 343.11611847 -11.0905542 343.72247131 -11.45690918 344.34719849 C-13.26897156 347.43712169 -15.0812179 350.52693695 -16.89355469 353.61669922 C-19.03913871 357.27473426 -21.18399952 360.93319293 -23.32861328 364.59179688 C-23.67863403 365.18891479 -24.02865479 365.78603271 -24.38928223 366.40124512 C-25.44849889 368.20824459 -26.50769986 370.01525326 -27.56689453 371.82226562 C-31.48765979 378.51118835 -35.40846757 385.20008548 -39.33123779 391.88783264 C-48.05689948 406.76384849 -56.7675019 421.64844533 -65.45068359 436.54931641 C-68.32130833 441.47447589 -71.19418995 446.39831905 -74.06689453 451.32226562 C-73.29200684 451.29608154 -72.51711914 451.26989746 -71.71875 451.24291992 C-43.10898175 450.4029572 -43.10898175 450.4029572 -32.06689453 456.32226562 C-31.16583984 456.77988281 -30.26478516 457.2375 -29.33642578 457.70898438 C-14.43844274 465.93555595 -6.06460245 478.23460254 -1.06689453 494.32226562 C-0.21868523 498.59621822 0.06229954 502.64559931 0.07354736 506.9992981 C0.07800405 507.96821497 0.07800405 507.96821497 0.08255076 508.95670593 C0.09117795 511.10738114 0.09274092 513.2580003 0.09423828 515.40869141 C0.09887077 516.95658994 0.10389601 518.50448734 0.10928345 520.05238342 C0.12236973 524.24898059 0.12884527 528.44556178 0.13329411 532.64217615 C0.13623152 535.26852156 0.14033763 537.89486267 0.14479828 540.5212059 C0.15846459 548.75129905 0.16813493 556.98138228 0.17200017 565.21148598 C0.17647597 574.68767359 0.19400527 584.16371661 0.22300076 593.63986027 C0.24467546 600.98023841 0.25470757 608.32057605 0.25604129 615.66098583 C0.25708537 620.03762881 0.26290795 624.41413571 0.2808609 628.79074478 C0.29744155 632.91286968 0.29944908 637.03475768 0.29072189 641.15690422 C0.28995678 642.66122895 0.29422404 644.16556695 0.30418015 645.66985893 C0.41688984 663.77625844 -3.84104406 679.910319 -16.77392578 693.14648438 C-17.53060547 693.86449219 -18.28728516 694.5825 -19.06689453 695.32226562 C-19.73076172 695.96808594 -20.39462891 696.61390625 -21.07861328 697.27929688 C-31.22685983 706.15176386 -45.2781915 709.47260118 -58.43884277 709.46943665 C-59.26713608 709.47311333 -60.09542939 709.47679002 -60.9488225 709.48057812 C-63.71670184 709.4915668 -66.48454357 709.49545062 -69.25244141 709.49926758 C-71.24043902 709.50553596 -73.22843548 709.51218309 -75.21643066 709.5191803 C-81.73949372 709.5401818 -88.26255689 709.55058032 -94.78564453 709.56054688 C-97.0358125 709.56459615 -99.28598035 709.56871313 -101.53614807 709.57289696 C-112.11129006 709.59194151 -122.68642511 709.60617304 -133.26158094 709.61450893 C-145.44601206 709.62427326 -157.63026112 709.65057502 -169.81462812 709.69100982 C-179.24673852 709.72123066 -188.67879691 709.73598353 -198.11095476 709.73928994 C-203.7374178 709.74163394 -209.36368619 709.75050947 -214.99009705 709.77575111 C-220.28924328 709.79914084 -225.5880682 709.80322139 -230.88725281 709.79298973 C-232.82290724 709.79249688 -234.75857807 709.79874269 -236.69418335 709.81254578 C-255.56005022 709.93945936 -271.9152336 706.64643039 -286.26220703 693.25195312 C-299.04440619 679.58440683 -302.37451003 663.79426891 -302.34155273 645.73339844 C-302.34590518 644.15564738 -302.3510901 642.57789843 -302.35704041 641.00015259 C-302.37038688 636.73133771 -302.37101375 632.46261161 -302.36847711 628.19377995 C-302.36740407 624.62060044 -302.37229944 621.04743865 -302.37708253 617.47426295 C-302.38816346 609.03751588 -302.3886236 600.60081333 -302.38256836 592.1640625 C-302.37653416 583.4844621 -302.38882874 574.80502404 -302.41013843 566.12545133 C-302.42780338 558.65339164 -302.43374795 551.18138339 -302.43050069 543.70930362 C-302.42869489 539.25557206 -302.43125293 534.80195621 -302.44521523 530.34824371 C-302.45786825 526.15549244 -302.45577947 521.96299239 -302.44280434 517.7702446 C-302.44045488 516.24012285 -302.44311402 514.70998301 -302.45142746 513.17988205 C-302.5400373 495.58877441 -298.88323704 480.5613478 -286.41455078 467.57226562 C-273.77864442 455.46197933 -260.57589941 450.97824183 -243.30493164 451.09521484 C-242.16244965 451.09492279 -241.01996765 451.09463074 -239.84286499 451.09432983 C-236.09324358 451.09571528 -232.34382468 451.11123957 -228.59423828 451.12695312 C-225.9839336 451.13068604 -223.37362751 451.1335317 -220.76332092 451.13552856 C-214.61183268 451.14172238 -208.46041628 451.1581045 -202.30895954 451.17822754 C-195.30043 451.20065222 -188.29189687 451.21159642 -181.28334033 451.22161841 C-166.87782149 451.24247282 -152.47235902 451.27760759 -138.06689453 451.32226562 C-137.76761551 450.554785 -137.46833649 449.78730438 -137.1599884 448.99656677 C-135.93434373 445.99797438 -134.43958373 443.29301766 -132.82861328 440.48242188 C-132.18029541 439.34877197 -131.53197754 438.21512207 -130.86401367 437.04711914 C-130.16099824 435.82622467 -129.457787 434.60544292 -128.75439453 433.38476562 C-128.02569747 432.11521042 -127.29710166 430.84559709 -126.56860352 429.57592773 C-121.27161232 420.35738532 -115.89027531 411.19032623 -110.46142578 402.04882812 C-106.55416152 395.46756249 -102.68506874 388.86404274 -98.81689453 382.25976562 C-98.09302449 381.02416587 -97.36914751 379.78857019 -96.64526367 378.55297852 C-95.18214158 376.05542642 -93.71920066 373.5577683 -92.25634766 371.06005859 C-89.04759916 365.58168575 -85.83641103 360.10474315 -82.62536621 354.62771606 C-80.85577187 351.60929342 -79.08634165 348.59077457 -77.31689453 345.57226562 C-76.60856198 344.36393183 -75.90022865 343.1555985 -75.19189453 341.94726562 C-74.84126953 341.34914063 -74.49064453 340.75101562 -74.12939453 340.13476562 C-73.06689453 338.32226562 -72.00439453 336.50976563 -70.94189453 334.69726562 C-70.41597969 333.80011589 -70.41597969 333.80011589 -69.87944031 332.88484192 C-69.17095647 331.67625305 -68.46247055 330.4676654 -67.75398254 329.25907898 C-65.98543474 326.2421654 -64.21692299 323.22523069 -62.44848633 320.20825195 C-59.23383648 314.7240944 -56.018903 309.24010401 -52.80265808 303.75688171 C-43.53566502 287.95796407 -34.28694121 272.14864534 -25.06689453 256.32226562 C-25.65349854 256.20761963 -26.24010254 256.09297363 -26.84448242 255.97485352 C-40.29156768 253.19559632 -51.24010245 245.46045398 -58.87939453 234.00976562 C-64.23254413 225.02457363 -68.17703028 216.08768777 -68.21406555 205.58203125 C-68.21774224 204.9051271 -68.22141893 204.22822294 -68.22520703 203.53080654 C-68.23621675 201.26336851 -68.24008315 198.99597635 -68.24389648 196.72851562 C-68.25016339 195.10209509 -68.25681039 193.47567598 -68.2638092 191.84925842 C-68.2848322 186.50693759 -68.29521275 181.16461655 -68.30517578 175.82226562 C-68.30922457 173.98005153 -68.31334153 172.13783758 -68.31752586 170.29562378 C-68.33657689 161.63624186 -68.35080581 152.97686844 -68.35913783 144.3174696 C-68.36889793 134.33975997 -68.39518568 124.36227291 -68.43563873 114.38464165 C-68.4658677 106.66214249 -68.48061329 98.93970687 -68.48391885 91.21714973 C-68.48626239 86.61016076 -68.49513128 82.00340958 -68.52038002 77.39648438 C-68.54378349 73.05601625 -68.54784506 68.71594038 -68.53761864 64.37542534 C-68.53712607 62.7904676 -68.54336336 61.20548975 -68.55717468 59.62059212 C-68.68615305 43.92987609 -64.80915594 28.87489715 -53.87939453 17.00585938 C-37.60158809 1.88574175 -21.13543912 0.02248561 0 0 Z " fill="#FEFEFE" transform="translate(430.06689453125,121.677734375)"/>
<path d="M0 0 C0.33 0 0.66 0 1 0 C1 11.22 1 22.44 1 34 C-10.22 34 -21.44 34 -33 34 C-30.75508598 32.87754299 -28.50349458 31.76750381 -26.23046875 30.703125 C-14.47659932 25.09023742 -6.94480552 18.67383403 -1.89453125 6.2890625 C-1.19727139 4.21365052 -0.58776454 2.10903747 0 0 Z " fill="#000000" transform="translate(1023,990)"/>
<path d="M0 0 C1.12245701 2.24491402 2.23249619 4.49650542 3.296875 6.76953125 C8.90976258 18.52340068 15.32616597 26.05519448 27.7109375 31.10546875 C29.78634948 31.80272861 31.89096253 32.41223546 34 33 C34 33.33 34 33.66 34 34 C22.78 34 11.56 34 0 34 C0 22.78 0 11.56 0 0 Z " fill="#000000" transform="translate(0,990)"/>
<path d="M0 0 C11.22 0 22.44 0 34 0 C31.75508598 1.12245701 29.50349458 2.23249619 27.23046875 3.296875 C15.47659932 8.90976258 7.94480552 15.32616597 2.89453125 27.7109375 C2.19727139 29.78634948 1.58776454 31.89096253 1 34 C0.67 34 0.34 34 0 34 C0 22.78 0 11.56 0 0 Z " fill="#000000" transform="translate(0,0)"/>
<path d="M0 0 C11.22 0 22.44 0 34 0 C34 11.22 34 22.44 34 34 C32.87754299 31.75508598 31.76750381 29.50349458 30.703125 27.23046875 C25.09023742 15.47659932 18.67383403 7.94480552 6.2890625 2.89453125 C4.21365052 2.19727139 2.10903747 1.58776454 0 1 C0 0.67 0 0.34 0 0 Z " fill="#000000" transform="translate(990,0)"/>
</svg>
