<?xml version="1.0" encoding="UTF-8"?>
<svg version="1.1" xmlns="http://www.w3.org/2000/svg" width="48" height="48">
<path d="M0 0 C15.84 0 31.68 0 48 0 C48.20625 5.754375 48.4125 11.50875 48.625 17.4375 C48.76156006 20.13377563 48.76156006 20.13377563 48.90087891 22.88452148 C49.2339848 34.22540425 49.2339848 34.22540425 45.87011719 39.06298828 C43.35339663 41.34356411 40.86998779 43.19330568 38 45 C37.27304932 45.56775146 36.54609863 46.13550293 35.79711914 46.72045898 C34 48 34 48 32.03515625 48 C29.14968833 46.58218851 27.56251228 44.40129798 25.4375 42 C17.82607295 34.72040628 10.22461671 35.85496998 0 36 C0 24.12 0 12.24 0 0 Z " fill="#373737" transform="translate(0,0)"/>
<path d="M0 0 C15.84 0 31.68 0 48 0 C48.20625 5.754375 48.4125 11.50875 48.625 17.4375 C48.76156006 20.13377563 48.76156006 20.13377563 48.90087891 22.88452148 C49.2339848 34.22540425 49.2339848 34.22540425 45.87011719 39.06298828 C43.35339663 41.34356411 40.86998779 43.19330568 38 45 C37.27635254 45.57161865 36.55270508 46.1432373 35.80712891 46.73217773 C34 48 34 48 31.875 47.8125 C30 47 30 47 28 45 C27.625 42.125 27.625 42.125 28 39 C30 36.625 30 36.625 32 35 C31.34 34.54625 30.68 34.0925 30 33.625 C29.34 33.08875 28.68 32.5525 28 32 C28 31.34 28 30.68 28 30 C30.5 28.375 30.5 28.375 33 27 C34.32 27.99 35.64 28.98 37 30 C37.5775 29.649375 38.155 29.29875 38.75 28.9375 C41 28 41 28 45 29 C45.33 20.09 45.66 11.18 46 2 C31.48 2 16.96 2 2 2 C2 12.56 2 23.12 2 34 C6.95 34 11.9 34 17 34 C17.33 34.66 17.66 35.32 18 36 C12.06 36 6.12 36 0 36 C0 24.12 0 12.24 0 0 Z " fill="#CBCBCB" transform="translate(0,0)"/>
<path d="M0 0 C1.11375 0.804375 1.11375 0.804375 2.25 1.625 C3.1575 2.07875 4.065 2.5325 5 3 C7.08333333 2.16666667 7.08333333 2.16666667 9 1 C11.30797001 1.33940736 12.91510461 1.95755231 15 3 C15.5 6.0625 15.5 6.0625 15 10 C12.65027487 12.75563872 9.88180102 14.82657465 7 17 C5.63875 18.2375 5.63875 18.2375 4.25 19.5 C2 21 2 21 -0.1875 20.875 C-2 20 -2 20 -4 18 C-4.375 15.125 -4.375 15.125 -4 12 C-2 9.625 -2 9.625 0 8 C-0.99 7.319375 -0.99 7.319375 -2 6.625 C-2.66 6.08875 -3.32 5.5525 -4 5 C-4 4.34 -4 3.68 -4 3 C-2 1.375 -2 1.375 0 0 Z " fill="#BDFA05" transform="translate(32,27)"/>
<path d="M0 0 C1.8671875 0.85546875 1.8671875 0.85546875 4.8671875 2.85546875 C4.7021875 3.45359375 4.5371875 4.05171875 4.3671875 4.66796875 C3.7557751 6.96891211 3.7557751 6.96891211 3.8671875 9.85546875 C3.0546875 11.98046875 3.0546875 11.98046875 1.8671875 13.85546875 C0.8771875 14.18546875 -0.1128125 14.51546875 -1.1328125 14.85546875 C-3.8203125 13.41796875 -3.8203125 13.41796875 -6.1328125 11.85546875 C-8.6078125 13.34046875 -8.6078125 13.34046875 -11.1328125 14.85546875 C-12.1228125 13.86546875 -13.1128125 12.87546875 -14.1328125 11.85546875 C-12.61554752 8.07935422 -10.39129543 6.08601795 -7.2578125 3.54296875 C-6.39414062 2.82496094 -5.53046875 2.10695313 -4.640625 1.3671875 C-2.1328125 -0.14453125 -2.1328125 -0.14453125 0 0 Z " fill="#5C97EF" transform="translate(38.1328125,16.14453125)"/>
<path d="M0 0 C1.32 0.99 2.64 1.98 4 3 C3.34 4.98 2.68 6.96 2 9 C4.64 11.31 7.28 13.62 10 16 C8.25 18.0625 8.25 18.0625 6 20 C1.76118653 19.8512697 -0.85319135 16.70125314 -3.75 13.9375 C-4.25660156 13.46505859 -4.76320313 12.99261719 -5.28515625 12.50585938 C-6.52949613 11.34369289 -7.76558064 10.17269839 -9 9 C-7.63783758 5.78034336 -6.27468847 4.18312565 -3.375 2.25 C-2.74335938 1.82203125 -2.11171875 1.3940625 -1.4609375 0.953125 C-0.97882812 0.63859375 -0.49671875 0.3240625 0 0 Z " fill="#F75C5A" transform="translate(23,19)"/>
<path d="M0 0 C0.23046875 2.27734375 0.23046875 2.27734375 0 5 C-1.57421875 6.87890625 -1.57421875 6.87890625 -3.6875 8.5625 C-4.78384766 9.44615234 -4.78384766 9.44615234 -5.90234375 10.34765625 C-6.59457031 10.89292969 -7.28679688 11.43820313 -8 12 C-8.9075 12.825 -9.815 13.65 -10.75 14.5 C-13 16 -13 16 -15.1875 15.875 C-17 15 -17 15 -19 13 C-19.125 10.375 -19.125 10.375 -19 8 C-17.515 8.99 -17.515 8.99 -16 10 C-11.91871839 9.80362034 -9.71111476 7.14239154 -6.875 4.4375 C-2.20904836 0 -2.20904836 0 0 0 Z " fill="#6EBD02" transform="translate(47,32)"/>
<path d="M0 0 C2.68989642 1.97026179 5.34983067 3.97665333 8 6 C8.68964844 6.51433594 9.37929688 7.02867188 10.08984375 7.55859375 C14.90049687 11.34612228 14.90049687 11.34612228 15.4375 14.875 C15.293125 15.57625 15.14875 16.2775 15 17 C11.00871714 14.8065923 7.92853409 12.25551877 4.6875 9.0625 C3.80449219 8.20785156 2.92148438 7.35320313 2.01171875 6.47265625 C0 4 0 4 0 0 Z " fill="#AD0A07" transform="translate(13,27)"/>
<path d="M0 0 C2.5 1.75 2.5 1.75 5 4 C5 5.32 5 6.64 5 8 C1.125 6.125 1.125 6.125 0 5 C-0.04063832 3.33382885 -0.042721 1.66611905 0 0 Z " fill="#4D8400" transform="translate(28,40)"/>
<path d="M0 0 C1.98 0.99 3.96 1.98 6 3 C5.67 3.99 5.34 4.98 5 6 C2.4375 7.1875 2.4375 7.1875 0 8 C0.33 7.01 0.66 6.02 1 5 C1.66 5 2.32 5 3 5 C3 4.34 3 3.68 3 3 C2.01 3 1.02 3 0 3 C0 2.01 0 1.02 0 0 Z " fill="#EAEAEA" transform="translate(6,6)"/>
</svg>
