<svg xmlns="http://www.w3.org/2000/svg" viewBox="0 0 24 24" id="redis">
  <path fill="#912626" d="M23.06 17.537c-1.281.668-7.916 3.396-9.328 4.132-1.413.737-2.197.729-3.313.196-1.116-.533-8.177-3.385-9.448-3.993-.637-.304-.971-.56-.971-.803v-2.426s9.192-2.001 10.676-2.533 1.999-.552 3.262-.089c1.263.463 8.814 1.825 10.062 2.282l-.001 2.392c.001.24-.287.503-.939.842z"></path>
  <path fill="#C6302B" d="M23.059 15.126c-1.281.667-7.915 3.395-9.328 4.132-1.412.737-2.197.729-3.313.196C9.302 18.92 2.242 16.068.97 15.46c-1.272-.608-1.298-1.026-.049-1.516 1.249-.489 8.271-3.244 9.755-3.777 1.484-.532 1.999-.552 3.261-.089 1.263.463 7.858 3.088 9.106 3.545 1.249.459 1.297.835.016 1.503z"></path>
  <path fill="#912626" d="M23.06 13.612c-1.281.668-7.916 3.396-9.328 4.132-1.413.736-2.197.729-3.313.196-1.116-.533-8.177-3.385-9.448-3.993-.637-.304-.971-.56-.971-.803v-2.426s9.192-2.001 10.676-2.533 1.999-.552 3.262-.089c1.263.462 8.814 1.825 10.062 2.282l-.001 2.392c.001.239-.287.502-.939.842z"></path>
  <path fill="#C6302B" d="M23.059 11.201c-1.281.668-7.915 3.395-9.328 4.132-1.412.736-2.197.729-3.313.196-1.116-.533-8.176-3.385-9.448-3.993-1.272-.608-1.298-1.026-.049-1.516s8.271-3.245 9.755-3.777 1.999-.552 3.261-.089c1.263.463 7.858 3.087 9.106 3.545 1.249.457 1.297.834.016 1.502z"></path>
  <path fill="#912626" d="M23.06 9.541c-1.281.668-7.916 3.396-9.328 4.132-1.413.736-2.197.729-3.313.196-1.116-.533-8.177-3.386-9.448-3.993C.334 9.572 0 9.316 0 9.074V6.648s9.192-2.001 10.676-2.533c1.484-.533 1.999-.552 3.262-.089C15.201 4.488 22.752 5.85 24 6.307l-.001 2.392c.001.24-.287.503-.939.842z"></path>
  <path fill="#C6302B" d="M23.059 7.13c-1.281.668-7.915 3.396-9.328 4.132-1.412.736-2.197.729-3.313.196C9.303 10.924 2.242 8.072.97 7.464-.302 6.856-.328 6.438.921 5.948c1.249-.488 8.271-3.243 9.755-3.776 1.484-.532 1.999-.552 3.261-.089 1.263.463 7.858 3.088 9.106 3.545 1.249.457 1.297.834.016 1.502z"></path>
  <path fill="#FFF" d="m14.933 4.77-2.063.214-.462 1.112-.746-1.24-2.383-.215L11.057 4l-.533-.984 1.665.651 1.569-.514-.424 1.018 1.599.599zm-2.649 5.392L8.433 8.565l5.518-.847-1.667 2.444zM6.945 5.388c1.629 0 2.949.512 2.949 1.143s-1.32 1.143-2.949 1.143-2.949-.512-2.949-1.143 1.32-1.143 2.949-1.143z"></path>
  <path fill="#621B1C" d="m17.371 5.074 3.266 1.291-3.263 1.289-.003-2.58z"></path>
  <path fill="#9A2928" d="m13.758 6.503 3.613-1.429.003 2.58-.354.138-3.262-1.289z"></path>
</svg>
